%TF.GenerationSoftware,KiCad,Pcbnew,(6.0.0)*%
%TF.CreationDate,2022-03-05T02:50:21+09:00*%
%TF.ProjectId,latton rt,6c617474-6f6e-4207-9274-2e6b69636164,rev?*%
%TF.SameCoordinates,Original*%
%TF.FileFunction,Copper,L1,Top*%
%TF.FilePolarity,Positive*%
%FSLAX46Y46*%
G04 Gerber Fmt 4.6, Leading zero omitted, Abs format (unit mm)*
G04 Created by KiCad (PCBNEW (6.0.0)) date 2022-03-05 02:50:21*
%MOMM*%
%LPD*%
G01*
G04 APERTURE LIST*
G04 Aperture macros list*
%AMRoundRect*
0 Rectangle with rounded corners*
0 $1 Rounding radius*
0 $2 $3 $4 $5 $6 $7 $8 $9 X,Y pos of 4 corners*
0 Add a 4 corners polygon primitive as box body*
4,1,4,$2,$3,$4,$5,$6,$7,$8,$9,$2,$3,0*
0 Add four circle primitives for the rounded corners*
1,1,$1+$1,$2,$3*
1,1,$1+$1,$4,$5*
1,1,$1+$1,$6,$7*
1,1,$1+$1,$8,$9*
0 Add four rect primitives between the rounded corners*
20,1,$1+$1,$2,$3,$4,$5,0*
20,1,$1+$1,$4,$5,$6,$7,0*
20,1,$1+$1,$6,$7,$8,$9,0*
20,1,$1+$1,$8,$9,$2,$3,0*%
G04 Aperture macros list end*
%TA.AperFunction,NonConductor*%
%ADD10C,0.500000*%
%TD*%
%TA.AperFunction,NonConductor*%
%ADD11C,0.300000*%
%TD*%
%TA.AperFunction,NonConductor*%
%ADD12C,0.400000*%
%TD*%
%TA.AperFunction,ComponentPad*%
%ADD13R,3.500000X3.500000*%
%TD*%
%TA.AperFunction,ComponentPad*%
%ADD14RoundRect,0.750000X-0.750000X-1.000000X0.750000X-1.000000X0.750000X1.000000X-0.750000X1.000000X0*%
%TD*%
%TA.AperFunction,ComponentPad*%
%ADD15RoundRect,0.875000X-0.875000X-0.875000X0.875000X-0.875000X0.875000X0.875000X-0.875000X0.875000X0*%
%TD*%
%TA.AperFunction,ComponentPad*%
%ADD16C,2.000000*%
%TD*%
%TA.AperFunction,ComponentPad*%
%ADD17C,4.500000*%
%TD*%
%TA.AperFunction,ComponentPad*%
%ADD18R,1.400000X1.400000*%
%TD*%
%TA.AperFunction,ComponentPad*%
%ADD19C,1.400000*%
%TD*%
%TA.AperFunction,ComponentPad*%
%ADD20RoundRect,0.250000X-0.600000X-0.675000X0.600000X-0.675000X0.600000X0.675000X-0.600000X0.675000X0*%
%TD*%
%TA.AperFunction,ComponentPad*%
%ADD21O,1.700000X1.850000*%
%TD*%
%TA.AperFunction,SMDPad,CuDef*%
%ADD22RoundRect,0.218750X-0.218750X-0.256250X0.218750X-0.256250X0.218750X0.256250X-0.218750X0.256250X0*%
%TD*%
%TA.AperFunction,SMDPad,CuDef*%
%ADD23RoundRect,0.250000X-0.450000X0.262500X-0.450000X-0.262500X0.450000X-0.262500X0.450000X0.262500X0*%
%TD*%
%TA.AperFunction,ComponentPad*%
%ADD24R,5.516000X5.516000*%
%TD*%
%TA.AperFunction,ComponentPad*%
%ADD25C,5.516000*%
%TD*%
%TA.AperFunction,ViaPad*%
%ADD26C,0.800000*%
%TD*%
%TA.AperFunction,Conductor*%
%ADD27C,0.500000*%
%TD*%
%TA.AperFunction,Conductor*%
%ADD28C,0.300000*%
%TD*%
G04 APERTURE END LIST*
D10*
X167750000Y-96500000D02*
X172250000Y-96500000D01*
X171000000Y-88700000D02*
X172500000Y-90250000D01*
D11*
X136600000Y-115300000D02*
X154100000Y-115300000D01*
D10*
X153700000Y-88700000D02*
X133600000Y-88700000D01*
X131500000Y-97000000D02*
X131500000Y-91100000D01*
X162300000Y-88700000D02*
X153600000Y-88700000D01*
X167750000Y-101750000D02*
X167750000Y-96500000D01*
X162500000Y-83000000D02*
X162500000Y-88700000D01*
D11*
X131500000Y-110250000D02*
X131500000Y-112750000D01*
X131500000Y-115250000D02*
X131500000Y-117750000D01*
X171500000Y-110500000D02*
X172000000Y-110500000D01*
X131500000Y-112750000D02*
X131500000Y-115250000D01*
X169000000Y-115000000D02*
X169000000Y-116500000D01*
D10*
X165750000Y-118750000D02*
X165750000Y-103750000D01*
X131500000Y-90300000D02*
X131500000Y-91100000D01*
D11*
X169000000Y-113000000D02*
X171500000Y-110500000D01*
D10*
X173500000Y-117500000D02*
X173500000Y-116250000D01*
X172500000Y-83000000D02*
X172500000Y-96500000D01*
D11*
X136600000Y-117800000D02*
X154100000Y-117800000D01*
D12*
X131500000Y-106250000D02*
X129500000Y-108500000D01*
D10*
X172250000Y-118750000D02*
X165750000Y-118750000D01*
X173500000Y-117500000D02*
X172250000Y-118750000D01*
X131500000Y-106250000D02*
X131500000Y-97000000D01*
X131500000Y-110250000D02*
X131500000Y-106250000D01*
D11*
X169000000Y-116500000D02*
X169000000Y-117000000D01*
D10*
X162300000Y-88700000D02*
X171000000Y-88700000D01*
D12*
X129500000Y-108500000D02*
X127500000Y-108500000D01*
D10*
X133600000Y-88700000D02*
X131500000Y-90300000D01*
X165750000Y-103750000D02*
X167750000Y-101750000D01*
X178000000Y-93400000D02*
X178600000Y-93400000D01*
D11*
X131500000Y-92000000D02*
X127500000Y-92000000D01*
X169000000Y-117000000D02*
X170750000Y-118750000D01*
D12*
X172500000Y-96500000D02*
X172250000Y-96500000D01*
D13*
%TO.P,J1,1*%
%TO.N,Net-(J1-Pad1)*%
X127000000Y-91500000D03*
D14*
%TO.P,J1,2*%
%TO.N,Net-(J1-Pad2)*%
X121000000Y-91500000D03*
D15*
%TO.P,J1,3*%
%TO.N,N/C*%
X124000000Y-96200000D03*
%TD*%
D16*
%TO.P,,1*%
%TO.N,N/C*%
X141600000Y-117800000D03*
%TD*%
D17*
%TO.P,,1*%
%TO.N,N/C*%
X116000000Y-80000000D03*
%TD*%
D18*
%TO.P,SW1,1,A*%
%TO.N,Net-(J1-Pad1)*%
X173592500Y-112975000D03*
D19*
%TO.P,SW1,2,B*%
%TO.N,Net-(J5-Pad2)*%
X176092500Y-112975000D03*
%TO.P,SW1,3,C*%
%TO.N,Net-(J1-Pad1)*%
X178592500Y-112975000D03*
%TO.P,SW1,4*%
%TO.N,N/C*%
X173592500Y-116275000D03*
%TO.P,SW1,5*%
X176092500Y-116275000D03*
%TO.P,SW1,6*%
X178592500Y-116275000D03*
%TD*%
D17*
%TO.P,,1*%
%TO.N,N/C*%
X116000000Y-118000000D03*
%TD*%
D16*
%TO.P,,1*%
%TO.N,N/C*%
X144100000Y-115300000D03*
%TD*%
%TO.P,,1*%
%TO.N,N/C*%
X139100000Y-117800000D03*
%TD*%
%TO.P,,1*%
%TO.N,N/C*%
X131500000Y-110250000D03*
%TD*%
%TO.P,,1*%
%TO.N,N/C*%
X146600000Y-115300000D03*
%TD*%
%TO.P,,1*%
%TO.N,N/C*%
X144100000Y-117800000D03*
%TD*%
D20*
%TO.P,J3,1,1*%
%TO.N,Net-(J1-Pad2)*%
X162500000Y-83000000D03*
D21*
%TO.P,J3,2,2*%
%TO.N,Net-(J1-Pad1)*%
X165000000Y-83000000D03*
%TD*%
D16*
%TO.P,,1*%
%TO.N,N/C*%
X134000000Y-112750000D03*
%TD*%
%TO.P,,1*%
%TO.N,N/C*%
X134000000Y-110250000D03*
%TD*%
%TO.P,,1*%
%TO.N,N/C*%
X141600000Y-115300000D03*
%TD*%
D17*
%TO.P,,1*%
%TO.N,N/C*%
X184000000Y-80000000D03*
%TD*%
D16*
%TO.P,,1*%
%TO.N,N/C*%
X154100000Y-115300000D03*
%TD*%
D22*
%TO.P,D1,1,K*%
%TO.N,Net-(J1-Pad1)*%
X172112500Y-110500000D03*
%TO.P,D1,2,A*%
%TO.N,Net-(D1-Pad2)*%
X173687500Y-110500000D03*
%TD*%
D16*
%TO.P,,1*%
%TO.N,N/C*%
X131500000Y-112750000D03*
%TD*%
%TO.P,,1*%
%TO.N,N/C*%
X149100000Y-117800000D03*
%TD*%
%TO.P,,1*%
%TO.N,N/C*%
X139100000Y-115300000D03*
%TD*%
D17*
%TO.P,,1*%
%TO.N,N/C*%
X184000000Y-118000000D03*
%TD*%
D23*
%TO.P,R1,1*%
%TO.N,Net-(D1-Pad2)*%
X169000000Y-113087500D03*
%TO.P,R1,2*%
%TO.N,Net-(J1-Pad1)*%
X169000000Y-114912500D03*
%TD*%
D16*
%TO.P,,1*%
%TO.N,N/C*%
X151600000Y-115300000D03*
%TD*%
%TO.P,,1*%
%TO.N,N/C*%
X154100000Y-117800000D03*
%TD*%
%TO.P,,1*%
%TO.N,N/C*%
X134000000Y-117750000D03*
%TD*%
D13*
%TO.P,J2,1*%
%TO.N,Net-(J1-Pad1)*%
X127000000Y-108500000D03*
D14*
%TO.P,J2,2*%
%TO.N,Net-(J1-Pad2)*%
X121000000Y-108500000D03*
D15*
%TO.P,J2,3*%
%TO.N,N/C*%
X124000000Y-113200000D03*
%TD*%
D16*
%TO.P,,1*%
%TO.N,N/C*%
X136600000Y-115300000D03*
%TD*%
%TO.P,,1*%
%TO.N,N/C*%
X151600000Y-117800000D03*
%TD*%
D20*
%TO.P,J4,1,1*%
%TO.N,Net-(J1-Pad2)*%
X172500000Y-83000000D03*
D21*
%TO.P,J4,2,2*%
%TO.N,Net-(J1-Pad1)*%
X175000000Y-83000000D03*
%TD*%
D16*
%TO.P,,1*%
%TO.N,N/C*%
X146600000Y-117800000D03*
%TD*%
%TO.P,,1*%
%TO.N,N/C*%
X136600000Y-117800000D03*
%TD*%
%TO.P,,1*%
%TO.N,N/C*%
X149100000Y-115300000D03*
%TD*%
%TO.P,,1*%
%TO.N,N/C*%
X131500000Y-115250000D03*
%TD*%
D17*
%TO.P,Voltmeter,1*%
%TO.N,N/C*%
X136500000Y-99000000D03*
%TO.P,Voltmeter,3*%
X163500000Y-99000000D03*
%TD*%
D16*
%TO.P,,1*%
%TO.N,N/C*%
X134000000Y-115250000D03*
%TD*%
D24*
%TO.P,J5,1,-*%
%TO.N,Net-(J1-Pad1)*%
X181000000Y-100600000D03*
D25*
%TO.P,J5,2,+*%
%TO.N,Net-(J5-Pad2)*%
X181000000Y-93400000D03*
%TD*%
D16*
%TO.P,,1*%
%TO.N,N/C*%
X131500000Y-117750000D03*
%TD*%
D26*
%TO.N,Net-(D1-Pad2)*%
X173500000Y-104750000D03*
%TD*%
D27*
%TO.N,*%
X177567989Y-114799511D02*
X177567989Y-113000000D01*
X177567989Y-106567989D02*
X175000000Y-104000000D01*
X175000000Y-104000000D02*
X175000000Y-96000000D01*
X176092500Y-116275000D02*
X177567989Y-114799511D01*
X175000000Y-96000000D02*
X177600000Y-93400000D01*
X177600000Y-93400000D02*
X177917489Y-93400000D01*
X177567989Y-113000000D02*
X177567989Y-106567989D01*
D28*
%TO.N,Net-(D1-Pad2)*%
X175250000Y-106750000D02*
X175250000Y-106500000D01*
X175250000Y-106500000D02*
X173500000Y-104750000D01*
X175250000Y-108937500D02*
X175250000Y-106750000D01*
X173687500Y-110500000D02*
X175250000Y-108937500D01*
%TD*%
M02*
