M48
; DRILL file {KiCad (6.0.0)} date Sat Mar  5 02:49:53 2022
; FORMAT={-:-/ absolute / inch / decimal}
; #@! TF.CreationDate,2022-03-05T02:49:53+09:00
; #@! TF.GenerationSoftware,Kicad,Pcbnew,(6.0.0)
; #@! TF.FileFunction,Plated,1,2,PTH
FMAT,2
INCH
; #@! TA.AperFunction,Plated,PTH,ViaDrill
T1C0.0157
; #@! TA.AperFunction,Plated,PTH,ComponentDrill
T2C0.0335
; #@! TA.AperFunction,Plated,PTH,ComponentDrill
T3C0.0354
; #@! TA.AperFunction,Plated,PTH,ComponentDrill
T4C0.0394
; #@! TA.AperFunction,Plated,PTH,ComponentDrill
T5C0.1181
; #@! TA.AperFunction,Plated,PTH,ComponentDrill
T6C0.1772
%
G90
G05
T1
X6.8307Y-4.124
T2
X6.3976Y-3.2677
X6.4961Y-3.2677
X6.7913Y-3.2677
X6.8898Y-3.2677
T3
X6.8344Y-4.4478
X6.8344Y-4.5778
X6.9328Y-4.4478
X6.9328Y-4.5778
X7.0312Y-4.4478
X7.0312Y-4.5778
T4
X5.1772Y-4.3406
X5.1772Y-4.439
X5.1772Y-4.5374
X5.1772Y-4.6358
X5.2756Y-4.3406
X5.2756Y-4.439
X5.2756Y-4.5374
X5.2756Y-4.6358
X5.378Y-4.5394
X5.378Y-4.6378
X5.4764Y-4.5394
X5.4764Y-4.6378
X5.5748Y-4.5394
X5.5748Y-4.6378
X5.6732Y-4.5394
X5.6732Y-4.6378
X5.7717Y-4.5394
X5.7717Y-4.6378
X5.8701Y-4.5394
X5.8701Y-4.6378
X5.9685Y-4.5394
X5.9685Y-4.6378
X6.0669Y-4.5394
X6.0669Y-4.6378
T5
X4.5669Y-3.1496
X4.5669Y-4.6457
X5.374Y-3.8976
X6.437Y-3.8976
X7.2441Y-3.1496
X7.2441Y-4.6457
T6
X7.126Y-3.6772
X7.126Y-3.9606
T4
G00X4.7638Y-3.563
M15
G01X4.7638Y-3.6417
M16
G05
G00X4.7638Y-4.2323
M15
G01X4.7638Y-4.311
M16
G05
G00X4.8425Y-3.7874
M15
G01X4.9213Y-3.7874
M16
G05
G00X4.8425Y-4.4567
M15
G01X4.9213Y-4.4567
M16
G05
G00X5.0Y-3.563
M15
G01X5.0Y-3.6417
M16
G05
G00X5.0Y-4.2323
M15
G01X5.0Y-4.311
M16
G05
T0
M30
