%TF.GenerationSoftware,KiCad,Pcbnew,(6.0.0)*%
%TF.CreationDate,2022-03-05T02:50:21+09:00*%
%TF.ProjectId,latton rt,6c617474-6f6e-4207-9274-2e6b69636164,rev?*%
%TF.SameCoordinates,Original*%
%TF.FileFunction,Soldermask,Bot*%
%TF.FilePolarity,Negative*%
%FSLAX46Y46*%
G04 Gerber Fmt 4.6, Leading zero omitted, Abs format (unit mm)*
G04 Created by KiCad (PCBNEW (6.0.0)) date 2022-03-05 02:50:21*
%MOMM*%
%LPD*%
G01*
G04 APERTURE LIST*
G04 Aperture macros list*
%AMRoundRect*
0 Rectangle with rounded corners*
0 $1 Rounding radius*
0 $2 $3 $4 $5 $6 $7 $8 $9 X,Y pos of 4 corners*
0 Add a 4 corners polygon primitive as box body*
4,1,4,$2,$3,$4,$5,$6,$7,$8,$9,$2,$3,0*
0 Add four circle primitives for the rounded corners*
1,1,$1+$1,$2,$3*
1,1,$1+$1,$4,$5*
1,1,$1+$1,$6,$7*
1,1,$1+$1,$8,$9*
0 Add four rect primitives between the rounded corners*
20,1,$1+$1,$2,$3,$4,$5,0*
20,1,$1+$1,$4,$5,$6,$7,0*
20,1,$1+$1,$6,$7,$8,$9,0*
20,1,$1+$1,$8,$9,$2,$3,0*%
G04 Aperture macros list end*
%ADD10R,3.500000X3.500000*%
%ADD11RoundRect,0.750000X-0.750000X-1.000000X0.750000X-1.000000X0.750000X1.000000X-0.750000X1.000000X0*%
%ADD12RoundRect,0.875000X-0.875000X-0.875000X0.875000X-0.875000X0.875000X0.875000X-0.875000X0.875000X0*%
%ADD13C,2.000000*%
%ADD14C,4.500000*%
%ADD15R,1.400000X1.400000*%
%ADD16C,1.400000*%
%ADD17RoundRect,0.250000X-0.600000X-0.675000X0.600000X-0.675000X0.600000X0.675000X-0.600000X0.675000X0*%
%ADD18O,1.700000X1.850000*%
%ADD19R,5.516000X5.516000*%
%ADD20C,5.516000*%
G04 APERTURE END LIST*
D10*
%TO.C,J1*%
X127000000Y-91500000D03*
D11*
X121000000Y-91500000D03*
D12*
X124000000Y-96200000D03*
%TD*%
D13*
%TO.C,*%
X141600000Y-117800000D03*
%TD*%
D14*
%TO.C,*%
X116000000Y-80000000D03*
%TD*%
D15*
%TO.C,SW1*%
X173592500Y-112975000D03*
D16*
X176092500Y-112975000D03*
X178592500Y-112975000D03*
X173592500Y-116275000D03*
X176092500Y-116275000D03*
X178592500Y-116275000D03*
%TD*%
D14*
%TO.C,*%
X116000000Y-118000000D03*
%TD*%
D13*
%TO.C,*%
X144100000Y-115300000D03*
%TD*%
%TO.C,*%
X139100000Y-117800000D03*
%TD*%
%TO.C,*%
X131500000Y-110250000D03*
%TD*%
%TO.C,*%
X146600000Y-115300000D03*
%TD*%
%TO.C,*%
X144100000Y-117800000D03*
%TD*%
D17*
%TO.C,J3*%
X162500000Y-83000000D03*
D18*
X165000000Y-83000000D03*
%TD*%
D13*
%TO.C,*%
X134000000Y-112750000D03*
%TD*%
%TO.C,*%
X134000000Y-110250000D03*
%TD*%
%TO.C,*%
X141600000Y-115300000D03*
%TD*%
D14*
%TO.C,*%
X184000000Y-80000000D03*
%TD*%
D13*
%TO.C,*%
X154100000Y-115300000D03*
%TD*%
%TO.C,*%
X131500000Y-112750000D03*
%TD*%
%TO.C,*%
X149100000Y-117800000D03*
%TD*%
%TO.C,*%
X139100000Y-115300000D03*
%TD*%
D14*
%TO.C,*%
X184000000Y-118000000D03*
%TD*%
D13*
%TO.C,*%
X151600000Y-115300000D03*
%TD*%
%TO.C,*%
X154100000Y-117800000D03*
%TD*%
%TO.C,*%
X134000000Y-117750000D03*
%TD*%
D10*
%TO.C,J2*%
X127000000Y-108500000D03*
D11*
X121000000Y-108500000D03*
D12*
X124000000Y-113200000D03*
%TD*%
D13*
%TO.C,*%
X136600000Y-115300000D03*
%TD*%
%TO.C,*%
X151600000Y-117800000D03*
%TD*%
D17*
%TO.C,J4*%
X172500000Y-83000000D03*
D18*
X175000000Y-83000000D03*
%TD*%
D13*
%TO.C,*%
X146600000Y-117800000D03*
%TD*%
%TO.C,*%
X136600000Y-117800000D03*
%TD*%
%TO.C,*%
X149100000Y-115300000D03*
%TD*%
%TO.C,*%
X131500000Y-115250000D03*
%TD*%
D14*
%TO.C,Voltmeter*%
X136500000Y-99000000D03*
X163500000Y-99000000D03*
%TD*%
D13*
%TO.C,*%
X134000000Y-115250000D03*
%TD*%
D19*
%TO.C,J5*%
X181000000Y-100600000D03*
D20*
X181000000Y-93400000D03*
%TD*%
D13*
%TO.C,*%
X131500000Y-117750000D03*
%TD*%
M02*
