%TF.GenerationSoftware,KiCad,Pcbnew,(6.0.0)*%
%TF.CreationDate,2022-03-05T02:50:21+09:00*%
%TF.ProjectId,latton rt,6c617474-6f6e-4207-9274-2e6b69636164,rev?*%
%TF.SameCoordinates,Original*%
%TF.FileFunction,Legend,Top*%
%TF.FilePolarity,Positive*%
%FSLAX46Y46*%
G04 Gerber Fmt 4.6, Leading zero omitted, Abs format (unit mm)*
G04 Created by KiCad (PCBNEW (6.0.0)) date 2022-03-05 02:50:21*
%MOMM*%
%LPD*%
G01*
G04 APERTURE LIST*
%ADD10C,0.300000*%
%ADD11C,0.150000*%
%ADD12C,0.120000*%
%ADD13C,0.127000*%
G04 APERTURE END LIST*
D10*
X177928571Y-85107142D02*
X179071428Y-85107142D01*
X167678571Y-85107142D02*
X168821428Y-85107142D01*
D11*
%TO.C,J1*%
X118216666Y-96702380D02*
X118216666Y-97416666D01*
X118169047Y-97559523D01*
X118073809Y-97654761D01*
X117930952Y-97702380D01*
X117835714Y-97702380D01*
X119216666Y-97702380D02*
X118645238Y-97702380D01*
X118930952Y-97702380D02*
X118930952Y-96702380D01*
X118835714Y-96845238D01*
X118740476Y-96940476D01*
X118645238Y-96988095D01*
%TO.C,*%
%TO.C,SW1*%
X178166666Y-111504761D02*
X178309523Y-111552380D01*
X178547619Y-111552380D01*
X178642857Y-111504761D01*
X178690476Y-111457142D01*
X178738095Y-111361904D01*
X178738095Y-111266666D01*
X178690476Y-111171428D01*
X178642857Y-111123809D01*
X178547619Y-111076190D01*
X178357142Y-111028571D01*
X178261904Y-110980952D01*
X178214285Y-110933333D01*
X178166666Y-110838095D01*
X178166666Y-110742857D01*
X178214285Y-110647619D01*
X178261904Y-110600000D01*
X178357142Y-110552380D01*
X178595238Y-110552380D01*
X178738095Y-110600000D01*
X179071428Y-110552380D02*
X179309523Y-111552380D01*
X179500000Y-110838095D01*
X179690476Y-111552380D01*
X179928571Y-110552380D01*
X180833333Y-111552380D02*
X180261904Y-111552380D01*
X180547619Y-111552380D02*
X180547619Y-110552380D01*
X180452380Y-110695238D01*
X180357142Y-110790476D01*
X180261904Y-110838095D01*
%TO.C,*%
%TO.C,J3*%
X163416666Y-78152380D02*
X163416666Y-78866666D01*
X163369047Y-79009523D01*
X163273809Y-79104761D01*
X163130952Y-79152380D01*
X163035714Y-79152380D01*
X163797619Y-78152380D02*
X164416666Y-78152380D01*
X164083333Y-78533333D01*
X164226190Y-78533333D01*
X164321428Y-78580952D01*
X164369047Y-78628571D01*
X164416666Y-78723809D01*
X164416666Y-78961904D01*
X164369047Y-79057142D01*
X164321428Y-79104761D01*
X164226190Y-79152380D01*
X163940476Y-79152380D01*
X163845238Y-79104761D01*
X163797619Y-79057142D01*
%TO.C,*%
%TO.C,D1*%
X172161904Y-109522380D02*
X172161904Y-108522380D01*
X172400000Y-108522380D01*
X172542857Y-108570000D01*
X172638095Y-108665238D01*
X172685714Y-108760476D01*
X172733333Y-108950952D01*
X172733333Y-109093809D01*
X172685714Y-109284285D01*
X172638095Y-109379523D01*
X172542857Y-109474761D01*
X172400000Y-109522380D01*
X172161904Y-109522380D01*
X173685714Y-109522380D02*
X173114285Y-109522380D01*
X173400000Y-109522380D02*
X173400000Y-108522380D01*
X173304761Y-108665238D01*
X173209523Y-108760476D01*
X173114285Y-108808095D01*
%TO.C,*%
%TO.C,R1*%
X171102380Y-114166666D02*
X170626190Y-114500000D01*
X171102380Y-114738095D02*
X170102380Y-114738095D01*
X170102380Y-114357142D01*
X170150000Y-114261904D01*
X170197619Y-114214285D01*
X170292857Y-114166666D01*
X170435714Y-114166666D01*
X170530952Y-114214285D01*
X170578571Y-114261904D01*
X170626190Y-114357142D01*
X170626190Y-114738095D01*
X171102380Y-113214285D02*
X171102380Y-113785714D01*
X171102380Y-113500000D02*
X170102380Y-113500000D01*
X170245238Y-113595238D01*
X170340476Y-113690476D01*
X170388095Y-113785714D01*
%TO.C,*%
%TO.C,J2*%
X118216666Y-113702380D02*
X118216666Y-114416666D01*
X118169047Y-114559523D01*
X118073809Y-114654761D01*
X117930952Y-114702380D01*
X117835714Y-114702380D01*
X118645238Y-113797619D02*
X118692857Y-113750000D01*
X118788095Y-113702380D01*
X119026190Y-113702380D01*
X119121428Y-113750000D01*
X119169047Y-113797619D01*
X119216666Y-113892857D01*
X119216666Y-113988095D01*
X119169047Y-114130952D01*
X118597619Y-114702380D01*
X119216666Y-114702380D01*
%TO.C,*%
%TO.C,J4*%
X173416666Y-78152380D02*
X173416666Y-78866666D01*
X173369047Y-79009523D01*
X173273809Y-79104761D01*
X173130952Y-79152380D01*
X173035714Y-79152380D01*
X174321428Y-78485714D02*
X174321428Y-79152380D01*
X174083333Y-78104761D02*
X173845238Y-78819047D01*
X174464285Y-78819047D01*
%TO.C,*%
D10*
%TO.C,G\u002A\u002A\u002A*%
X158532782Y-114038000D02*
X158387639Y-113965428D01*
X158169925Y-113965428D01*
X157952211Y-114038000D01*
X157807068Y-114183142D01*
X157734496Y-114328285D01*
X157661925Y-114618571D01*
X157661925Y-114836285D01*
X157734496Y-115126571D01*
X157807068Y-115271714D01*
X157952211Y-115416857D01*
X158169925Y-115489428D01*
X158315068Y-115489428D01*
X158532782Y-115416857D01*
X158605354Y-115344285D01*
X158605354Y-114836285D01*
X158315068Y-114836285D01*
X159476211Y-113965428D02*
X159476211Y-114328285D01*
X159113354Y-114183142D02*
X159476211Y-114328285D01*
X159839068Y-114183142D01*
X159258496Y-114618571D02*
X159476211Y-114328285D01*
X159693925Y-114618571D01*
X160637354Y-113965428D02*
X160637354Y-114328285D01*
X160274496Y-114183142D02*
X160637354Y-114328285D01*
X161000211Y-114183142D01*
X160419639Y-114618571D02*
X160637354Y-114328285D01*
X160855068Y-114618571D01*
X161798496Y-113965428D02*
X161798496Y-114328285D01*
X161435639Y-114183142D02*
X161798496Y-114328285D01*
X162161354Y-114183142D01*
X161580782Y-114618571D02*
X161798496Y-114328285D01*
X162016211Y-114618571D01*
D11*
%TO.C,*%
%TO.C,Voltmeter*%
X146547619Y-106952380D02*
X146880952Y-107952380D01*
X147214285Y-106952380D01*
X147690476Y-107952380D02*
X147595238Y-107904761D01*
X147547619Y-107857142D01*
X147500000Y-107761904D01*
X147500000Y-107476190D01*
X147547619Y-107380952D01*
X147595238Y-107333333D01*
X147690476Y-107285714D01*
X147833333Y-107285714D01*
X147928571Y-107333333D01*
X147976190Y-107380952D01*
X148023809Y-107476190D01*
X148023809Y-107761904D01*
X147976190Y-107857142D01*
X147928571Y-107904761D01*
X147833333Y-107952380D01*
X147690476Y-107952380D01*
X148595238Y-107952380D02*
X148500000Y-107904761D01*
X148452380Y-107809523D01*
X148452380Y-106952380D01*
X148833333Y-107285714D02*
X149214285Y-107285714D01*
X148976190Y-106952380D02*
X148976190Y-107809523D01*
X149023809Y-107904761D01*
X149119047Y-107952380D01*
X149214285Y-107952380D01*
X149547619Y-107952380D02*
X149547619Y-107285714D01*
X149547619Y-107380952D02*
X149595238Y-107333333D01*
X149690476Y-107285714D01*
X149833333Y-107285714D01*
X149928571Y-107333333D01*
X149976190Y-107428571D01*
X149976190Y-107952380D01*
X149976190Y-107428571D02*
X150023809Y-107333333D01*
X150119047Y-107285714D01*
X150261904Y-107285714D01*
X150357142Y-107333333D01*
X150404761Y-107428571D01*
X150404761Y-107952380D01*
X151261904Y-107904761D02*
X151166666Y-107952380D01*
X150976190Y-107952380D01*
X150880952Y-107904761D01*
X150833333Y-107809523D01*
X150833333Y-107428571D01*
X150880952Y-107333333D01*
X150976190Y-107285714D01*
X151166666Y-107285714D01*
X151261904Y-107333333D01*
X151309523Y-107428571D01*
X151309523Y-107523809D01*
X150833333Y-107619047D01*
X151595238Y-107285714D02*
X151976190Y-107285714D01*
X151738095Y-106952380D02*
X151738095Y-107809523D01*
X151785714Y-107904761D01*
X151880952Y-107952380D01*
X151976190Y-107952380D01*
X152690476Y-107904761D02*
X152595238Y-107952380D01*
X152404761Y-107952380D01*
X152309523Y-107904761D01*
X152261904Y-107809523D01*
X152261904Y-107428571D01*
X152309523Y-107333333D01*
X152404761Y-107285714D01*
X152595238Y-107285714D01*
X152690476Y-107333333D01*
X152738095Y-107428571D01*
X152738095Y-107523809D01*
X152261904Y-107619047D01*
X153166666Y-107952380D02*
X153166666Y-107285714D01*
X153166666Y-107476190D02*
X153214285Y-107380952D01*
X153261904Y-107333333D01*
X153357142Y-107285714D01*
X153452380Y-107285714D01*
%TO.C,*%
%TO.C,J5*%
X177266435Y-87652001D02*
X177266435Y-88366782D01*
X177218783Y-88509738D01*
X177123479Y-88605042D01*
X176980523Y-88652694D01*
X176885219Y-88652694D01*
X178219476Y-87652001D02*
X177742956Y-87652001D01*
X177695304Y-88128521D01*
X177742956Y-88080869D01*
X177838260Y-88033217D01*
X178076520Y-88033217D01*
X178171824Y-88080869D01*
X178219476Y-88128521D01*
X178267128Y-88223826D01*
X178267128Y-88462086D01*
X178219476Y-88557390D01*
X178171824Y-88605042D01*
X178076520Y-88652694D01*
X177838260Y-88652694D01*
X177742956Y-88605042D01*
X177695304Y-88557390D01*
%TO.C,*%
D12*
%TO.C,J1*%
X127050000Y-86700000D02*
X128100000Y-86700000D01*
X113200000Y-86900000D02*
X127900000Y-86900000D01*
X122000000Y-96100000D02*
X113200000Y-96100000D01*
X127900000Y-93400000D02*
X127900000Y-96100000D01*
X127900000Y-96100000D02*
X126000000Y-96100000D01*
X127900000Y-86900000D02*
X127900000Y-89500000D01*
X113200000Y-96100000D02*
X113200000Y-86900000D01*
X128100000Y-87750000D02*
X128100000Y-86700000D01*
%TO.C,SW1*%
X171492500Y-116725000D02*
X172692500Y-116725000D01*
X180692500Y-112525000D02*
X180692500Y-116725000D01*
X180692500Y-116725000D02*
X179492500Y-116725000D01*
X171492500Y-112525000D02*
X171492500Y-116725000D01*
X172392500Y-112225000D02*
X171192500Y-112225000D01*
X172692500Y-112525000D02*
X171492500Y-112525000D01*
X171192500Y-112225000D02*
X171192500Y-113425000D01*
X179492500Y-112525000D02*
X180692500Y-112525000D01*
%TO.C,J3*%
X167560000Y-79790000D02*
X159940000Y-79790000D01*
X159940000Y-84910000D02*
X166560000Y-84910000D01*
X159940000Y-79790000D02*
X159940000Y-84910000D01*
X166560000Y-84910000D02*
X167560000Y-83910000D01*
X159640000Y-82800000D02*
X159640000Y-85210000D01*
X167560000Y-83910000D02*
X167560000Y-79790000D01*
X159640000Y-85210000D02*
X162050000Y-85210000D01*
%TO.C,D1*%
X173700000Y-109765000D02*
X171415000Y-109765000D01*
X171415000Y-109765000D02*
X171415000Y-111235000D01*
X171415000Y-111235000D02*
X173700000Y-111235000D01*
%TO.C,R1*%
X169735000Y-113772936D02*
X169735000Y-114227064D01*
X168265000Y-113772936D02*
X168265000Y-114227064D01*
%TO.C,J2*%
X122000000Y-113100000D02*
X113200000Y-113100000D01*
X127900000Y-113100000D02*
X126000000Y-113100000D01*
X127900000Y-103900000D02*
X127900000Y-106500000D01*
X128100000Y-104750000D02*
X128100000Y-103700000D01*
X113200000Y-113100000D02*
X113200000Y-103900000D01*
X127050000Y-103700000D02*
X128100000Y-103700000D01*
X113200000Y-103900000D02*
X127900000Y-103900000D01*
X127900000Y-110400000D02*
X127900000Y-113100000D01*
%TO.C,J4*%
X169640000Y-82800000D02*
X169640000Y-85210000D01*
X169940000Y-79790000D02*
X169940000Y-84910000D01*
X176560000Y-84910000D02*
X177560000Y-83910000D01*
X169640000Y-85210000D02*
X172050000Y-85210000D01*
X169940000Y-84910000D02*
X176560000Y-84910000D01*
X177560000Y-79790000D02*
X169940000Y-79790000D01*
X177560000Y-83910000D02*
X177560000Y-79790000D01*
%TO.C,G\u002A\u002A\u002A*%
G36*
X160392678Y-115304650D02*
G01*
X160388489Y-115308839D01*
X160384301Y-115304650D01*
X160388489Y-115300462D01*
X160392678Y-115304650D01*
G37*
G36*
X160367546Y-115229255D02*
G01*
X160363358Y-115233443D01*
X160359169Y-115229255D01*
X160363358Y-115225066D01*
X160367546Y-115229255D01*
G37*
G36*
X160845053Y-115438687D02*
G01*
X160840864Y-115442876D01*
X160836675Y-115438687D01*
X160840864Y-115434499D01*
X160845053Y-115438687D01*
G37*
G36*
X161037731Y-115656497D02*
G01*
X161033542Y-115660686D01*
X161029354Y-115656497D01*
X161033542Y-115652309D01*
X161037731Y-115656497D01*
G37*
G36*
X160643997Y-115246009D02*
G01*
X160639809Y-115250198D01*
X160635620Y-115246009D01*
X160639809Y-115241821D01*
X160643997Y-115246009D01*
G37*
G36*
X160585356Y-115354914D02*
G01*
X160581168Y-115359103D01*
X160576979Y-115354914D01*
X160581168Y-115350726D01*
X160585356Y-115354914D01*
G37*
G36*
X160593733Y-115304650D02*
G01*
X160589545Y-115308839D01*
X160585356Y-115304650D01*
X160589545Y-115300462D01*
X160593733Y-115304650D01*
G37*
G36*
X160953958Y-116787434D02*
G01*
X160949769Y-116791623D01*
X160945580Y-116787434D01*
X160949769Y-116783245D01*
X160953958Y-116787434D01*
G37*
G36*
X161079617Y-115916194D02*
G01*
X161075429Y-115920383D01*
X161071240Y-115916194D01*
X161075429Y-115912005D01*
X161079617Y-115916194D01*
G37*
G36*
X160300528Y-117105772D02*
G01*
X160296339Y-117109960D01*
X160292150Y-117105772D01*
X160296339Y-117101583D01*
X160300528Y-117105772D01*
G37*
G36*
X161020976Y-116879584D02*
G01*
X161016788Y-116883773D01*
X161012599Y-116879584D01*
X161016788Y-116875396D01*
X161020976Y-116879584D01*
G37*
G36*
X161213654Y-116201022D02*
G01*
X161209466Y-116205211D01*
X161205277Y-116201022D01*
X161209466Y-116196834D01*
X161213654Y-116201022D01*
G37*
G36*
X160685884Y-115313028D02*
G01*
X160681695Y-115317216D01*
X160677507Y-115313028D01*
X160681695Y-115308839D01*
X160685884Y-115313028D01*
G37*
G36*
X161054485Y-116485851D02*
G01*
X161050297Y-116490040D01*
X161046108Y-116485851D01*
X161050297Y-116481662D01*
X161054485Y-116485851D01*
G37*
G36*
X160669129Y-117089017D02*
G01*
X160664941Y-117093206D01*
X160660752Y-117089017D01*
X160664941Y-117084828D01*
X160669129Y-117089017D01*
G37*
G36*
X160953958Y-116695284D02*
G01*
X160949769Y-116699472D01*
X160945580Y-116695284D01*
X160949769Y-116691095D01*
X160953958Y-116695284D01*
G37*
G36*
X160602111Y-117097394D02*
G01*
X160597922Y-117101583D01*
X160593733Y-117097394D01*
X160597922Y-117093206D01*
X160602111Y-117097394D01*
G37*
G36*
X161096372Y-115899439D02*
G01*
X161092183Y-115903628D01*
X161087995Y-115899439D01*
X161092183Y-115895251D01*
X161096372Y-115899439D01*
G37*
G36*
X160526715Y-115287896D02*
G01*
X160522526Y-115292084D01*
X160518338Y-115287896D01*
X160522526Y-115283707D01*
X160526715Y-115287896D01*
G37*
G36*
X161096372Y-116066985D02*
G01*
X161092183Y-116071174D01*
X161087995Y-116066985D01*
X161092183Y-116062797D01*
X161096372Y-116066985D01*
G37*
G36*
X160752902Y-115463819D02*
G01*
X160748714Y-115468008D01*
X160744525Y-115463819D01*
X160748714Y-115459631D01*
X160752902Y-115463819D01*
G37*
G36*
X161121504Y-116578001D02*
G01*
X161117315Y-116582190D01*
X161113127Y-116578001D01*
X161117315Y-116573813D01*
X161121504Y-116578001D01*
G37*
G36*
X160870185Y-116921471D02*
G01*
X160865996Y-116925660D01*
X160861807Y-116921471D01*
X160865996Y-116917282D01*
X160870185Y-116921471D01*
G37*
G36*
X160367546Y-117172790D02*
G01*
X160363358Y-117176979D01*
X160359169Y-117172790D01*
X160363358Y-117168602D01*
X160367546Y-117172790D01*
G37*
G36*
X161146636Y-116125627D02*
G01*
X161142447Y-116129815D01*
X161138259Y-116125627D01*
X161142447Y-116121438D01*
X161146636Y-116125627D01*
G37*
G36*
X161054485Y-116460719D02*
G01*
X161050297Y-116464908D01*
X161046108Y-116460719D01*
X161050297Y-116456530D01*
X161054485Y-116460719D01*
G37*
G36*
X161171768Y-116502606D02*
G01*
X161167579Y-116506794D01*
X161163390Y-116502606D01*
X161167579Y-116498417D01*
X161171768Y-116502606D01*
G37*
G36*
X161062863Y-116636642D02*
G01*
X161058674Y-116640831D01*
X161054485Y-116636642D01*
X161058674Y-116632454D01*
X161062863Y-116636642D01*
G37*
G36*
X160945580Y-115740270D02*
G01*
X160941392Y-115744459D01*
X160937203Y-115740270D01*
X160941392Y-115736082D01*
X160945580Y-115740270D01*
G37*
G36*
X160685884Y-115472197D02*
G01*
X160681695Y-115476385D01*
X160677507Y-115472197D01*
X160681695Y-115468008D01*
X160685884Y-115472197D01*
G37*
G36*
X160979090Y-116686906D02*
G01*
X160974901Y-116691095D01*
X160970712Y-116686906D01*
X160974901Y-116682718D01*
X160979090Y-116686906D01*
G37*
G36*
X160535092Y-117047131D02*
G01*
X160530904Y-117051319D01*
X160526715Y-117047131D01*
X160530904Y-117042942D01*
X160535092Y-117047131D01*
G37*
G36*
X161087995Y-115631365D02*
G01*
X161083806Y-115635554D01*
X161079617Y-115631365D01*
X161083806Y-115627177D01*
X161087995Y-115631365D01*
G37*
G36*
X160811544Y-115447065D02*
G01*
X160807355Y-115451253D01*
X160803166Y-115447065D01*
X160807355Y-115442876D01*
X160811544Y-115447065D01*
G37*
G36*
X160853430Y-115371669D02*
G01*
X160849241Y-115375858D01*
X160845053Y-115371669D01*
X160849241Y-115367480D01*
X160853430Y-115371669D01*
G37*
G36*
X160828298Y-115514083D02*
G01*
X160824109Y-115518272D01*
X160819921Y-115514083D01*
X160824109Y-115509894D01*
X160828298Y-115514083D01*
G37*
G36*
X160250264Y-115145482D02*
G01*
X160246075Y-115149670D01*
X160241887Y-115145482D01*
X160246075Y-115141293D01*
X160250264Y-115145482D01*
G37*
G36*
X160794789Y-115354914D02*
G01*
X160790600Y-115359103D01*
X160786412Y-115354914D01*
X160790600Y-115350726D01*
X160794789Y-115354914D01*
G37*
G36*
X160526715Y-117097394D02*
G01*
X160522526Y-117101583D01*
X160518338Y-117097394D01*
X160522526Y-117093206D01*
X160526715Y-117097394D01*
G37*
G36*
X160970712Y-115731893D02*
G01*
X160966524Y-115736082D01*
X160962335Y-115731893D01*
X160966524Y-115727704D01*
X160970712Y-115731893D01*
G37*
G36*
X161155013Y-116075363D02*
G01*
X161150825Y-116079551D01*
X161146636Y-116075363D01*
X161150825Y-116071174D01*
X161155013Y-116075363D01*
G37*
G36*
X160886939Y-116938226D02*
G01*
X160882751Y-116942414D01*
X160878562Y-116938226D01*
X160882751Y-116934037D01*
X160886939Y-116938226D01*
G37*
G36*
X160225132Y-117189545D02*
G01*
X160220943Y-117193733D01*
X160216755Y-117189545D01*
X160220943Y-117185356D01*
X160225132Y-117189545D01*
G37*
G36*
X161238786Y-116066985D02*
G01*
X161234598Y-116071174D01*
X161230409Y-116066985D01*
X161234598Y-116062797D01*
X161238786Y-116066985D01*
G37*
G36*
X161096372Y-115815666D02*
G01*
X161092183Y-115819855D01*
X161087995Y-115815666D01*
X161092183Y-115811478D01*
X161096372Y-115815666D01*
G37*
G36*
X161230409Y-116368569D02*
G01*
X161226220Y-116372757D01*
X161222032Y-116368569D01*
X161226220Y-116364380D01*
X161230409Y-116368569D01*
G37*
G36*
X160585356Y-115229255D02*
G01*
X160581168Y-115233443D01*
X160576979Y-115229255D01*
X160581168Y-115225066D01*
X160585356Y-115229255D01*
G37*
G36*
X161205277Y-115974835D02*
G01*
X161201088Y-115979024D01*
X161196900Y-115974835D01*
X161201088Y-115970646D01*
X161205277Y-115974835D01*
G37*
G36*
X161121504Y-116192645D02*
G01*
X161117315Y-116196834D01*
X161113127Y-116192645D01*
X161117315Y-116188456D01*
X161121504Y-116192645D01*
G37*
G36*
X160761280Y-115505706D02*
G01*
X160757091Y-115509894D01*
X160752902Y-115505706D01*
X160757091Y-115501517D01*
X160761280Y-115505706D01*
G37*
G36*
X160384301Y-115204123D02*
G01*
X160380112Y-115208311D01*
X160375923Y-115204123D01*
X160380112Y-115199934D01*
X160384301Y-115204123D01*
G37*
G36*
X160652375Y-115388423D02*
G01*
X160648186Y-115392612D01*
X160643997Y-115388423D01*
X160648186Y-115384235D01*
X160652375Y-115388423D01*
G37*
G36*
X161213654Y-116167513D02*
G01*
X161209466Y-116171702D01*
X161205277Y-116167513D01*
X161209466Y-116163325D01*
X161213654Y-116167513D01*
G37*
G36*
X161071240Y-115807289D02*
G01*
X161067051Y-115811478D01*
X161062863Y-115807289D01*
X161067051Y-115803100D01*
X161071240Y-115807289D01*
G37*
G36*
X160761280Y-117005244D02*
G01*
X160757091Y-117009433D01*
X160752902Y-117005244D01*
X160757091Y-117001055D01*
X160761280Y-117005244D01*
G37*
G36*
X160669129Y-117038753D02*
G01*
X160664941Y-117042942D01*
X160660752Y-117038753D01*
X160664941Y-117034565D01*
X160669129Y-117038753D01*
G37*
G36*
X161071240Y-116812566D02*
G01*
X161067051Y-116816755D01*
X161062863Y-116812566D01*
X161067051Y-116808377D01*
X161071240Y-116812566D01*
G37*
G36*
X160250264Y-117105772D02*
G01*
X160246075Y-117109960D01*
X160241887Y-117105772D01*
X160246075Y-117101583D01*
X160250264Y-117105772D01*
G37*
G36*
X160417810Y-117130904D02*
G01*
X160413621Y-117135092D01*
X160409433Y-117130904D01*
X160413621Y-117126715D01*
X160417810Y-117130904D01*
G37*
G36*
X160493206Y-117080640D02*
G01*
X160489017Y-117084828D01*
X160484828Y-117080640D01*
X160489017Y-117076451D01*
X160493206Y-117080640D01*
G37*
G36*
X160970712Y-116779057D02*
G01*
X160966524Y-116783245D01*
X160962335Y-116779057D01*
X160966524Y-116774868D01*
X160970712Y-116779057D01*
G37*
G36*
X160928826Y-116795811D02*
G01*
X160924637Y-116800000D01*
X160920449Y-116795811D01*
X160924637Y-116791623D01*
X160928826Y-116795811D01*
G37*
G36*
X160225132Y-115296273D02*
G01*
X160220943Y-115300462D01*
X160216755Y-115296273D01*
X160220943Y-115292084D01*
X160225132Y-115296273D01*
G37*
G36*
X160267018Y-115162236D02*
G01*
X160262830Y-115166425D01*
X160258641Y-115162236D01*
X160262830Y-115158047D01*
X160267018Y-115162236D01*
G37*
G36*
X160953958Y-116745547D02*
G01*
X160949769Y-116749736D01*
X160945580Y-116745547D01*
X160949769Y-116741359D01*
X160953958Y-116745547D01*
G37*
G36*
X160635620Y-115413555D02*
G01*
X160631431Y-115417744D01*
X160627243Y-115413555D01*
X160631431Y-115409367D01*
X160635620Y-115413555D01*
G37*
G36*
X160995844Y-115723516D02*
G01*
X160991656Y-115727704D01*
X160987467Y-115723516D01*
X160991656Y-115719327D01*
X160995844Y-115723516D01*
G37*
G36*
X160258641Y-115254387D02*
G01*
X160254452Y-115258575D01*
X160250264Y-115254387D01*
X160254452Y-115250198D01*
X160258641Y-115254387D01*
G37*
G36*
X161146636Y-115899439D02*
G01*
X161142447Y-115903628D01*
X161138259Y-115899439D01*
X161142447Y-115895251D01*
X161146636Y-115899439D01*
G37*
G36*
X160669129Y-115447065D02*
G01*
X160664941Y-115451253D01*
X160660752Y-115447065D01*
X160664941Y-115442876D01*
X160669129Y-115447065D01*
G37*
G36*
X161104749Y-116360191D02*
G01*
X161100561Y-116364380D01*
X161096372Y-116360191D01*
X161100561Y-116356003D01*
X161104749Y-116360191D01*
G37*
G36*
X161096372Y-116452342D02*
G01*
X161092183Y-116456530D01*
X161087995Y-116452342D01*
X161092183Y-116448153D01*
X161096372Y-116452342D01*
G37*
G36*
X160895317Y-115514083D02*
G01*
X160891128Y-115518272D01*
X160886939Y-115514083D01*
X160891128Y-115509894D01*
X160895317Y-115514083D01*
G37*
G36*
X161071240Y-116418832D02*
G01*
X161067051Y-116423021D01*
X161062863Y-116418832D01*
X161067051Y-116414644D01*
X161071240Y-116418832D01*
G37*
G36*
X160845053Y-115488951D02*
G01*
X160840864Y-115493140D01*
X160836675Y-115488951D01*
X160840864Y-115484763D01*
X160845053Y-115488951D01*
G37*
G36*
X160451319Y-117072263D02*
G01*
X160447131Y-117076451D01*
X160442942Y-117072263D01*
X160447131Y-117068074D01*
X160451319Y-117072263D01*
G37*
G36*
X160468074Y-117189545D02*
G01*
X160463885Y-117193733D01*
X160459697Y-117189545D01*
X160463885Y-117185356D01*
X160468074Y-117189545D01*
G37*
G36*
X160995844Y-115622988D02*
G01*
X160991656Y-115627177D01*
X160987467Y-115622988D01*
X160991656Y-115618799D01*
X160995844Y-115622988D01*
G37*
G36*
X160886939Y-115438687D02*
G01*
X160882751Y-115442876D01*
X160878562Y-115438687D01*
X160882751Y-115434499D01*
X160886939Y-115438687D01*
G37*
G36*
X160392678Y-115229255D02*
G01*
X160388489Y-115233443D01*
X160384301Y-115229255D01*
X160388489Y-115225066D01*
X160392678Y-115229255D01*
G37*
G36*
X161222032Y-116301550D02*
G01*
X161217843Y-116305739D01*
X161213654Y-116301550D01*
X161217843Y-116297361D01*
X161222032Y-116301550D01*
G37*
G36*
X160610488Y-115346537D02*
G01*
X160606299Y-115350726D01*
X160602111Y-115346537D01*
X160606299Y-115342348D01*
X160610488Y-115346537D01*
G37*
G36*
X161037731Y-115581102D02*
G01*
X161033542Y-115585290D01*
X161029354Y-115581102D01*
X161033542Y-115576913D01*
X161037731Y-115581102D01*
G37*
G36*
X160694261Y-115363292D02*
G01*
X160690073Y-115367480D01*
X160685884Y-115363292D01*
X160690073Y-115359103D01*
X160694261Y-115363292D01*
G37*
G36*
X161071240Y-116703661D02*
G01*
X161067051Y-116707850D01*
X161062863Y-116703661D01*
X161067051Y-116699472D01*
X161071240Y-116703661D01*
G37*
G36*
X161087995Y-115790534D02*
G01*
X161083806Y-115794723D01*
X161079617Y-115790534D01*
X161083806Y-115786346D01*
X161087995Y-115790534D01*
G37*
G36*
X160727770Y-116938226D02*
G01*
X160723582Y-116942414D01*
X160719393Y-116938226D01*
X160723582Y-116934037D01*
X160727770Y-116938226D01*
G37*
G36*
X160401055Y-115354914D02*
G01*
X160396867Y-115359103D01*
X160392678Y-115354914D01*
X160396867Y-115350726D01*
X160401055Y-115354914D01*
G37*
G36*
X161171768Y-116134004D02*
G01*
X161167579Y-116138193D01*
X161163390Y-116134004D01*
X161167579Y-116129815D01*
X161171768Y-116134004D01*
G37*
G36*
X161213654Y-116259664D02*
G01*
X161209466Y-116263852D01*
X161205277Y-116259664D01*
X161209466Y-116255475D01*
X161213654Y-116259664D01*
G37*
G36*
X160979090Y-115514083D02*
G01*
X160974901Y-115518272D01*
X160970712Y-115514083D01*
X160974901Y-115509894D01*
X160979090Y-115514083D01*
G37*
G36*
X161171768Y-116335059D02*
G01*
X161167579Y-116339248D01*
X161163390Y-116335059D01*
X161167579Y-116330871D01*
X161171768Y-116335059D01*
G37*
G36*
X161230409Y-116142381D02*
G01*
X161226220Y-116146570D01*
X161222032Y-116142381D01*
X161226220Y-116138193D01*
X161230409Y-116142381D01*
G37*
G36*
X161062863Y-116603133D02*
G01*
X161058674Y-116607322D01*
X161054485Y-116603133D01*
X161058674Y-116598945D01*
X161062863Y-116603133D01*
G37*
G36*
X161163390Y-116477474D02*
G01*
X161159202Y-116481662D01*
X161155013Y-116477474D01*
X161159202Y-116473285D01*
X161163390Y-116477474D01*
G37*
G36*
X160895317Y-116871207D02*
G01*
X160891128Y-116875396D01*
X160886939Y-116871207D01*
X160891128Y-116867018D01*
X160895317Y-116871207D01*
G37*
G36*
X160560224Y-117030376D02*
G01*
X160556036Y-117034565D01*
X160551847Y-117030376D01*
X160556036Y-117026187D01*
X160560224Y-117030376D01*
G37*
G36*
X160853430Y-115463819D02*
G01*
X160849241Y-115468008D01*
X160845053Y-115463819D01*
X160849241Y-115459631D01*
X160853430Y-115463819D01*
G37*
G36*
X161222032Y-116443964D02*
G01*
X161217843Y-116448153D01*
X161213654Y-116443964D01*
X161217843Y-116439776D01*
X161222032Y-116443964D01*
G37*
G36*
X160610488Y-117005244D02*
G01*
X160606299Y-117009433D01*
X160602111Y-117005244D01*
X160606299Y-117001055D01*
X160610488Y-117005244D01*
G37*
G36*
X160886939Y-116988489D02*
G01*
X160882751Y-116992678D01*
X160878562Y-116988489D01*
X160882751Y-116984301D01*
X160886939Y-116988489D01*
G37*
G36*
X160794789Y-117013621D02*
G01*
X160790600Y-117017810D01*
X160786412Y-117013621D01*
X160790600Y-117009433D01*
X160794789Y-117013621D01*
G37*
G36*
X160979090Y-115698384D02*
G01*
X160974901Y-115702573D01*
X160970712Y-115698384D01*
X160974901Y-115694195D01*
X160979090Y-115698384D01*
G37*
G36*
X160560224Y-115237632D02*
G01*
X160556036Y-115241821D01*
X160551847Y-115237632D01*
X160556036Y-115233443D01*
X160560224Y-115237632D01*
G37*
G36*
X161113127Y-116544492D02*
G01*
X161108938Y-116548681D01*
X161104749Y-116544492D01*
X161108938Y-116540303D01*
X161113127Y-116544492D01*
G37*
G36*
X161071240Y-116443964D02*
G01*
X161067051Y-116448153D01*
X161062863Y-116443964D01*
X161067051Y-116439776D01*
X161071240Y-116443964D01*
G37*
G36*
X160786412Y-115321405D02*
G01*
X160782223Y-115325594D01*
X160778034Y-115321405D01*
X160782223Y-115317216D01*
X160786412Y-115321405D01*
G37*
G36*
X160794789Y-116963358D02*
G01*
X160790600Y-116967546D01*
X160786412Y-116963358D01*
X160790600Y-116959169D01*
X160794789Y-116963358D01*
G37*
G36*
X161213654Y-115924571D02*
G01*
X161209466Y-115928760D01*
X161205277Y-115924571D01*
X161209466Y-115920383D01*
X161213654Y-115924571D01*
G37*
G36*
X161129881Y-116645020D02*
G01*
X161125693Y-116649208D01*
X161121504Y-116645020D01*
X161125693Y-116640831D01*
X161129881Y-116645020D01*
G37*
G36*
X160267018Y-115329782D02*
G01*
X160262830Y-115333971D01*
X160258641Y-115329782D01*
X160262830Y-115325594D01*
X160267018Y-115329782D01*
G37*
G36*
X160300528Y-117130904D02*
G01*
X160296339Y-117135092D01*
X160292150Y-117130904D01*
X160296339Y-117126715D01*
X160300528Y-117130904D01*
G37*
G36*
X160560224Y-117063885D02*
G01*
X160556036Y-117068074D01*
X160551847Y-117063885D01*
X160556036Y-117059697D01*
X160560224Y-117063885D01*
G37*
G36*
X161004222Y-115798912D02*
G01*
X161000033Y-115803100D01*
X160995844Y-115798912D01*
X161000033Y-115794723D01*
X161004222Y-115798912D01*
G37*
G36*
X160317282Y-115162236D02*
G01*
X160313094Y-115166425D01*
X160308905Y-115162236D01*
X160313094Y-115158047D01*
X160317282Y-115162236D01*
G37*
G36*
X160886939Y-115597856D02*
G01*
X160882751Y-115602045D01*
X160878562Y-115597856D01*
X160882751Y-115593668D01*
X160886939Y-115597856D01*
G37*
G36*
X161171768Y-115874307D02*
G01*
X161167579Y-115878496D01*
X161163390Y-115874307D01*
X161167579Y-115870119D01*
X161171768Y-115874307D01*
G37*
G36*
X160912071Y-115539215D02*
G01*
X160907883Y-115543404D01*
X160903694Y-115539215D01*
X160907883Y-115535026D01*
X160912071Y-115539215D01*
G37*
G36*
X160736148Y-117072263D02*
G01*
X160731959Y-117076451D01*
X160727770Y-117072263D01*
X160731959Y-117068074D01*
X160736148Y-117072263D01*
G37*
G36*
X161247164Y-116192645D02*
G01*
X161242975Y-116196834D01*
X161238786Y-116192645D01*
X161242975Y-116188456D01*
X161247164Y-116192645D01*
G37*
G36*
X161255541Y-116134004D02*
G01*
X161251352Y-116138193D01*
X161247164Y-116134004D01*
X161251352Y-116129815D01*
X161255541Y-116134004D01*
G37*
G36*
X161238786Y-116268041D02*
G01*
X161234598Y-116272230D01*
X161230409Y-116268041D01*
X161234598Y-116263852D01*
X161238786Y-116268041D01*
G37*
G36*
X160744525Y-116921471D02*
G01*
X160740336Y-116925660D01*
X160736148Y-116921471D01*
X160740336Y-116917282D01*
X160744525Y-116921471D01*
G37*
G36*
X160610488Y-117122526D02*
G01*
X160606299Y-117126715D01*
X160602111Y-117122526D01*
X160606299Y-117118338D01*
X160610488Y-117122526D01*
G37*
G36*
X160627243Y-117147658D02*
G01*
X160623054Y-117151847D01*
X160618865Y-117147658D01*
X160623054Y-117143470D01*
X160627243Y-117147658D01*
G37*
G36*
X160937203Y-116929848D02*
G01*
X160933014Y-116934037D01*
X160928826Y-116929848D01*
X160933014Y-116925660D01*
X160937203Y-116929848D01*
G37*
G36*
X160518338Y-117147658D02*
G01*
X160514149Y-117151847D01*
X160509960Y-117147658D01*
X160514149Y-117143470D01*
X160518338Y-117147658D01*
G37*
G36*
X160694261Y-115271141D02*
G01*
X160690073Y-115275330D01*
X160685884Y-115271141D01*
X160690073Y-115266952D01*
X160694261Y-115271141D01*
G37*
G36*
X160451319Y-115212500D02*
G01*
X160447131Y-115216689D01*
X160442942Y-115212500D01*
X160447131Y-115208311D01*
X160451319Y-115212500D01*
G37*
G36*
X161163390Y-115757025D02*
G01*
X161159202Y-115761214D01*
X161155013Y-115757025D01*
X161159202Y-115752836D01*
X161163390Y-115757025D01*
G37*
G36*
X160845053Y-116879584D02*
G01*
X160840864Y-116883773D01*
X160836675Y-116879584D01*
X160840864Y-116875396D01*
X160845053Y-116879584D01*
G37*
G36*
X161129881Y-115924571D02*
G01*
X161125693Y-115928760D01*
X161121504Y-115924571D01*
X161125693Y-115920383D01*
X161129881Y-115924571D01*
G37*
G36*
X160392678Y-115279518D02*
G01*
X160388489Y-115283707D01*
X160384301Y-115279518D01*
X160388489Y-115275330D01*
X160392678Y-115279518D01*
G37*
G36*
X161113127Y-115748648D02*
G01*
X161108938Y-115752836D01*
X161104749Y-115748648D01*
X161108938Y-115744459D01*
X161113127Y-115748648D01*
G37*
G36*
X161196900Y-115865930D02*
G01*
X161192711Y-115870119D01*
X161188522Y-115865930D01*
X161192711Y-115861741D01*
X161196900Y-115865930D01*
G37*
G36*
X160778034Y-117021999D02*
G01*
X160773846Y-117026187D01*
X160769657Y-117021999D01*
X160773846Y-117017810D01*
X160778034Y-117021999D01*
G37*
G36*
X160903694Y-115581102D02*
G01*
X160899505Y-115585290D01*
X160895317Y-115581102D01*
X160899505Y-115576913D01*
X160903694Y-115581102D01*
G37*
G36*
X160778034Y-117047131D02*
G01*
X160773846Y-117051319D01*
X160769657Y-117047131D01*
X160773846Y-117042942D01*
X160778034Y-117047131D01*
G37*
G36*
X160568602Y-115313028D02*
G01*
X160564413Y-115317216D01*
X160560224Y-115313028D01*
X160564413Y-115308839D01*
X160568602Y-115313028D01*
G37*
G36*
X161138259Y-116443964D02*
G01*
X161134070Y-116448153D01*
X161129881Y-116443964D01*
X161134070Y-116439776D01*
X161138259Y-116443964D01*
G37*
G36*
X160886939Y-115405178D02*
G01*
X160882751Y-115409367D01*
X160878562Y-115405178D01*
X160882751Y-115400989D01*
X160886939Y-115405178D01*
G37*
G36*
X161230409Y-116393701D02*
G01*
X161226220Y-116397889D01*
X161222032Y-116393701D01*
X161226220Y-116389512D01*
X161230409Y-116393701D01*
G37*
G36*
X161138259Y-116561247D02*
G01*
X161134070Y-116565435D01*
X161129881Y-116561247D01*
X161134070Y-116557058D01*
X161138259Y-116561247D01*
G37*
G36*
X161096372Y-115731893D02*
G01*
X161092183Y-115736082D01*
X161087995Y-115731893D01*
X161092183Y-115727704D01*
X161096372Y-115731893D01*
G37*
G36*
X160811544Y-115338160D02*
G01*
X160807355Y-115342348D01*
X160803166Y-115338160D01*
X160807355Y-115333971D01*
X160811544Y-115338160D01*
G37*
G36*
X160828298Y-116862830D02*
G01*
X160824109Y-116867018D01*
X160819921Y-116862830D01*
X160824109Y-116858641D01*
X160828298Y-116862830D01*
G37*
G36*
X160694261Y-116980112D02*
G01*
X160690073Y-116984301D01*
X160685884Y-116980112D01*
X160690073Y-116975923D01*
X160694261Y-116980112D01*
G37*
G36*
X160912071Y-116753925D02*
G01*
X160907883Y-116758113D01*
X160903694Y-116753925D01*
X160907883Y-116749736D01*
X160912071Y-116753925D01*
G37*
G36*
X160719393Y-115371669D02*
G01*
X160715204Y-115375858D01*
X160711016Y-115371669D01*
X160715204Y-115367480D01*
X160719393Y-115371669D01*
G37*
G36*
X160543470Y-115354914D02*
G01*
X160539281Y-115359103D01*
X160535092Y-115354914D01*
X160539281Y-115350726D01*
X160543470Y-115354914D01*
G37*
G36*
X161004222Y-115773780D02*
G01*
X161000033Y-115777968D01*
X160995844Y-115773780D01*
X161000033Y-115769591D01*
X161004222Y-115773780D01*
G37*
G36*
X160953958Y-115715139D02*
G01*
X160949769Y-115719327D01*
X160945580Y-115715139D01*
X160949769Y-115710950D01*
X160953958Y-115715139D01*
G37*
G36*
X160426187Y-115346537D02*
G01*
X160421999Y-115350726D01*
X160417810Y-115346537D01*
X160421999Y-115342348D01*
X160426187Y-115346537D01*
G37*
G36*
X160593733Y-115329782D02*
G01*
X160589545Y-115333971D01*
X160585356Y-115329782D01*
X160589545Y-115325594D01*
X160593733Y-115329782D01*
G37*
G36*
X160845053Y-115564347D02*
G01*
X160840864Y-115568536D01*
X160836675Y-115564347D01*
X160840864Y-115560158D01*
X160845053Y-115564347D01*
G37*
G36*
X161129881Y-116368569D02*
G01*
X161125693Y-116372757D01*
X161121504Y-116368569D01*
X161125693Y-116364380D01*
X161129881Y-116368569D01*
G37*
G36*
X161071240Y-116678529D02*
G01*
X161067051Y-116682718D01*
X161062863Y-116678529D01*
X161067051Y-116674340D01*
X161071240Y-116678529D01*
G37*
G36*
X160610488Y-115405178D02*
G01*
X160606299Y-115409367D01*
X160602111Y-115405178D01*
X160606299Y-115400989D01*
X160610488Y-115405178D01*
G37*
G36*
X161171768Y-116175890D02*
G01*
X161167579Y-116180079D01*
X161163390Y-116175890D01*
X161167579Y-116171702D01*
X161171768Y-116175890D01*
G37*
G36*
X161062863Y-115589479D02*
G01*
X161058674Y-115593668D01*
X161054485Y-115589479D01*
X161058674Y-115585290D01*
X161062863Y-115589479D01*
G37*
G36*
X161020976Y-115807289D02*
G01*
X161016788Y-115811478D01*
X161012599Y-115807289D01*
X161016788Y-115803100D01*
X161020976Y-115807289D01*
G37*
G36*
X160694261Y-117089017D02*
G01*
X160690073Y-117093206D01*
X160685884Y-117089017D01*
X160690073Y-117084828D01*
X160694261Y-117089017D01*
G37*
G36*
X161104749Y-116150759D02*
G01*
X161100561Y-116154947D01*
X161096372Y-116150759D01*
X161100561Y-116146570D01*
X161104749Y-116150759D01*
G37*
G36*
X160987467Y-115572724D02*
G01*
X160983278Y-115576913D01*
X160979090Y-115572724D01*
X160983278Y-115568536D01*
X160987467Y-115572724D01*
G37*
G36*
X160727770Y-117047131D02*
G01*
X160723582Y-117051319D01*
X160719393Y-117047131D01*
X160723582Y-117042942D01*
X160727770Y-117047131D01*
G37*
G36*
X161180145Y-116293173D02*
G01*
X161175956Y-116297361D01*
X161171768Y-116293173D01*
X161175956Y-116288984D01*
X161180145Y-116293173D01*
G37*
G36*
X161096372Y-116427210D02*
G01*
X161092183Y-116431398D01*
X161087995Y-116427210D01*
X161092183Y-116423021D01*
X161096372Y-116427210D01*
G37*
G36*
X161113127Y-116510983D02*
G01*
X161108938Y-116515171D01*
X161104749Y-116510983D01*
X161108938Y-116506794D01*
X161113127Y-116510983D01*
G37*
G36*
X161113127Y-116661774D02*
G01*
X161108938Y-116665963D01*
X161104749Y-116661774D01*
X161108938Y-116657586D01*
X161113127Y-116661774D01*
G37*
G36*
X160694261Y-115388423D02*
G01*
X160690073Y-115392612D01*
X160685884Y-115388423D01*
X160690073Y-115384235D01*
X160694261Y-115388423D01*
G37*
G36*
X160426187Y-115279518D02*
G01*
X160421999Y-115283707D01*
X160417810Y-115279518D01*
X160421999Y-115275330D01*
X160426187Y-115279518D01*
G37*
G36*
X161121504Y-116117249D02*
G01*
X161117315Y-116121438D01*
X161113127Y-116117249D01*
X161117315Y-116113061D01*
X161121504Y-116117249D01*
G37*
G36*
X160719393Y-115321405D02*
G01*
X160715204Y-115325594D01*
X160711016Y-115321405D01*
X160715204Y-115317216D01*
X160719393Y-115321405D01*
G37*
G36*
X160711016Y-115480574D02*
G01*
X160706827Y-115484763D01*
X160702639Y-115480574D01*
X160706827Y-115476385D01*
X160711016Y-115480574D01*
G37*
G36*
X161004222Y-116686906D02*
G01*
X161000033Y-116691095D01*
X160995844Y-116686906D01*
X161000033Y-116682718D01*
X161004222Y-116686906D01*
G37*
G36*
X160727770Y-117021999D02*
G01*
X160723582Y-117026187D01*
X160719393Y-117021999D01*
X160723582Y-117017810D01*
X160727770Y-117021999D01*
G37*
G36*
X161213654Y-116117249D02*
G01*
X161209466Y-116121438D01*
X161205277Y-116117249D01*
X161209466Y-116113061D01*
X161213654Y-116117249D01*
G37*
G36*
X160736148Y-115304650D02*
G01*
X160731959Y-115308839D01*
X160727770Y-115304650D01*
X160731959Y-115300462D01*
X160736148Y-115304650D01*
G37*
G36*
X160593733Y-115421933D02*
G01*
X160589545Y-115426121D01*
X160585356Y-115421933D01*
X160589545Y-115417744D01*
X160593733Y-115421933D01*
G37*
G36*
X160677507Y-115287896D02*
G01*
X160673318Y-115292084D01*
X160669129Y-115287896D01*
X160673318Y-115283707D01*
X160677507Y-115287896D01*
G37*
G36*
X160895317Y-115463819D02*
G01*
X160891128Y-115468008D01*
X160886939Y-115463819D01*
X160891128Y-115459631D01*
X160895317Y-115463819D01*
G37*
G36*
X161071240Y-115941326D02*
G01*
X161067051Y-115945514D01*
X161062863Y-115941326D01*
X161067051Y-115937137D01*
X161071240Y-115941326D01*
G37*
G36*
X160669129Y-115371669D02*
G01*
X160664941Y-115375858D01*
X160660752Y-115371669D01*
X160664941Y-115367480D01*
X160669129Y-115371669D01*
G37*
G36*
X161138259Y-115832421D02*
G01*
X161134070Y-115836609D01*
X161129881Y-115832421D01*
X161134070Y-115828232D01*
X161138259Y-115832421D01*
G37*
G36*
X160836675Y-115405178D02*
G01*
X160832487Y-115409367D01*
X160828298Y-115405178D01*
X160832487Y-115400989D01*
X160836675Y-115405178D01*
G37*
G36*
X160350792Y-115246009D02*
G01*
X160346603Y-115250198D01*
X160342414Y-115246009D01*
X160346603Y-115241821D01*
X160350792Y-115246009D01*
G37*
G36*
X160811544Y-115564347D02*
G01*
X160807355Y-115568536D01*
X160803166Y-115564347D01*
X160807355Y-115560158D01*
X160811544Y-115564347D01*
G37*
G36*
X160962335Y-115757025D02*
G01*
X160958146Y-115761214D01*
X160953958Y-115757025D01*
X160958146Y-115752836D01*
X160962335Y-115757025D01*
G37*
G36*
X160861807Y-115589479D02*
G01*
X160857619Y-115593668D01*
X160853430Y-115589479D01*
X160857619Y-115585290D01*
X160861807Y-115589479D01*
G37*
G36*
X160828298Y-116896339D02*
G01*
X160824109Y-116900528D01*
X160819921Y-116896339D01*
X160824109Y-116892150D01*
X160828298Y-116896339D01*
G37*
G36*
X161071240Y-116502606D02*
G01*
X161067051Y-116506794D01*
X161062863Y-116502606D01*
X161067051Y-116498417D01*
X161071240Y-116502606D01*
G37*
G36*
X160225132Y-115329782D02*
G01*
X160220943Y-115333971D01*
X160216755Y-115329782D01*
X160220943Y-115325594D01*
X160225132Y-115329782D01*
G37*
G36*
X161129881Y-116025099D02*
G01*
X161125693Y-116029288D01*
X161121504Y-116025099D01*
X161125693Y-116020910D01*
X161129881Y-116025099D01*
G37*
G36*
X161071240Y-116025099D02*
G01*
X161067051Y-116029288D01*
X161062863Y-116025099D01*
X161067051Y-116020910D01*
X161071240Y-116025099D01*
G37*
G36*
X161079617Y-115999967D02*
G01*
X161075429Y-116004156D01*
X161071240Y-115999967D01*
X161075429Y-115995778D01*
X161079617Y-115999967D01*
G37*
G36*
X161004222Y-115530838D02*
G01*
X161000033Y-115535026D01*
X160995844Y-115530838D01*
X161000033Y-115526649D01*
X161004222Y-115530838D01*
G37*
G36*
X161121504Y-115723516D02*
G01*
X161117315Y-115727704D01*
X161113127Y-115723516D01*
X161117315Y-115719327D01*
X161121504Y-115723516D01*
G37*
G36*
X161155013Y-115849175D02*
G01*
X161150825Y-115853364D01*
X161146636Y-115849175D01*
X161150825Y-115844987D01*
X161155013Y-115849175D01*
G37*
G36*
X160367546Y-117130904D02*
G01*
X160363358Y-117135092D01*
X160359169Y-117130904D01*
X160363358Y-117126715D01*
X160367546Y-117130904D01*
G37*
G36*
X160300528Y-117206299D02*
G01*
X160296339Y-117210488D01*
X160292150Y-117206299D01*
X160296339Y-117202111D01*
X160300528Y-117206299D01*
G37*
G36*
X161255541Y-116335059D02*
G01*
X161251352Y-116339248D01*
X161247164Y-116335059D01*
X161251352Y-116330871D01*
X161255541Y-116335059D01*
G37*
G36*
X161180145Y-116544492D02*
G01*
X161175956Y-116548681D01*
X161171768Y-116544492D01*
X161175956Y-116540303D01*
X161180145Y-116544492D01*
G37*
G36*
X161155013Y-116150759D02*
G01*
X161150825Y-116154947D01*
X161146636Y-116150759D01*
X161150825Y-116146570D01*
X161155013Y-116150759D01*
G37*
G36*
X161029354Y-116804189D02*
G01*
X161025165Y-116808377D01*
X161020976Y-116804189D01*
X161025165Y-116800000D01*
X161029354Y-116804189D01*
G37*
G36*
X160828298Y-117038753D02*
G01*
X160824109Y-117042942D01*
X160819921Y-117038753D01*
X160824109Y-117034565D01*
X160828298Y-117038753D01*
G37*
G36*
X160359169Y-115204123D02*
G01*
X160354980Y-115208311D01*
X160350792Y-115204123D01*
X160354980Y-115199934D01*
X160359169Y-115204123D01*
G37*
G36*
X161205277Y-116368569D02*
G01*
X161201088Y-116372757D01*
X161196900Y-116368569D01*
X161201088Y-116364380D01*
X161205277Y-116368569D01*
G37*
G36*
X160468074Y-115195745D02*
G01*
X160463885Y-115199934D01*
X160459697Y-115195745D01*
X160463885Y-115191557D01*
X160468074Y-115195745D01*
G37*
G36*
X160568602Y-117181168D02*
G01*
X160564413Y-117185356D01*
X160560224Y-117181168D01*
X160564413Y-117176979D01*
X160568602Y-117181168D01*
G37*
G36*
X161163390Y-116603133D02*
G01*
X161159202Y-116607322D01*
X161155013Y-116603133D01*
X161159202Y-116598945D01*
X161163390Y-116603133D01*
G37*
G36*
X161104749Y-115966458D02*
G01*
X161100561Y-115970646D01*
X161096372Y-115966458D01*
X161100561Y-115962269D01*
X161104749Y-115966458D01*
G37*
G36*
X161079617Y-116586379D02*
G01*
X161075429Y-116590567D01*
X161071240Y-116586379D01*
X161075429Y-116582190D01*
X161079617Y-116586379D01*
G37*
G36*
X160979090Y-116804189D02*
G01*
X160974901Y-116808377D01*
X160970712Y-116804189D01*
X160974901Y-116800000D01*
X160979090Y-116804189D01*
G37*
G36*
X161263918Y-116175890D02*
G01*
X161259730Y-116180079D01*
X161255541Y-116175890D01*
X161259730Y-116171702D01*
X161263918Y-116175890D01*
G37*
G36*
X160426187Y-117080640D02*
G01*
X160421999Y-117084828D01*
X160417810Y-117080640D01*
X160421999Y-117076451D01*
X160426187Y-117080640D01*
G37*
G36*
X160819921Y-115488951D02*
G01*
X160815732Y-115493140D01*
X160811544Y-115488951D01*
X160815732Y-115484763D01*
X160819921Y-115488951D01*
G37*
G36*
X160962335Y-116854452D02*
G01*
X160958146Y-116858641D01*
X160953958Y-116854452D01*
X160958146Y-116850264D01*
X160962335Y-116854452D01*
G37*
G36*
X160752902Y-117055508D02*
G01*
X160748714Y-117059697D01*
X160744525Y-117055508D01*
X160748714Y-117051319D01*
X160752902Y-117055508D01*
G37*
G36*
X160987467Y-115748648D02*
G01*
X160983278Y-115752836D01*
X160979090Y-115748648D01*
X160983278Y-115744459D01*
X160987467Y-115748648D01*
G37*
G36*
X160912071Y-116829321D02*
G01*
X160907883Y-116833509D01*
X160903694Y-116829321D01*
X160907883Y-116825132D01*
X160912071Y-116829321D01*
G37*
G36*
X161046108Y-115740270D02*
G01*
X161041920Y-115744459D01*
X161037731Y-115740270D01*
X161041920Y-115736082D01*
X161046108Y-115740270D01*
G37*
G36*
X160476451Y-115287896D02*
G01*
X160472263Y-115292084D01*
X160468074Y-115287896D01*
X160472263Y-115283707D01*
X160476451Y-115287896D01*
G37*
G36*
X160920449Y-115463819D02*
G01*
X160916260Y-115468008D01*
X160912071Y-115463819D01*
X160916260Y-115459631D01*
X160920449Y-115463819D01*
G37*
G36*
X160501583Y-115287896D02*
G01*
X160497394Y-115292084D01*
X160493206Y-115287896D01*
X160497394Y-115283707D01*
X160501583Y-115287896D01*
G37*
G36*
X160861807Y-115421933D02*
G01*
X160857619Y-115426121D01*
X160853430Y-115421933D01*
X160857619Y-115417744D01*
X160861807Y-115421933D01*
G37*
G36*
X160643997Y-115438687D02*
G01*
X160639809Y-115442876D01*
X160635620Y-115438687D01*
X160639809Y-115434499D01*
X160643997Y-115438687D01*
G37*
G36*
X160727770Y-115463819D02*
G01*
X160723582Y-115468008D01*
X160719393Y-115463819D01*
X160723582Y-115459631D01*
X160727770Y-115463819D01*
G37*
G36*
X161020976Y-116561247D02*
G01*
X161016788Y-116565435D01*
X161012599Y-116561247D01*
X161016788Y-116557058D01*
X161020976Y-116561247D01*
G37*
G36*
X160702639Y-115455442D02*
G01*
X160698450Y-115459631D01*
X160694261Y-115455442D01*
X160698450Y-115451253D01*
X160702639Y-115455442D01*
G37*
G36*
X161046108Y-115815666D02*
G01*
X161041920Y-115819855D01*
X161037731Y-115815666D01*
X161041920Y-115811478D01*
X161046108Y-115815666D01*
G37*
G36*
X161054485Y-116661774D02*
G01*
X161050297Y-116665963D01*
X161046108Y-116661774D01*
X161050297Y-116657586D01*
X161054485Y-116661774D01*
G37*
G36*
X160870185Y-115614611D02*
G01*
X160865996Y-115618799D01*
X160861807Y-115614611D01*
X160865996Y-115610422D01*
X160870185Y-115614611D01*
G37*
G36*
X160543470Y-115212500D02*
G01*
X160539281Y-115216689D01*
X160535092Y-115212500D01*
X160539281Y-115208311D01*
X160543470Y-115212500D01*
G37*
G36*
X160769657Y-115480574D02*
G01*
X160765468Y-115484763D01*
X160761280Y-115480574D01*
X160765468Y-115476385D01*
X160769657Y-115480574D01*
G37*
G36*
X161037731Y-116645020D02*
G01*
X161033542Y-116649208D01*
X161029354Y-116645020D01*
X161033542Y-116640831D01*
X161037731Y-116645020D01*
G37*
G36*
X160241887Y-115170613D02*
G01*
X160237698Y-115174802D01*
X160233509Y-115170613D01*
X160237698Y-115166425D01*
X160241887Y-115170613D01*
G37*
G36*
X160702639Y-115338160D02*
G01*
X160698450Y-115342348D01*
X160694261Y-115338160D01*
X160698450Y-115333971D01*
X160702639Y-115338160D01*
G37*
G36*
X161079617Y-115664875D02*
G01*
X161075429Y-115669063D01*
X161071240Y-115664875D01*
X161075429Y-115660686D01*
X161079617Y-115664875D01*
G37*
G36*
X160853430Y-115522460D02*
G01*
X160849241Y-115526649D01*
X160845053Y-115522460D01*
X160849241Y-115518272D01*
X160853430Y-115522460D01*
G37*
G36*
X160836675Y-115539215D02*
G01*
X160832487Y-115543404D01*
X160828298Y-115539215D01*
X160832487Y-115535026D01*
X160836675Y-115539215D01*
G37*
G36*
X161087995Y-116376946D02*
G01*
X161083806Y-116381135D01*
X161079617Y-116376946D01*
X161083806Y-116372757D01*
X161087995Y-116376946D01*
G37*
G36*
X160903694Y-115421933D02*
G01*
X160899505Y-115426121D01*
X160895317Y-115421933D01*
X160899505Y-115417744D01*
X160903694Y-115421933D01*
G37*
G36*
X160979090Y-116904716D02*
G01*
X160974901Y-116908905D01*
X160970712Y-116904716D01*
X160974901Y-116900528D01*
X160979090Y-116904716D01*
G37*
G36*
X161263918Y-116209400D02*
G01*
X161259730Y-116213588D01*
X161255541Y-116209400D01*
X161259730Y-116205211D01*
X161263918Y-116209400D01*
G37*
G36*
X161004222Y-115555970D02*
G01*
X161000033Y-115560158D01*
X160995844Y-115555970D01*
X161000033Y-115551781D01*
X161004222Y-115555970D01*
G37*
G36*
X161046108Y-116619888D02*
G01*
X161041920Y-116624076D01*
X161037731Y-116619888D01*
X161041920Y-116615699D01*
X161046108Y-116619888D01*
G37*
G36*
X161062863Y-115782157D02*
G01*
X161058674Y-115786346D01*
X161054485Y-115782157D01*
X161058674Y-115777968D01*
X161062863Y-115782157D01*
G37*
G36*
X160643997Y-116988489D02*
G01*
X160639809Y-116992678D01*
X160635620Y-116988489D01*
X160639809Y-116984301D01*
X160643997Y-116988489D01*
G37*
G36*
X161087995Y-115874307D02*
G01*
X161083806Y-115878496D01*
X161079617Y-115874307D01*
X161083806Y-115870119D01*
X161087995Y-115874307D01*
G37*
G36*
X161155013Y-115924571D02*
G01*
X161150825Y-115928760D01*
X161146636Y-115924571D01*
X161150825Y-115920383D01*
X161155013Y-115924571D01*
G37*
G36*
X161255541Y-116251286D02*
G01*
X161251352Y-116255475D01*
X161247164Y-116251286D01*
X161251352Y-116247098D01*
X161255541Y-116251286D01*
G37*
G36*
X160618865Y-117030376D02*
G01*
X160614677Y-117034565D01*
X160610488Y-117030376D01*
X160614677Y-117026187D01*
X160618865Y-117030376D01*
G37*
G36*
X161163390Y-116309927D02*
G01*
X161159202Y-116314116D01*
X161155013Y-116309927D01*
X161159202Y-116305739D01*
X161163390Y-116309927D01*
G37*
G36*
X161121504Y-116226154D02*
G01*
X161117315Y-116230343D01*
X161113127Y-116226154D01*
X161117315Y-116221966D01*
X161121504Y-116226154D01*
G37*
G36*
X160702639Y-115296273D02*
G01*
X160698450Y-115300462D01*
X160694261Y-115296273D01*
X160698450Y-115292084D01*
X160702639Y-115296273D01*
G37*
G36*
X161054485Y-116753925D02*
G01*
X161050297Y-116758113D01*
X161046108Y-116753925D01*
X161050297Y-116749736D01*
X161054485Y-116753925D01*
G37*
G36*
X161180145Y-116033476D02*
G01*
X161175956Y-116037665D01*
X161171768Y-116033476D01*
X161175956Y-116029288D01*
X161180145Y-116033476D01*
G37*
G36*
X160434565Y-115246009D02*
G01*
X160430376Y-115250198D01*
X160426187Y-115246009D01*
X160430376Y-115241821D01*
X160434565Y-115246009D01*
G37*
G36*
X160912071Y-116938226D02*
G01*
X160907883Y-116942414D01*
X160903694Y-116938226D01*
X160907883Y-116934037D01*
X160912071Y-116938226D01*
G37*
G36*
X160501583Y-115187368D02*
G01*
X160497394Y-115191557D01*
X160493206Y-115187368D01*
X160497394Y-115183179D01*
X160501583Y-115187368D01*
G37*
G36*
X161037731Y-116678529D02*
G01*
X161033542Y-116682718D01*
X161029354Y-116678529D01*
X161033542Y-116674340D01*
X161037731Y-116678529D01*
G37*
G36*
X160660752Y-115329782D02*
G01*
X160656563Y-115333971D01*
X160652375Y-115329782D01*
X160656563Y-115325594D01*
X160660752Y-115329782D01*
G37*
G36*
X160669129Y-117130904D02*
G01*
X160664941Y-117135092D01*
X160660752Y-117130904D01*
X160664941Y-117126715D01*
X160669129Y-117130904D01*
G37*
G36*
X160845053Y-115606233D02*
G01*
X160840864Y-115610422D01*
X160836675Y-115606233D01*
X160840864Y-115602045D01*
X160845053Y-115606233D01*
G37*
G36*
X160803166Y-115472197D02*
G01*
X160798978Y-115476385D01*
X160794789Y-115472197D01*
X160798978Y-115468008D01*
X160803166Y-115472197D01*
G37*
G36*
X161188522Y-115891062D02*
G01*
X161184334Y-115895251D01*
X161180145Y-115891062D01*
X161184334Y-115886873D01*
X161188522Y-115891062D01*
G37*
G36*
X160501583Y-115262764D02*
G01*
X160497394Y-115266952D01*
X160493206Y-115262764D01*
X160497394Y-115258575D01*
X160501583Y-115262764D01*
G37*
G36*
X161087995Y-116134004D02*
G01*
X161083806Y-116138193D01*
X161079617Y-116134004D01*
X161083806Y-116129815D01*
X161087995Y-116134004D01*
G37*
G36*
X160267018Y-115204123D02*
G01*
X160262830Y-115208311D01*
X160258641Y-115204123D01*
X160262830Y-115199934D01*
X160267018Y-115204123D01*
G37*
G36*
X160325660Y-117206299D02*
G01*
X160321471Y-117210488D01*
X160317282Y-117206299D01*
X160321471Y-117202111D01*
X160325660Y-117206299D01*
G37*
G36*
X160585356Y-117021999D02*
G01*
X160581168Y-117026187D01*
X160576979Y-117021999D01*
X160581168Y-117017810D01*
X160585356Y-117021999D01*
G37*
G36*
X161196900Y-115949703D02*
G01*
X161192711Y-115953892D01*
X161188522Y-115949703D01*
X161192711Y-115945514D01*
X161196900Y-115949703D01*
G37*
G36*
X160937203Y-116879584D02*
G01*
X160933014Y-116883773D01*
X160928826Y-116879584D01*
X160933014Y-116875396D01*
X160937203Y-116879584D01*
G37*
G36*
X160937203Y-116770679D02*
G01*
X160933014Y-116774868D01*
X160928826Y-116770679D01*
X160933014Y-116766491D01*
X160937203Y-116770679D01*
G37*
G36*
X161079617Y-116092117D02*
G01*
X161075429Y-116096306D01*
X161071240Y-116092117D01*
X161075429Y-116087929D01*
X161079617Y-116092117D01*
G37*
G36*
X161230409Y-115974835D02*
G01*
X161226220Y-115979024D01*
X161222032Y-115974835D01*
X161226220Y-115970646D01*
X161230409Y-115974835D01*
G37*
G36*
X161121504Y-116276418D02*
G01*
X161117315Y-116280607D01*
X161113127Y-116276418D01*
X161117315Y-116272230D01*
X161121504Y-116276418D01*
G37*
G36*
X161205277Y-116284795D02*
G01*
X161201088Y-116288984D01*
X161196900Y-116284795D01*
X161201088Y-116280607D01*
X161205277Y-116284795D01*
G37*
G36*
X160719393Y-116963358D02*
G01*
X160715204Y-116967546D01*
X160711016Y-116963358D01*
X160715204Y-116959169D01*
X160719393Y-116963358D01*
G37*
G36*
X160275396Y-117156036D02*
G01*
X160271207Y-117160224D01*
X160267018Y-117156036D01*
X160271207Y-117151847D01*
X160275396Y-117156036D01*
G37*
G36*
X160727770Y-115505706D02*
G01*
X160723582Y-115509894D01*
X160719393Y-115505706D01*
X160723582Y-115501517D01*
X160727770Y-115505706D01*
G37*
G36*
X160995844Y-116712038D02*
G01*
X160991656Y-116716227D01*
X160987467Y-116712038D01*
X160991656Y-116707850D01*
X160995844Y-116712038D01*
G37*
G36*
X160970712Y-115488951D02*
G01*
X160966524Y-115493140D01*
X160962335Y-115488951D01*
X160966524Y-115484763D01*
X160970712Y-115488951D01*
G37*
G36*
X161020976Y-115832421D02*
G01*
X161016788Y-115836609D01*
X161012599Y-115832421D01*
X161016788Y-115828232D01*
X161020976Y-115832421D01*
G37*
G36*
X160987467Y-116636642D02*
G01*
X160983278Y-116640831D01*
X160979090Y-116636642D01*
X160983278Y-116632454D01*
X160987467Y-116636642D01*
G37*
G36*
X161129881Y-116167513D02*
G01*
X161125693Y-116171702D01*
X161121504Y-116167513D01*
X161125693Y-116163325D01*
X161129881Y-116167513D01*
G37*
G36*
X160384301Y-115329782D02*
G01*
X160380112Y-115333971D01*
X160375923Y-115329782D01*
X160380112Y-115325594D01*
X160384301Y-115329782D01*
G37*
G36*
X160384301Y-117164413D02*
G01*
X160380112Y-117168602D01*
X160375923Y-117164413D01*
X160380112Y-117160224D01*
X160384301Y-117164413D01*
G37*
G36*
X161104749Y-115991590D02*
G01*
X161100561Y-115995778D01*
X161096372Y-115991590D01*
X161100561Y-115987401D01*
X161104749Y-115991590D01*
G37*
G36*
X161171768Y-116251286D02*
G01*
X161167579Y-116255475D01*
X161163390Y-116251286D01*
X161167579Y-116247098D01*
X161171768Y-116251286D01*
G37*
G36*
X161222032Y-116217777D02*
G01*
X161217843Y-116221966D01*
X161213654Y-116217777D01*
X161217843Y-116213588D01*
X161222032Y-116217777D01*
G37*
G36*
X160568602Y-115346537D02*
G01*
X160564413Y-115350726D01*
X160560224Y-115346537D01*
X160564413Y-115342348D01*
X160568602Y-115346537D01*
G37*
G36*
X161096372Y-116209400D02*
G01*
X161092183Y-116213588D01*
X161087995Y-116209400D01*
X161092183Y-116205211D01*
X161096372Y-116209400D01*
G37*
G36*
X160585356Y-117164413D02*
G01*
X160581168Y-117168602D01*
X160576979Y-117164413D01*
X160581168Y-117160224D01*
X160585356Y-117164413D01*
G37*
G36*
X160392678Y-115178991D02*
G01*
X160388489Y-115183179D01*
X160384301Y-115178991D01*
X160388489Y-115174802D01*
X160392678Y-115178991D01*
G37*
G36*
X160484828Y-115212500D02*
G01*
X160480640Y-115216689D01*
X160476451Y-115212500D01*
X160480640Y-115208311D01*
X160484828Y-115212500D01*
G37*
G36*
X161180145Y-115932949D02*
G01*
X161175956Y-115937137D01*
X161171768Y-115932949D01*
X161175956Y-115928760D01*
X161180145Y-115932949D01*
G37*
G36*
X160375923Y-117231431D02*
G01*
X160371735Y-117235620D01*
X160367546Y-117231431D01*
X160371735Y-117227243D01*
X160375923Y-117231431D01*
G37*
G36*
X160920449Y-115673252D02*
G01*
X160916260Y-115677441D01*
X160912071Y-115673252D01*
X160916260Y-115669063D01*
X160920449Y-115673252D01*
G37*
G36*
X160225132Y-115145482D02*
G01*
X160220943Y-115149670D01*
X160216755Y-115145482D01*
X160220943Y-115141293D01*
X160225132Y-115145482D01*
G37*
G36*
X161171768Y-115907817D02*
G01*
X161167579Y-115912005D01*
X161163390Y-115907817D01*
X161167579Y-115903628D01*
X161171768Y-115907817D01*
G37*
G36*
X160853430Y-116854452D02*
G01*
X160849241Y-116858641D01*
X160845053Y-116854452D01*
X160849241Y-116850264D01*
X160853430Y-116854452D01*
G37*
G36*
X160526715Y-115338160D02*
G01*
X160522526Y-115342348D01*
X160518338Y-115338160D01*
X160522526Y-115333971D01*
X160526715Y-115338160D01*
G37*
G36*
X161029354Y-115891062D02*
G01*
X161025165Y-115895251D01*
X161020976Y-115891062D01*
X161025165Y-115886873D01*
X161029354Y-115891062D01*
G37*
G36*
X160803166Y-115514083D02*
G01*
X160798978Y-115518272D01*
X160794789Y-115514083D01*
X160798978Y-115509894D01*
X160803166Y-115514083D01*
G37*
G36*
X160501583Y-117139281D02*
G01*
X160497394Y-117143470D01*
X160493206Y-117139281D01*
X160497394Y-117135092D01*
X160501583Y-117139281D01*
G37*
G36*
X160350792Y-117214677D02*
G01*
X160346603Y-117218865D01*
X160342414Y-117214677D01*
X160346603Y-117210488D01*
X160350792Y-117214677D01*
G37*
G36*
X161020976Y-116728793D02*
G01*
X161016788Y-116732982D01*
X161012599Y-116728793D01*
X161016788Y-116724604D01*
X161020976Y-116728793D01*
G37*
G36*
X161146636Y-116234532D02*
G01*
X161142447Y-116238720D01*
X161138259Y-116234532D01*
X161142447Y-116230343D01*
X161146636Y-116234532D01*
G37*
G36*
X160962335Y-116929848D02*
G01*
X160958146Y-116934037D01*
X160953958Y-116929848D01*
X160958146Y-116925660D01*
X160962335Y-116929848D01*
G37*
G36*
X161230409Y-116418832D02*
G01*
X161226220Y-116423021D01*
X161222032Y-116418832D01*
X161226220Y-116414644D01*
X161230409Y-116418832D01*
G37*
G36*
X160677507Y-115346537D02*
G01*
X160673318Y-115350726D01*
X160669129Y-115346537D01*
X160673318Y-115342348D01*
X160677507Y-115346537D01*
G37*
G36*
X161087995Y-115849175D02*
G01*
X161083806Y-115853364D01*
X161079617Y-115849175D01*
X161083806Y-115844987D01*
X161087995Y-115849175D01*
G37*
G36*
X161079617Y-116653397D02*
G01*
X161075429Y-116657586D01*
X161071240Y-116653397D01*
X161075429Y-116649208D01*
X161079617Y-116653397D01*
G37*
G36*
X161196900Y-115999967D02*
G01*
X161192711Y-116004156D01*
X161188522Y-115999967D01*
X161192711Y-115995778D01*
X161196900Y-115999967D01*
G37*
G36*
X163550923Y-113449077D02*
G01*
X163550923Y-120150923D01*
X156849077Y-120150923D01*
X156849077Y-118860818D01*
X158692084Y-118860818D01*
X158759103Y-118860818D01*
X158759103Y-118567612D01*
X158951781Y-118567612D01*
X158951781Y-118860818D01*
X159027376Y-118860818D01*
X159024224Y-118400482D01*
X159186346Y-118400482D01*
X159186541Y-118465644D01*
X159187379Y-118516357D01*
X159189239Y-118554924D01*
X159192499Y-118583649D01*
X159197538Y-118604835D01*
X159204736Y-118620785D01*
X159214471Y-118633802D01*
X159226695Y-118645805D01*
X159245428Y-118657816D01*
X159271532Y-118669103D01*
X159279910Y-118671826D01*
X159316194Y-118682523D01*
X159318572Y-118771670D01*
X159320949Y-118860818D01*
X159387401Y-118860818D01*
X160166491Y-118860818D01*
X160233509Y-118860818D01*
X160233509Y-118604894D01*
X160233642Y-118529578D01*
X160234092Y-118469232D01*
X160234938Y-118422074D01*
X160236260Y-118386322D01*
X160238136Y-118360193D01*
X160240644Y-118341904D01*
X160243863Y-118329673D01*
X160245872Y-118325063D01*
X160266639Y-118298691D01*
X160295543Y-118279343D01*
X160328237Y-118268204D01*
X160360374Y-118266462D01*
X160387609Y-118275302D01*
X160397663Y-118283652D01*
X160402013Y-118289359D01*
X160405523Y-118297052D01*
X160408304Y-118308507D01*
X160410465Y-118325501D01*
X160412115Y-118349814D01*
X160413366Y-118383221D01*
X160414326Y-118427500D01*
X160415106Y-118484430D01*
X160415815Y-118555786D01*
X160416037Y-118581046D01*
X160418452Y-118860818D01*
X160484152Y-118860818D01*
X160486585Y-118596321D01*
X160489017Y-118331825D01*
X160524296Y-118298927D01*
X160547569Y-118279221D01*
X160566907Y-118269321D01*
X160589071Y-118266138D01*
X160596299Y-118266029D01*
X160626252Y-118269397D01*
X160646144Y-118280734D01*
X160648982Y-118283652D01*
X160653332Y-118289359D01*
X160656842Y-118297052D01*
X160659623Y-118308507D01*
X160661784Y-118325501D01*
X160663435Y-118349814D01*
X160664685Y-118383221D01*
X160665646Y-118427500D01*
X160666425Y-118484430D01*
X160667134Y-118555786D01*
X160667356Y-118581046D01*
X160669771Y-118860818D01*
X160736148Y-118860818D01*
X160736139Y-118656432D01*
X160913201Y-118656432D01*
X160913467Y-118700316D01*
X160914294Y-118733453D01*
X160915775Y-118757845D01*
X160918001Y-118775494D01*
X160921065Y-118788403D01*
X160925059Y-118798572D01*
X160926552Y-118801581D01*
X160954590Y-118838337D01*
X160993683Y-118863074D01*
X161013628Y-118869673D01*
X161048274Y-118874441D01*
X161088809Y-118874144D01*
X161128764Y-118869356D01*
X161161674Y-118860653D01*
X161172602Y-118855530D01*
X161204402Y-118831461D01*
X161224475Y-118801589D01*
X161235016Y-118761970D01*
X161237277Y-118739257D01*
X161240738Y-118684894D01*
X161206253Y-118684894D01*
X161184393Y-118685705D01*
X161174521Y-118690862D01*
X161171872Y-118704455D01*
X161171768Y-118714484D01*
X161166668Y-118757524D01*
X161150868Y-118787856D01*
X161123616Y-118806255D01*
X161084161Y-118813493D01*
X161075429Y-118813671D01*
X161041709Y-118811406D01*
X161016660Y-118803267D01*
X160999084Y-118787240D01*
X160987784Y-118761311D01*
X160981560Y-118723465D01*
X160979216Y-118671688D01*
X160979120Y-118656432D01*
X161407462Y-118656432D01*
X161407728Y-118700316D01*
X161408555Y-118733453D01*
X161410036Y-118757845D01*
X161412262Y-118775494D01*
X161415326Y-118788403D01*
X161419320Y-118798572D01*
X161420813Y-118801581D01*
X161448851Y-118838337D01*
X161487944Y-118863074D01*
X161507889Y-118869673D01*
X161542535Y-118874441D01*
X161583070Y-118874144D01*
X161623026Y-118869356D01*
X161655935Y-118860653D01*
X161666863Y-118855530D01*
X161698663Y-118831461D01*
X161718737Y-118801589D01*
X161729278Y-118761970D01*
X161731538Y-118739257D01*
X161734999Y-118684894D01*
X161700514Y-118684894D01*
X161678654Y-118685705D01*
X161668782Y-118690862D01*
X161666134Y-118704455D01*
X161666029Y-118714484D01*
X161661673Y-118749184D01*
X161650104Y-118779562D01*
X161633573Y-118800800D01*
X161622813Y-118806965D01*
X161596082Y-118811804D01*
X161563263Y-118812641D01*
X161531774Y-118809732D01*
X161509031Y-118803330D01*
X161508450Y-118803028D01*
X161497960Y-118795349D01*
X161489684Y-118783614D01*
X161483410Y-118766039D01*
X161478929Y-118740842D01*
X161476029Y-118706240D01*
X161474499Y-118660451D01*
X161474129Y-118601693D01*
X161474707Y-118528183D01*
X161474825Y-118518704D01*
X161477540Y-118306439D01*
X161501044Y-118286234D01*
X161530974Y-118270365D01*
X161567677Y-118264692D01*
X161604691Y-118269225D01*
X161635557Y-118283970D01*
X161638127Y-118286068D01*
X161650267Y-118298138D01*
X161657658Y-118311704D01*
X161661816Y-118331554D01*
X161664255Y-118362477D01*
X161664642Y-118369841D01*
X161667860Y-118433575D01*
X161733047Y-118433575D01*
X161733047Y-118368520D01*
X161729955Y-118317816D01*
X161719685Y-118279661D01*
X161700752Y-118250844D01*
X161671671Y-118228156D01*
X161666741Y-118225306D01*
X161642417Y-118213978D01*
X161616447Y-118207860D01*
X161582334Y-118205633D01*
X161569351Y-118205526D01*
X161514098Y-118210043D01*
X161471048Y-118224134D01*
X161438123Y-118248612D01*
X161427751Y-118260918D01*
X161422768Y-118268366D01*
X161418820Y-118277170D01*
X161415764Y-118289296D01*
X161413456Y-118306711D01*
X161411753Y-118331380D01*
X161410511Y-118365269D01*
X161409588Y-118410346D01*
X161408839Y-118468576D01*
X161408247Y-118528417D01*
X161407666Y-118599800D01*
X161407462Y-118656432D01*
X160979120Y-118656432D01*
X160979090Y-118651654D01*
X160979090Y-118559235D01*
X161238786Y-118559235D01*
X161238786Y-118431350D01*
X161238111Y-118372414D01*
X161235514Y-118327529D01*
X161230135Y-118294028D01*
X161221117Y-118269241D01*
X161207599Y-118250500D01*
X161188724Y-118235136D01*
X161172479Y-118225306D01*
X161148156Y-118213978D01*
X161122185Y-118207860D01*
X161088073Y-118205633D01*
X161075090Y-118205526D01*
X161019837Y-118210043D01*
X160976787Y-118224134D01*
X160943862Y-118248612D01*
X160933489Y-118260918D01*
X160928507Y-118268366D01*
X160924559Y-118277170D01*
X160921502Y-118289296D01*
X160919194Y-118306711D01*
X160917491Y-118331380D01*
X160916250Y-118365269D01*
X160915327Y-118410346D01*
X160914578Y-118468576D01*
X160913986Y-118528417D01*
X160913405Y-118599800D01*
X160913201Y-118656432D01*
X160736139Y-118656432D01*
X160736135Y-118578084D01*
X160736057Y-118500652D01*
X160735774Y-118438148D01*
X160735201Y-118388743D01*
X160734251Y-118350611D01*
X160732838Y-118321924D01*
X160730877Y-118300855D01*
X160728281Y-118285577D01*
X160724965Y-118274262D01*
X160721474Y-118266314D01*
X160696259Y-118233829D01*
X160659756Y-118213545D01*
X160612404Y-118205698D01*
X160607928Y-118205613D01*
X160567015Y-118208774D01*
X160534213Y-118221026D01*
X160502137Y-118245244D01*
X160499188Y-118247964D01*
X160475850Y-118269739D01*
X160457302Y-118247730D01*
X160431401Y-118223670D01*
X160401048Y-118210386D01*
X160360969Y-118205691D01*
X160355716Y-118205605D01*
X160317449Y-118208342D01*
X160286472Y-118219175D01*
X160256121Y-118240847D01*
X160244550Y-118251372D01*
X160217892Y-118276591D01*
X160205185Y-118246178D01*
X160194050Y-118226748D01*
X160182201Y-118216326D01*
X160179484Y-118215765D01*
X160176154Y-118217252D01*
X160173438Y-118222719D01*
X160171275Y-118233680D01*
X160169605Y-118251647D01*
X160168365Y-118278133D01*
X160167496Y-118314649D01*
X160166937Y-118362710D01*
X160166625Y-118423826D01*
X160166502Y-118499510D01*
X160166491Y-118538292D01*
X160166491Y-118860818D01*
X159387401Y-118860818D01*
X159387401Y-118768668D01*
X159387662Y-118728080D01*
X159388746Y-118701398D01*
X159391105Y-118685779D01*
X159395190Y-118678377D01*
X159401453Y-118676348D01*
X159402061Y-118676333D01*
X159418298Y-118672879D01*
X159442077Y-118664386D01*
X159452608Y-118659861D01*
X159480840Y-118642635D01*
X159499578Y-118618250D01*
X159504782Y-118607687D01*
X159510279Y-118593992D01*
X159514402Y-118578744D01*
X159516035Y-118568003D01*
X159671195Y-118568003D01*
X159820409Y-118565713D01*
X159969624Y-118563423D01*
X159969624Y-118504782D01*
X159676418Y-118504782D01*
X159673807Y-118536393D01*
X159671195Y-118568003D01*
X159516035Y-118568003D01*
X159517345Y-118559389D01*
X159519306Y-118533371D01*
X159520481Y-118498135D01*
X159521066Y-118451125D01*
X159521254Y-118393301D01*
X159521438Y-118214802D01*
X159485834Y-118217378D01*
X159450231Y-118219954D01*
X159446042Y-118402917D01*
X159444619Y-118462784D01*
X159443276Y-118508153D01*
X159441742Y-118541281D01*
X159439745Y-118564421D01*
X159437013Y-118579826D01*
X159433276Y-118589753D01*
X159428260Y-118596455D01*
X159422077Y-118601878D01*
X159399477Y-118612166D01*
X159367373Y-118617486D01*
X159332366Y-118617497D01*
X159301054Y-118611858D01*
X159292380Y-118608575D01*
X159280061Y-118601505D01*
X159270615Y-118591531D01*
X159263670Y-118576539D01*
X159258853Y-118554412D01*
X159255790Y-118523033D01*
X159254109Y-118480288D01*
X159253438Y-118424058D01*
X159253364Y-118387106D01*
X159253364Y-118215765D01*
X159186346Y-118215765D01*
X159186346Y-118400482D01*
X159024224Y-118400482D01*
X159022988Y-118219954D01*
X158987385Y-118217378D01*
X158951781Y-118214802D01*
X158951781Y-118500594D01*
X158759103Y-118500594D01*
X158759103Y-118215765D01*
X158692084Y-118215765D01*
X158692084Y-118860818D01*
X156849077Y-118860818D01*
X156849077Y-116192645D01*
X158864041Y-116192645D01*
X158865383Y-116280789D01*
X158869575Y-116353719D01*
X158876707Y-116412747D01*
X158880999Y-116435587D01*
X158885274Y-116457564D01*
X158888009Y-116473285D01*
X158904560Y-116547228D01*
X158930663Y-116629274D01*
X158964549Y-116715171D01*
X159004451Y-116800669D01*
X159048601Y-116881517D01*
X159076153Y-116925660D01*
X159096817Y-116956693D01*
X159114696Y-116982981D01*
X159127383Y-117001010D01*
X159131684Y-117006615D01*
X159142062Y-117019303D01*
X159157121Y-117038652D01*
X159161214Y-117044030D01*
X159183602Y-117070664D01*
X159215432Y-117104667D01*
X159253276Y-117142676D01*
X159293709Y-117181332D01*
X159333302Y-117217271D01*
X159366678Y-117245562D01*
X159473757Y-117322679D01*
X159590630Y-117389731D01*
X159714113Y-117445378D01*
X159841020Y-117488278D01*
X159968168Y-117517090D01*
X160032454Y-117525967D01*
X160057976Y-117528858D01*
X160075369Y-117531159D01*
X160080075Y-117532093D01*
X160088548Y-117533011D01*
X160109392Y-117534280D01*
X160138237Y-117535636D01*
X160140601Y-117535734D01*
X160199580Y-117538154D01*
X160201885Y-117402101D01*
X160204189Y-117266048D01*
X160230142Y-117264941D01*
X160283773Y-117264941D01*
X160287962Y-117269129D01*
X160292150Y-117264941D01*
X160287962Y-117260752D01*
X160283773Y-117264941D01*
X160230142Y-117264941D01*
X160241887Y-117264440D01*
X160264914Y-117263113D01*
X160279434Y-117261624D01*
X160281679Y-117261030D01*
X160290574Y-117259669D01*
X160309349Y-117258800D01*
X160310999Y-117258769D01*
X160333875Y-117255702D01*
X160350305Y-117249059D01*
X160358532Y-117244045D01*
X160356427Y-117249742D01*
X160356291Y-117255586D01*
X160368685Y-117254317D01*
X160375917Y-117252377D01*
X160394854Y-117247244D01*
X160405369Y-117244949D01*
X160405479Y-117244944D01*
X160426693Y-117242468D01*
X160452009Y-117237114D01*
X160476606Y-117230267D01*
X160495666Y-117223315D01*
X160504368Y-117217643D01*
X160504318Y-117216513D01*
X160504413Y-117211814D01*
X160507774Y-117213326D01*
X160522596Y-117213853D01*
X160551419Y-117206042D01*
X160593789Y-117190025D01*
X160606299Y-117184816D01*
X160624812Y-117177174D01*
X160635392Y-117173146D01*
X160635620Y-117173080D01*
X160661531Y-117164222D01*
X160675791Y-117155099D01*
X160677507Y-117151282D01*
X160682502Y-117144424D01*
X160683790Y-117144462D01*
X160700998Y-117144343D01*
X160707933Y-117138586D01*
X160706886Y-117135188D01*
X160708235Y-117130428D01*
X160714769Y-117131896D01*
X160725792Y-117131755D01*
X160727770Y-117127611D01*
X160733932Y-117118771D01*
X160736592Y-117118338D01*
X160749567Y-117114078D01*
X160766951Y-117103736D01*
X160783845Y-117090969D01*
X160795352Y-117079434D01*
X160797094Y-117073171D01*
X160797809Y-117070238D01*
X160803422Y-117071730D01*
X160815897Y-117069196D01*
X160834001Y-117058383D01*
X160852743Y-117043331D01*
X160867133Y-117028078D01*
X160872182Y-117016663D01*
X160872071Y-117016162D01*
X160875040Y-117012038D01*
X160878419Y-117013533D01*
X160889645Y-117013062D01*
X160901218Y-117004379D01*
X160906988Y-116993271D01*
X160905389Y-116988144D01*
X160905260Y-116985260D01*
X160908954Y-116987009D01*
X160919687Y-116984140D01*
X160937971Y-116970031D01*
X160961742Y-116947162D01*
X160988938Y-116918014D01*
X161017495Y-116885067D01*
X161045350Y-116850802D01*
X161070438Y-116817701D01*
X161090698Y-116788242D01*
X161104065Y-116764909D01*
X161108476Y-116750180D01*
X161107818Y-116747924D01*
X161107216Y-116742534D01*
X161110344Y-116743828D01*
X161117391Y-116739316D01*
X161128798Y-116723127D01*
X161142641Y-116699117D01*
X161156997Y-116671139D01*
X161169943Y-116643049D01*
X161179554Y-116618702D01*
X161183906Y-116601952D01*
X161183400Y-116597433D01*
X161182644Y-116591872D01*
X161186514Y-116593515D01*
X161193022Y-116589169D01*
X161201550Y-116572930D01*
X161210648Y-116549299D01*
X161218870Y-116522774D01*
X161224767Y-116497855D01*
X161226890Y-116479042D01*
X161225556Y-116472209D01*
X161224345Y-116466249D01*
X161229115Y-116468296D01*
X161238041Y-116467724D01*
X161239427Y-116463308D01*
X161241754Y-116446102D01*
X161243847Y-116435587D01*
X161247926Y-116414731D01*
X161251424Y-116393701D01*
X161255389Y-116369511D01*
X161260719Y-116339365D01*
X161262524Y-116329596D01*
X161264928Y-116307293D01*
X161266549Y-116273049D01*
X161267407Y-116231001D01*
X161267522Y-116185284D01*
X161266915Y-116140034D01*
X161265606Y-116099386D01*
X161263615Y-116067476D01*
X161261153Y-116049198D01*
X161257036Y-116029045D01*
X161252479Y-116002856D01*
X161251858Y-115998934D01*
X161226157Y-115886192D01*
X161184968Y-115774701D01*
X161129544Y-115666410D01*
X161061138Y-115563268D01*
X160981001Y-115467223D01*
X160890387Y-115380224D01*
X160817130Y-115322674D01*
X160753462Y-115281258D01*
X160682010Y-115241971D01*
X160607475Y-115206973D01*
X160534557Y-115178421D01*
X160467959Y-115158472D01*
X160451319Y-115154769D01*
X160425415Y-115149337D01*
X160409433Y-115145845D01*
X160379366Y-115140456D01*
X160339019Y-115134964D01*
X160294841Y-115130098D01*
X160253286Y-115126586D01*
X160227226Y-115125265D01*
X160200000Y-115124538D01*
X160200000Y-114855284D01*
X160122510Y-114860021D01*
X160085697Y-114862571D01*
X160053210Y-114865359D01*
X160030156Y-114867925D01*
X160024412Y-114868846D01*
X160002361Y-114872769D01*
X159974722Y-114877140D01*
X159969959Y-114877840D01*
X159937662Y-114883396D01*
X159904847Y-114890279D01*
X159902606Y-114890811D01*
X159875354Y-114897188D01*
X159851404Y-114902503D01*
X159848153Y-114903183D01*
X159812052Y-114912856D01*
X159765513Y-114928661D01*
X159712923Y-114948925D01*
X159658670Y-114971972D01*
X159616265Y-114991655D01*
X159575926Y-115012278D01*
X159532187Y-115036376D01*
X159488587Y-115061818D01*
X159448659Y-115086471D01*
X159415940Y-115108205D01*
X159393965Y-115124887D01*
X159391337Y-115127271D01*
X159379216Y-115137849D01*
X159359225Y-115154429D01*
X159344404Y-115166424D01*
X159296233Y-115208253D01*
X159244683Y-115258479D01*
X159194202Y-115312386D01*
X159149236Y-115365260D01*
X159119155Y-115405178D01*
X159102994Y-115428028D01*
X159090593Y-115444881D01*
X159085398Y-115451253D01*
X159075660Y-115464089D01*
X159060473Y-115488783D01*
X159041646Y-115522090D01*
X159020989Y-115560767D01*
X159000311Y-115601572D01*
X158991942Y-115618799D01*
X158945848Y-115725037D01*
X158911120Y-115826921D01*
X158888744Y-115921559D01*
X158888734Y-115921617D01*
X158884630Y-115941530D01*
X158881170Y-115953001D01*
X158881064Y-115953187D01*
X158876733Y-115968365D01*
X158872723Y-115997381D01*
X158869242Y-116037321D01*
X158866496Y-116085268D01*
X158864693Y-116138306D01*
X158864041Y-116192645D01*
X156849077Y-116192645D01*
X156849077Y-113449077D01*
X163550923Y-113449077D01*
G37*
G36*
X160585356Y-115388423D02*
G01*
X160581168Y-115392612D01*
X160576979Y-115388423D01*
X160581168Y-115384235D01*
X160585356Y-115388423D01*
G37*
G36*
X161255541Y-116083740D02*
G01*
X161251352Y-116087929D01*
X161247164Y-116083740D01*
X161251352Y-116079551D01*
X161255541Y-116083740D01*
G37*
G36*
X161062863Y-116527737D02*
G01*
X161058674Y-116531926D01*
X161054485Y-116527737D01*
X161058674Y-116523549D01*
X161062863Y-116527737D01*
G37*
G36*
X160225132Y-117214677D02*
G01*
X160220943Y-117218865D01*
X160216755Y-117214677D01*
X160220943Y-117210488D01*
X160225132Y-117214677D01*
G37*
G36*
X160778034Y-117072263D02*
G01*
X160773846Y-117076451D01*
X160769657Y-117072263D01*
X160773846Y-117068074D01*
X160778034Y-117072263D01*
G37*
G36*
X161155013Y-116628265D02*
G01*
X161150825Y-116632454D01*
X161146636Y-116628265D01*
X161150825Y-116624076D01*
X161155013Y-116628265D01*
G37*
G36*
X160953958Y-115505706D02*
G01*
X160949769Y-115509894D01*
X160945580Y-115505706D01*
X160949769Y-115501517D01*
X160953958Y-115505706D01*
G37*
G36*
X160928826Y-116745547D02*
G01*
X160924637Y-116749736D01*
X160920449Y-116745547D01*
X160924637Y-116741359D01*
X160928826Y-116745547D01*
G37*
G36*
X160987467Y-116846075D02*
G01*
X160983278Y-116850264D01*
X160979090Y-116846075D01*
X160983278Y-116841887D01*
X160987467Y-116846075D01*
G37*
G36*
X160225132Y-117156036D02*
G01*
X160220943Y-117160224D01*
X160216755Y-117156036D01*
X160220943Y-117151847D01*
X160225132Y-117156036D01*
G37*
G36*
X160267018Y-117181168D02*
G01*
X160262830Y-117185356D01*
X160258641Y-117181168D01*
X160262830Y-117176979D01*
X160267018Y-117181168D01*
G37*
G36*
X160870185Y-115447065D02*
G01*
X160865996Y-115451253D01*
X160861807Y-115447065D01*
X160865996Y-115442876D01*
X160870185Y-115447065D01*
G37*
G36*
X161146636Y-116469096D02*
G01*
X161142447Y-116473285D01*
X161138259Y-116469096D01*
X161142447Y-116464908D01*
X161146636Y-116469096D01*
G37*
G36*
X160719393Y-116988489D02*
G01*
X160715204Y-116992678D01*
X160711016Y-116988489D01*
X160715204Y-116984301D01*
X160719393Y-116988489D01*
G37*
G36*
X160476451Y-117097394D02*
G01*
X160472263Y-117101583D01*
X160468074Y-117097394D01*
X160472263Y-117093206D01*
X160476451Y-117097394D01*
G37*
G36*
X161113127Y-115941326D02*
G01*
X161108938Y-115945514D01*
X161104749Y-115941326D01*
X161108938Y-115937137D01*
X161113127Y-115941326D01*
G37*
G36*
X161012599Y-115581102D02*
G01*
X161008410Y-115585290D01*
X161004222Y-115581102D01*
X161008410Y-115576913D01*
X161012599Y-115581102D01*
G37*
G36*
X160945580Y-115480574D02*
G01*
X160941392Y-115484763D01*
X160937203Y-115480574D01*
X160941392Y-115476385D01*
X160945580Y-115480574D01*
G37*
G36*
X161037731Y-115790534D02*
G01*
X161033542Y-115794723D01*
X161029354Y-115790534D01*
X161033542Y-115786346D01*
X161037731Y-115790534D01*
G37*
G36*
X160702639Y-117005244D02*
G01*
X160698450Y-117009433D01*
X160694261Y-117005244D01*
X160698450Y-117001055D01*
X160702639Y-117005244D01*
G37*
G36*
X161129881Y-116402078D02*
G01*
X161125693Y-116406266D01*
X161121504Y-116402078D01*
X161125693Y-116397889D01*
X161129881Y-116402078D01*
G37*
G36*
X160627243Y-115388423D02*
G01*
X160623054Y-115392612D01*
X160618865Y-115388423D01*
X160623054Y-115384235D01*
X160627243Y-115388423D01*
G37*
G36*
X161029354Y-115723516D02*
G01*
X161025165Y-115727704D01*
X161020976Y-115723516D01*
X161025165Y-115719327D01*
X161029354Y-115723516D01*
G37*
G36*
X160568602Y-115396801D02*
G01*
X160564413Y-115400989D01*
X160560224Y-115396801D01*
X160564413Y-115392612D01*
X160568602Y-115396801D01*
G37*
G36*
X160794789Y-115405178D02*
G01*
X160790600Y-115409367D01*
X160786412Y-115405178D01*
X160790600Y-115400989D01*
X160794789Y-115405178D01*
G37*
G36*
X160417810Y-117181168D02*
G01*
X160413621Y-117185356D01*
X160409433Y-117181168D01*
X160413621Y-117176979D01*
X160417810Y-117181168D01*
G37*
G36*
X160886939Y-116846075D02*
G01*
X160882751Y-116850264D01*
X160878562Y-116846075D01*
X160882751Y-116841887D01*
X160886939Y-116846075D01*
G37*
G36*
X161020976Y-116611511D02*
G01*
X161016788Y-116615699D01*
X161012599Y-116611511D01*
X161016788Y-116607322D01*
X161020976Y-116611511D01*
G37*
G36*
X160660752Y-115304650D02*
G01*
X160656563Y-115308839D01*
X160652375Y-115304650D01*
X160656563Y-115300462D01*
X160660752Y-115304650D01*
G37*
G36*
X161155013Y-116519360D02*
G01*
X161150825Y-116523549D01*
X161146636Y-116519360D01*
X161150825Y-116515171D01*
X161155013Y-116519360D01*
G37*
G36*
X160484828Y-115237632D02*
G01*
X160480640Y-115241821D01*
X160476451Y-115237632D01*
X160480640Y-115233443D01*
X160484828Y-115237632D01*
G37*
G36*
X160870185Y-115505706D02*
G01*
X160865996Y-115509894D01*
X160861807Y-115505706D01*
X160865996Y-115501517D01*
X160870185Y-115505706D01*
G37*
G36*
X160325660Y-117105772D02*
G01*
X160321471Y-117109960D01*
X160317282Y-117105772D01*
X160321471Y-117101583D01*
X160325660Y-117105772D01*
G37*
G36*
X160392678Y-117089017D02*
G01*
X160388489Y-117093206D01*
X160384301Y-117089017D01*
X160388489Y-117084828D01*
X160392678Y-117089017D01*
G37*
G36*
X160451319Y-115262764D02*
G01*
X160447131Y-115266952D01*
X160442942Y-115262764D01*
X160447131Y-115258575D01*
X160451319Y-115262764D01*
G37*
G36*
X160283773Y-115187368D02*
G01*
X160279584Y-115191557D01*
X160275396Y-115187368D01*
X160279584Y-115183179D01*
X160283773Y-115187368D01*
G37*
G36*
X160811544Y-115388423D02*
G01*
X160807355Y-115392612D01*
X160803166Y-115388423D01*
X160807355Y-115384235D01*
X160811544Y-115388423D01*
G37*
G36*
X160811544Y-115539215D02*
G01*
X160807355Y-115543404D01*
X160803166Y-115539215D01*
X160807355Y-115535026D01*
X160811544Y-115539215D01*
G37*
G36*
X160250264Y-115229255D02*
G01*
X160246075Y-115233443D01*
X160241887Y-115229255D01*
X160246075Y-115225066D01*
X160250264Y-115229255D01*
G37*
G36*
X160903694Y-115648120D02*
G01*
X160899505Y-115652309D01*
X160895317Y-115648120D01*
X160899505Y-115643931D01*
X160903694Y-115648120D01*
G37*
G36*
X161113127Y-116041854D02*
G01*
X161108938Y-116046042D01*
X161104749Y-116041854D01*
X161108938Y-116037665D01*
X161113127Y-116041854D01*
G37*
G36*
X160928826Y-115648120D02*
G01*
X160924637Y-115652309D01*
X160920449Y-115648120D01*
X160924637Y-115643931D01*
X160928826Y-115648120D01*
G37*
G36*
X160551847Y-117105772D02*
G01*
X160547658Y-117109960D01*
X160543470Y-117105772D01*
X160547658Y-117101583D01*
X160551847Y-117105772D01*
G37*
G36*
X161163390Y-116435587D02*
G01*
X161159202Y-116439776D01*
X161155013Y-116435587D01*
X161159202Y-116431398D01*
X161163390Y-116435587D01*
G37*
G36*
X160761280Y-115304650D02*
G01*
X160757091Y-115308839D01*
X160752902Y-115304650D01*
X160757091Y-115300462D01*
X160761280Y-115304650D01*
G37*
G36*
X161138259Y-116092117D02*
G01*
X161134070Y-116096306D01*
X161129881Y-116092117D01*
X161134070Y-116087929D01*
X161138259Y-116092117D01*
G37*
G36*
X160727770Y-117097394D02*
G01*
X160723582Y-117101583D01*
X160719393Y-117097394D01*
X160723582Y-117093206D01*
X160727770Y-117097394D01*
G37*
G36*
X161012599Y-115706761D02*
G01*
X161008410Y-115710950D01*
X161004222Y-115706761D01*
X161008410Y-115702573D01*
X161012599Y-115706761D01*
G37*
G36*
X160359169Y-115178991D02*
G01*
X160354980Y-115183179D01*
X160350792Y-115178991D01*
X160354980Y-115174802D01*
X160359169Y-115178991D01*
G37*
G36*
X161129881Y-115690007D02*
G01*
X161125693Y-115694195D01*
X161121504Y-115690007D01*
X161125693Y-115685818D01*
X161129881Y-115690007D01*
G37*
G36*
X160476451Y-115262764D02*
G01*
X160472263Y-115266952D01*
X160468074Y-115262764D01*
X160472263Y-115258575D01*
X160476451Y-115262764D01*
G37*
G36*
X161188522Y-116117249D02*
G01*
X161184334Y-116121438D01*
X161180145Y-116117249D01*
X161184334Y-116113061D01*
X161188522Y-116117249D01*
G37*
G36*
X160920449Y-115564347D02*
G01*
X160916260Y-115568536D01*
X160912071Y-115564347D01*
X160916260Y-115560158D01*
X160920449Y-115564347D01*
G37*
G36*
X161087995Y-116544492D02*
G01*
X161083806Y-116548681D01*
X161079617Y-116544492D01*
X161083806Y-116540303D01*
X161087995Y-116544492D01*
G37*
G36*
X161180145Y-116460719D02*
G01*
X161175956Y-116464908D01*
X161171768Y-116460719D01*
X161175956Y-116456530D01*
X161180145Y-116460719D01*
G37*
G36*
X160292150Y-115162236D02*
G01*
X160287962Y-115166425D01*
X160283773Y-115162236D01*
X160287962Y-115158047D01*
X160292150Y-115162236D01*
G37*
G36*
X160962335Y-115614611D02*
G01*
X160958146Y-115618799D01*
X160953958Y-115614611D01*
X160958146Y-115610422D01*
X160962335Y-115614611D01*
G37*
G36*
X161146636Y-116586379D02*
G01*
X161142447Y-116590567D01*
X161138259Y-116586379D01*
X161142447Y-116582190D01*
X161146636Y-116586379D01*
G37*
G36*
X161238786Y-116117249D02*
G01*
X161234598Y-116121438D01*
X161230409Y-116117249D01*
X161234598Y-116113061D01*
X161238786Y-116117249D01*
G37*
G36*
X160292150Y-115338160D02*
G01*
X160287962Y-115342348D01*
X160283773Y-115338160D01*
X160287962Y-115333971D01*
X160292150Y-115338160D01*
G37*
G36*
X161155013Y-116025099D02*
G01*
X161150825Y-116029288D01*
X161146636Y-116025099D01*
X161150825Y-116020910D01*
X161155013Y-116025099D01*
G37*
G36*
X161012599Y-116586379D02*
G01*
X161008410Y-116590567D01*
X161004222Y-116586379D01*
X161008410Y-116582190D01*
X161012599Y-116586379D01*
G37*
G36*
X160384301Y-115254387D02*
G01*
X160380112Y-115258575D01*
X160375923Y-115254387D01*
X160380112Y-115250198D01*
X160384301Y-115254387D01*
G37*
G36*
X161104749Y-116293173D02*
G01*
X161100561Y-116297361D01*
X161096372Y-116293173D01*
X161100561Y-116288984D01*
X161104749Y-116293173D01*
G37*
G36*
X160275396Y-117206299D02*
G01*
X160271207Y-117210488D01*
X160267018Y-117206299D01*
X160271207Y-117202111D01*
X160275396Y-117206299D01*
G37*
G36*
X161004222Y-116795811D02*
G01*
X161000033Y-116800000D01*
X160995844Y-116795811D01*
X161000033Y-116791623D01*
X161004222Y-116795811D01*
G37*
G36*
X161104749Y-115773780D02*
G01*
X161100561Y-115777968D01*
X161096372Y-115773780D01*
X161100561Y-115769591D01*
X161104749Y-115773780D01*
G37*
G36*
X161113127Y-116385323D02*
G01*
X161108938Y-116389512D01*
X161104749Y-116385323D01*
X161108938Y-116381135D01*
X161113127Y-116385323D01*
G37*
G36*
X160618865Y-115229255D02*
G01*
X160614677Y-115233443D01*
X160610488Y-115229255D01*
X160614677Y-115225066D01*
X160618865Y-115229255D01*
G37*
G36*
X160300528Y-117156036D02*
G01*
X160296339Y-117160224D01*
X160292150Y-117156036D01*
X160296339Y-117151847D01*
X160300528Y-117156036D01*
G37*
G36*
X161213654Y-116494228D02*
G01*
X161209466Y-116498417D01*
X161205277Y-116494228D01*
X161209466Y-116490040D01*
X161213654Y-116494228D01*
G37*
G36*
X160342414Y-115271141D02*
G01*
X160338226Y-115275330D01*
X160334037Y-115271141D01*
X160338226Y-115266952D01*
X160342414Y-115271141D01*
G37*
G36*
X160451319Y-117097394D02*
G01*
X160447131Y-117101583D01*
X160442942Y-117097394D01*
X160447131Y-117093206D01*
X160451319Y-117097394D01*
G37*
G36*
X161096372Y-116695284D02*
G01*
X161092183Y-116699472D01*
X161087995Y-116695284D01*
X161092183Y-116691095D01*
X161096372Y-116695284D01*
G37*
G36*
X160937203Y-116854452D02*
G01*
X160933014Y-116858641D01*
X160928826Y-116854452D01*
X160933014Y-116850264D01*
X160937203Y-116854452D01*
G37*
G36*
X160409433Y-117156036D02*
G01*
X160405244Y-117160224D01*
X160401055Y-117156036D01*
X160405244Y-117151847D01*
X160409433Y-117156036D01*
G37*
G36*
X161037731Y-116594756D02*
G01*
X161033542Y-116598945D01*
X161029354Y-116594756D01*
X161033542Y-116590567D01*
X161037731Y-116594756D01*
G37*
G36*
X161113127Y-115698384D02*
G01*
X161108938Y-115702573D01*
X161104749Y-115698384D01*
X161108938Y-115694195D01*
X161113127Y-115698384D01*
G37*
G36*
X160501583Y-117055508D02*
G01*
X160497394Y-117059697D01*
X160493206Y-117055508D01*
X160497394Y-117051319D01*
X160501583Y-117055508D01*
G37*
G36*
X161155013Y-115991590D02*
G01*
X161150825Y-115995778D01*
X161146636Y-115991590D01*
X161150825Y-115987401D01*
X161155013Y-115991590D01*
G37*
G36*
X160928826Y-116904716D02*
G01*
X160924637Y-116908905D01*
X160920449Y-116904716D01*
X160924637Y-116900528D01*
X160928826Y-116904716D01*
G37*
G36*
X160643997Y-115296273D02*
G01*
X160639809Y-115300462D01*
X160635620Y-115296273D01*
X160639809Y-115292084D01*
X160643997Y-115296273D01*
G37*
G36*
X161247164Y-116226154D02*
G01*
X161242975Y-116230343D01*
X161238786Y-116226154D01*
X161242975Y-116221966D01*
X161247164Y-116226154D01*
G37*
G36*
X161163390Y-116050231D02*
G01*
X161159202Y-116054420D01*
X161155013Y-116050231D01*
X161159202Y-116046042D01*
X161163390Y-116050231D01*
G37*
G36*
X160551847Y-115329782D02*
G01*
X160547658Y-115333971D01*
X160543470Y-115329782D01*
X160547658Y-115325594D01*
X160551847Y-115329782D01*
G37*
G36*
X161222032Y-115999967D02*
G01*
X161217843Y-116004156D01*
X161213654Y-115999967D01*
X161217843Y-115995778D01*
X161222032Y-115999967D01*
G37*
G36*
X160501583Y-115338160D02*
G01*
X160497394Y-115342348D01*
X160493206Y-115338160D01*
X160497394Y-115333971D01*
X160501583Y-115338160D01*
G37*
G36*
X160685884Y-117114149D02*
G01*
X160681695Y-117118338D01*
X160677507Y-117114149D01*
X160681695Y-117109960D01*
X160685884Y-117114149D01*
G37*
G36*
X160509960Y-115363292D02*
G01*
X160505772Y-115367480D01*
X160501583Y-115363292D01*
X160505772Y-115359103D01*
X160509960Y-115363292D01*
G37*
G36*
X160526715Y-115380046D02*
G01*
X160522526Y-115384235D01*
X160518338Y-115380046D01*
X160522526Y-115375858D01*
X160526715Y-115380046D01*
G37*
G36*
X160819921Y-115421933D02*
G01*
X160815732Y-115426121D01*
X160811544Y-115421933D01*
X160815732Y-115417744D01*
X160819921Y-115421933D01*
G37*
G36*
X161129881Y-116301550D02*
G01*
X161125693Y-116305739D01*
X161121504Y-116301550D01*
X161125693Y-116297361D01*
X161129881Y-116301550D01*
G37*
G36*
X161020976Y-115606233D02*
G01*
X161016788Y-115610422D01*
X161012599Y-115606233D01*
X161016788Y-115602045D01*
X161020976Y-115606233D01*
G37*
G36*
X160225132Y-115204123D02*
G01*
X160220943Y-115208311D01*
X160216755Y-115204123D01*
X160220943Y-115199934D01*
X160225132Y-115204123D01*
G37*
G36*
X160677507Y-115405178D02*
G01*
X160673318Y-115409367D01*
X160669129Y-115405178D01*
X160673318Y-115400989D01*
X160677507Y-115405178D01*
G37*
G36*
X160769657Y-115438687D02*
G01*
X160765468Y-115442876D01*
X160761280Y-115438687D01*
X160765468Y-115434499D01*
X160769657Y-115438687D01*
G37*
G36*
X160258641Y-115304650D02*
G01*
X160254452Y-115308839D01*
X160250264Y-115304650D01*
X160254452Y-115300462D01*
X160258641Y-115304650D01*
G37*
G36*
X161046108Y-115606233D02*
G01*
X161041920Y-115610422D01*
X161037731Y-115606233D01*
X161041920Y-115602045D01*
X161046108Y-115606233D01*
G37*
G36*
X161213654Y-116025099D02*
G01*
X161209466Y-116029288D01*
X161205277Y-116025099D01*
X161209466Y-116020910D01*
X161213654Y-116025099D01*
G37*
G36*
X160819921Y-115363292D02*
G01*
X160815732Y-115367480D01*
X160811544Y-115363292D01*
X160815732Y-115359103D01*
X160819921Y-115363292D01*
G37*
G36*
X161146636Y-115723516D02*
G01*
X161142447Y-115727704D01*
X161138259Y-115723516D01*
X161142447Y-115719327D01*
X161146636Y-115723516D01*
G37*
G36*
X160459697Y-117164413D02*
G01*
X160455508Y-117168602D01*
X160451319Y-117164413D01*
X160455508Y-117160224D01*
X160459697Y-117164413D01*
G37*
G36*
X160945580Y-115455442D02*
G01*
X160941392Y-115459631D01*
X160937203Y-115455442D01*
X160941392Y-115451253D01*
X160945580Y-115455442D01*
G37*
G36*
X160484828Y-117172790D02*
G01*
X160480640Y-117176979D01*
X160476451Y-117172790D01*
X160480640Y-117168602D01*
X160484828Y-117172790D01*
G37*
G36*
X160903694Y-116804189D02*
G01*
X160899505Y-116808377D01*
X160895317Y-116804189D01*
X160899505Y-116800000D01*
X160903694Y-116804189D01*
G37*
G36*
X160861807Y-115396801D02*
G01*
X160857619Y-115400989D01*
X160853430Y-115396801D01*
X160857619Y-115392612D01*
X160861807Y-115396801D01*
G37*
G36*
X161020976Y-116703661D02*
G01*
X161016788Y-116707850D01*
X161012599Y-116703661D01*
X161016788Y-116699472D01*
X161020976Y-116703661D01*
G37*
G36*
X161205277Y-116142381D02*
G01*
X161201088Y-116146570D01*
X161196900Y-116142381D01*
X161201088Y-116138193D01*
X161205277Y-116142381D01*
G37*
G36*
X160685884Y-117021999D02*
G01*
X160681695Y-117026187D01*
X160677507Y-117021999D01*
X160681695Y-117017810D01*
X160685884Y-117021999D01*
G37*
G36*
X161079617Y-116469096D02*
G01*
X161075429Y-116473285D01*
X161071240Y-116469096D01*
X161075429Y-116464908D01*
X161079617Y-116469096D01*
G37*
G36*
X160861807Y-116988489D02*
G01*
X160857619Y-116992678D01*
X160853430Y-116988489D01*
X160857619Y-116984301D01*
X160861807Y-116988489D01*
G37*
G36*
X160225132Y-115229255D02*
G01*
X160220943Y-115233443D01*
X160216755Y-115229255D01*
X160220943Y-115225066D01*
X160225132Y-115229255D01*
G37*
G36*
X160593733Y-117139281D02*
G01*
X160589545Y-117143470D01*
X160585356Y-117139281D01*
X160589545Y-117135092D01*
X160593733Y-117139281D01*
G37*
G36*
X160786412Y-116887962D02*
G01*
X160782223Y-116892150D01*
X160778034Y-116887962D01*
X160782223Y-116883773D01*
X160786412Y-116887962D01*
G37*
G36*
X160845053Y-116971735D02*
G01*
X160840864Y-116975923D01*
X160836675Y-116971735D01*
X160840864Y-116967546D01*
X160845053Y-116971735D01*
G37*
G36*
X160786412Y-115547592D02*
G01*
X160782223Y-115551781D01*
X160778034Y-115547592D01*
X160782223Y-115543404D01*
X160786412Y-115547592D01*
G37*
G36*
X160643997Y-117080640D02*
G01*
X160639809Y-117084828D01*
X160635620Y-117080640D01*
X160639809Y-117076451D01*
X160643997Y-117080640D01*
G37*
G36*
X160928826Y-116954980D02*
G01*
X160924637Y-116959169D01*
X160920449Y-116954980D01*
X160924637Y-116950792D01*
X160928826Y-116954980D01*
G37*
G36*
X160560224Y-117156036D02*
G01*
X160556036Y-117160224D01*
X160551847Y-117156036D01*
X160556036Y-117151847D01*
X160560224Y-117156036D01*
G37*
G36*
X160610488Y-117164413D02*
G01*
X160606299Y-117168602D01*
X160602111Y-117164413D01*
X160606299Y-117160224D01*
X160610488Y-117164413D01*
G37*
G36*
X160736148Y-116996867D02*
G01*
X160731959Y-117001055D01*
X160727770Y-116996867D01*
X160731959Y-116992678D01*
X160736148Y-116996867D01*
G37*
G36*
X160912071Y-116779057D02*
G01*
X160907883Y-116783245D01*
X160903694Y-116779057D01*
X160907883Y-116774868D01*
X160912071Y-116779057D01*
G37*
G36*
X161230409Y-116242909D02*
G01*
X161226220Y-116247098D01*
X161222032Y-116242909D01*
X161226220Y-116238720D01*
X161230409Y-116242909D01*
G37*
G36*
X160895317Y-115488951D02*
G01*
X160891128Y-115493140D01*
X160886939Y-115488951D01*
X160891128Y-115484763D01*
X160895317Y-115488951D01*
G37*
G36*
X160995844Y-115824044D02*
G01*
X160991656Y-115828232D01*
X160987467Y-115824044D01*
X160991656Y-115819855D01*
X160995844Y-115824044D01*
G37*
G36*
X160652375Y-117147658D02*
G01*
X160648186Y-117151847D01*
X160643997Y-117147658D01*
X160648186Y-117143470D01*
X160652375Y-117147658D01*
G37*
G36*
X160836675Y-116996867D02*
G01*
X160832487Y-117001055D01*
X160828298Y-116996867D01*
X160832487Y-116992678D01*
X160836675Y-116996867D01*
G37*
G36*
X160568602Y-115212500D02*
G01*
X160564413Y-115216689D01*
X160560224Y-115212500D01*
X160564413Y-115208311D01*
X160568602Y-115212500D01*
G37*
G36*
X160442942Y-117189545D02*
G01*
X160438753Y-117193733D01*
X160434565Y-117189545D01*
X160438753Y-117185356D01*
X160442942Y-117189545D01*
G37*
G36*
X160618865Y-115313028D02*
G01*
X160614677Y-115317216D01*
X160610488Y-115313028D01*
X160614677Y-115308839D01*
X160618865Y-115313028D01*
G37*
G36*
X160308905Y-117231431D02*
G01*
X160304716Y-117235620D01*
X160300528Y-117231431D01*
X160304716Y-117227243D01*
X160308905Y-117231431D01*
G37*
G36*
X160987467Y-115656497D02*
G01*
X160983278Y-115660686D01*
X160979090Y-115656497D01*
X160983278Y-115652309D01*
X160987467Y-115656497D01*
G37*
G36*
X160744525Y-115488951D02*
G01*
X160740336Y-115493140D01*
X160736148Y-115488951D01*
X160740336Y-115484763D01*
X160744525Y-115488951D01*
G37*
G36*
X160786412Y-115380046D02*
G01*
X160782223Y-115384235D01*
X160778034Y-115380046D01*
X160782223Y-115375858D01*
X160786412Y-115380046D01*
G37*
G36*
X160484828Y-117122526D02*
G01*
X160480640Y-117126715D01*
X160476451Y-117122526D01*
X160480640Y-117118338D01*
X160484828Y-117122526D01*
G37*
G36*
X160903694Y-116913094D02*
G01*
X160899505Y-116917282D01*
X160895317Y-116913094D01*
X160899505Y-116908905D01*
X160903694Y-116913094D01*
G37*
G36*
X160216755Y-115271141D02*
G01*
X160212566Y-115275330D01*
X160208377Y-115271141D01*
X160212566Y-115266952D01*
X160216755Y-115271141D01*
G37*
G36*
X160719393Y-115405178D02*
G01*
X160715204Y-115409367D01*
X160711016Y-115405178D01*
X160715204Y-115400989D01*
X160719393Y-115405178D01*
G37*
G36*
X160719393Y-115279518D02*
G01*
X160715204Y-115283707D01*
X160711016Y-115279518D01*
X160715204Y-115275330D01*
X160719393Y-115279518D01*
G37*
G36*
X160275396Y-117130904D02*
G01*
X160271207Y-117135092D01*
X160267018Y-117130904D01*
X160271207Y-117126715D01*
X160275396Y-117130904D01*
G37*
G36*
X161163390Y-116201022D02*
G01*
X161159202Y-116205211D01*
X161155013Y-116201022D01*
X161159202Y-116196834D01*
X161163390Y-116201022D01*
G37*
G36*
X160819921Y-116921471D02*
G01*
X160815732Y-116925660D01*
X160811544Y-116921471D01*
X160815732Y-116917282D01*
X160819921Y-116921471D01*
G37*
G36*
X160853430Y-117013621D02*
G01*
X160849241Y-117017810D01*
X160845053Y-117013621D01*
X160849241Y-117009433D01*
X160853430Y-117013621D01*
G37*
G36*
X161196900Y-116234532D02*
G01*
X161192711Y-116238720D01*
X161188522Y-116234532D01*
X161192711Y-116230343D01*
X161196900Y-116234532D01*
G37*
G36*
X160325660Y-117130904D02*
G01*
X160321471Y-117135092D01*
X160317282Y-117130904D01*
X160321471Y-117126715D01*
X160325660Y-117130904D01*
G37*
G36*
X161071240Y-115832421D02*
G01*
X161067051Y-115836609D01*
X161062863Y-115832421D01*
X161067051Y-115828232D01*
X161071240Y-115832421D01*
G37*
G36*
X161171768Y-116008344D02*
G01*
X161167579Y-116012533D01*
X161163390Y-116008344D01*
X161167579Y-116004156D01*
X161171768Y-116008344D01*
G37*
G36*
X160970712Y-116829321D02*
G01*
X160966524Y-116833509D01*
X160962335Y-116829321D01*
X160966524Y-116825132D01*
X160970712Y-116829321D01*
G37*
G36*
X160308905Y-115187368D02*
G01*
X160304716Y-115191557D01*
X160300528Y-115187368D01*
X160304716Y-115183179D01*
X160308905Y-115187368D01*
G37*
G36*
X160987467Y-116879584D02*
G01*
X160983278Y-116883773D01*
X160979090Y-116879584D01*
X160983278Y-116875396D01*
X160987467Y-116879584D01*
G37*
G36*
X160811544Y-116946603D02*
G01*
X160807355Y-116950792D01*
X160803166Y-116946603D01*
X160807355Y-116942414D01*
X160811544Y-116946603D01*
G37*
G36*
X161037731Y-115698384D02*
G01*
X161033542Y-115702573D01*
X161029354Y-115698384D01*
X161033542Y-115694195D01*
X161037731Y-115698384D01*
G37*
G36*
X161196900Y-116184268D02*
G01*
X161192711Y-116188456D01*
X161188522Y-116184268D01*
X161192711Y-116180079D01*
X161196900Y-116184268D01*
G37*
G36*
X161046108Y-115840798D02*
G01*
X161041920Y-115844987D01*
X161037731Y-115840798D01*
X161041920Y-115836609D01*
X161046108Y-115840798D01*
G37*
G36*
X161054485Y-115899439D02*
G01*
X161050297Y-115903628D01*
X161046108Y-115899439D01*
X161050297Y-115895251D01*
X161054485Y-115899439D01*
G37*
G36*
X160551847Y-115380046D02*
G01*
X160547658Y-115384235D01*
X160543470Y-115380046D01*
X160547658Y-115375858D01*
X160551847Y-115380046D01*
G37*
G36*
X161071240Y-115614611D02*
G01*
X161067051Y-115618799D01*
X161062863Y-115614611D01*
X161067051Y-115610422D01*
X161071240Y-115614611D01*
G37*
G36*
X160635620Y-117122526D02*
G01*
X160631431Y-117126715D01*
X160627243Y-117122526D01*
X160631431Y-117118338D01*
X160635620Y-117122526D01*
G37*
G36*
X160928826Y-115698384D02*
G01*
X160924637Y-115702573D01*
X160920449Y-115698384D01*
X160924637Y-115694195D01*
X160928826Y-115698384D01*
G37*
G36*
X160778034Y-115522460D02*
G01*
X160773846Y-115526649D01*
X160769657Y-115522460D01*
X160773846Y-115518272D01*
X160778034Y-115522460D01*
G37*
G36*
X161104749Y-116251286D02*
G01*
X161100561Y-116255475D01*
X161096372Y-116251286D01*
X161100561Y-116247098D01*
X161104749Y-116251286D01*
G37*
G36*
X161096372Y-116402078D02*
G01*
X161092183Y-116406266D01*
X161087995Y-116402078D01*
X161092183Y-116397889D01*
X161096372Y-116402078D01*
G37*
G36*
X161213654Y-116326682D02*
G01*
X161209466Y-116330871D01*
X161205277Y-116326682D01*
X161209466Y-116322493D01*
X161213654Y-116326682D01*
G37*
G36*
X160803166Y-116988489D02*
G01*
X160798978Y-116992678D01*
X160794789Y-116988489D01*
X160798978Y-116984301D01*
X160803166Y-116988489D01*
G37*
G36*
X161238786Y-116167513D02*
G01*
X161234598Y-116171702D01*
X161230409Y-116167513D01*
X161234598Y-116163325D01*
X161238786Y-116167513D01*
G37*
G36*
X160267018Y-115279518D02*
G01*
X160262830Y-115283707D01*
X160258641Y-115279518D01*
X160262830Y-115275330D01*
X160267018Y-115279518D01*
G37*
G36*
X161087995Y-116234532D02*
G01*
X161083806Y-116238720D01*
X161079617Y-116234532D01*
X161083806Y-116230343D01*
X161087995Y-116234532D01*
G37*
G36*
X160962335Y-115530838D02*
G01*
X160958146Y-115535026D01*
X160953958Y-115530838D01*
X160958146Y-115526649D01*
X160962335Y-115530838D01*
G37*
G36*
X160283773Y-115262764D02*
G01*
X160279584Y-115266952D01*
X160275396Y-115262764D01*
X160279584Y-115258575D01*
X160283773Y-115262764D01*
G37*
G36*
X160267018Y-117248186D02*
G01*
X160262830Y-117252375D01*
X160258641Y-117248186D01*
X160262830Y-117243997D01*
X160267018Y-117248186D01*
G37*
G36*
X160543470Y-117080640D02*
G01*
X160539281Y-117084828D01*
X160535092Y-117080640D01*
X160539281Y-117076451D01*
X160543470Y-117080640D01*
G37*
G36*
X160979090Y-115782157D02*
G01*
X160974901Y-115786346D01*
X160970712Y-115782157D01*
X160974901Y-115777968D01*
X160979090Y-115782157D01*
G37*
G36*
X160719393Y-115438687D02*
G01*
X160715204Y-115442876D01*
X160711016Y-115438687D01*
X160715204Y-115434499D01*
X160719393Y-115438687D01*
G37*
G36*
X161205277Y-116092117D02*
G01*
X161201088Y-116096306D01*
X161196900Y-116092117D01*
X161201088Y-116087929D01*
X161205277Y-116092117D01*
G37*
G36*
X161163390Y-116108872D02*
G01*
X161159202Y-116113061D01*
X161155013Y-116108872D01*
X161159202Y-116104683D01*
X161163390Y-116108872D01*
G37*
G36*
X160317282Y-117181168D02*
G01*
X160313094Y-117185356D01*
X160308905Y-117181168D01*
X160313094Y-117176979D01*
X160317282Y-117181168D01*
G37*
G36*
X160250264Y-117231431D02*
G01*
X160246075Y-117235620D01*
X160241887Y-117231431D01*
X160246075Y-117227243D01*
X160250264Y-117231431D01*
G37*
G36*
X161180145Y-115824044D02*
G01*
X161175956Y-115828232D01*
X161171768Y-115824044D01*
X161175956Y-115819855D01*
X161180145Y-115824044D01*
G37*
G36*
X161087995Y-116326682D02*
G01*
X161083806Y-116330871D01*
X161079617Y-116326682D01*
X161083806Y-116322493D01*
X161087995Y-116326682D01*
G37*
G36*
X160568602Y-117089017D02*
G01*
X160564413Y-117093206D01*
X160560224Y-117089017D01*
X160564413Y-117084828D01*
X160568602Y-117089017D01*
G37*
G36*
X161071240Y-116561247D02*
G01*
X161067051Y-116565435D01*
X161062863Y-116561247D01*
X161067051Y-116557058D01*
X161071240Y-116561247D01*
G37*
G36*
X160702639Y-115413555D02*
G01*
X160698450Y-115417744D01*
X160694261Y-115413555D01*
X160698450Y-115409367D01*
X160702639Y-115413555D01*
G37*
G36*
X160886939Y-115631365D02*
G01*
X160882751Y-115635554D01*
X160878562Y-115631365D01*
X160882751Y-115627177D01*
X160886939Y-115631365D01*
G37*
G36*
X160711016Y-117063885D02*
G01*
X160706827Y-117068074D01*
X160702639Y-117063885D01*
X160706827Y-117059697D01*
X160711016Y-117063885D01*
G37*
G36*
X160342414Y-115162236D02*
G01*
X160338226Y-115166425D01*
X160334037Y-115162236D01*
X160338226Y-115158047D01*
X160342414Y-115162236D01*
G37*
G36*
X161138259Y-116619888D02*
G01*
X161134070Y-116624076D01*
X161129881Y-116619888D01*
X161134070Y-116615699D01*
X161138259Y-116619888D01*
G37*
G36*
X161054485Y-115715139D02*
G01*
X161050297Y-115719327D01*
X161046108Y-115715139D01*
X161050297Y-115710950D01*
X161054485Y-115715139D01*
G37*
G36*
X160350792Y-117122526D02*
G01*
X160346603Y-117126715D01*
X160342414Y-117122526D01*
X160346603Y-117118338D01*
X160350792Y-117122526D01*
G37*
G36*
X160937203Y-115522460D02*
G01*
X160933014Y-115526649D01*
X160928826Y-115522460D01*
X160933014Y-115518272D01*
X160937203Y-115522460D01*
G37*
G36*
X160250264Y-117130904D02*
G01*
X160246075Y-117135092D01*
X160241887Y-117130904D01*
X160246075Y-117126715D01*
X160250264Y-117130904D01*
G37*
G36*
X160535092Y-117164413D02*
G01*
X160530904Y-117168602D01*
X160526715Y-117164413D01*
X160530904Y-117160224D01*
X160535092Y-117164413D01*
G37*
G36*
X161087995Y-115757025D02*
G01*
X161083806Y-115761214D01*
X161079617Y-115757025D01*
X161083806Y-115752836D01*
X161087995Y-115757025D01*
G37*
G36*
X160367546Y-115271141D02*
G01*
X160363358Y-115275330D01*
X160359169Y-115271141D01*
X160363358Y-115266952D01*
X160367546Y-115271141D01*
G37*
G36*
X161096372Y-116762302D02*
G01*
X161092183Y-116766491D01*
X161087995Y-116762302D01*
X161092183Y-116758113D01*
X161096372Y-116762302D01*
G37*
G36*
X160367546Y-117089017D02*
G01*
X160363358Y-117093206D01*
X160359169Y-117089017D01*
X160363358Y-117084828D01*
X160367546Y-117089017D01*
G37*
G36*
X160769657Y-115363292D02*
G01*
X160765468Y-115367480D01*
X160761280Y-115363292D01*
X160765468Y-115359103D01*
X160769657Y-115363292D01*
G37*
G36*
X160300528Y-115287896D02*
G01*
X160296339Y-115292084D01*
X160292150Y-115287896D01*
X160296339Y-115283707D01*
X160300528Y-115287896D01*
G37*
G36*
X160711016Y-117105772D02*
G01*
X160706827Y-117109960D01*
X160702639Y-117105772D01*
X160706827Y-117101583D01*
X160711016Y-117105772D01*
G37*
G36*
X161163390Y-116276418D02*
G01*
X161159202Y-116280607D01*
X161155013Y-116276418D01*
X161159202Y-116272230D01*
X161163390Y-116276418D01*
G37*
G36*
X161238786Y-116318305D02*
G01*
X161234598Y-116322493D01*
X161230409Y-116318305D01*
X161234598Y-116314116D01*
X161238786Y-116318305D01*
G37*
G36*
X160543470Y-117139281D02*
G01*
X160539281Y-117143470D01*
X160535092Y-117139281D01*
X160539281Y-117135092D01*
X160543470Y-117139281D01*
G37*
G36*
X161096372Y-116720416D02*
G01*
X161092183Y-116724604D01*
X161087995Y-116720416D01*
X161092183Y-116716227D01*
X161096372Y-116720416D01*
G37*
G36*
X161054485Y-116578001D02*
G01*
X161050297Y-116582190D01*
X161046108Y-116578001D01*
X161050297Y-116573813D01*
X161054485Y-116578001D01*
G37*
G36*
X160778034Y-116980112D02*
G01*
X160773846Y-116984301D01*
X160769657Y-116980112D01*
X160773846Y-116975923D01*
X160778034Y-116980112D01*
G37*
G36*
X160367546Y-117197922D02*
G01*
X160363358Y-117202111D01*
X160359169Y-117197922D01*
X160363358Y-117193733D01*
X160367546Y-117197922D01*
G37*
G36*
X160459697Y-115304650D02*
G01*
X160455508Y-115308839D01*
X160451319Y-115304650D01*
X160455508Y-115300462D01*
X160459697Y-115304650D01*
G37*
G36*
X161171768Y-116226154D02*
G01*
X161167579Y-116230343D01*
X161163390Y-116226154D01*
X161167579Y-116221966D01*
X161171768Y-116226154D01*
G37*
G36*
X160451319Y-115178991D02*
G01*
X160447131Y-115183179D01*
X160442942Y-115178991D01*
X160447131Y-115174802D01*
X160451319Y-115178991D01*
G37*
G36*
X161238786Y-116016722D02*
G01*
X161234598Y-116020910D01*
X161230409Y-116016722D01*
X161234598Y-116012533D01*
X161238786Y-116016722D01*
G37*
G36*
X160903694Y-116963358D02*
G01*
X160899505Y-116967546D01*
X160895317Y-116963358D01*
X160899505Y-116959169D01*
X160903694Y-116963358D01*
G37*
G36*
X161155013Y-116368569D02*
G01*
X161150825Y-116372757D01*
X161146636Y-116368569D01*
X161150825Y-116364380D01*
X161155013Y-116368569D01*
G37*
G36*
X161205277Y-116393701D02*
G01*
X161201088Y-116397889D01*
X161196900Y-116393701D01*
X161201088Y-116389512D01*
X161205277Y-116393701D01*
G37*
G36*
X160384301Y-117114149D02*
G01*
X160380112Y-117118338D01*
X160375923Y-117114149D01*
X160380112Y-117109960D01*
X160384301Y-117114149D01*
G37*
G36*
X160576979Y-115254387D02*
G01*
X160572790Y-115258575D01*
X160568602Y-115254387D01*
X160572790Y-115250198D01*
X160576979Y-115254387D01*
G37*
G36*
X160476451Y-117147658D02*
G01*
X160472263Y-117151847D01*
X160468074Y-117147658D01*
X160472263Y-117143470D01*
X160476451Y-117147658D01*
G37*
G36*
X160434565Y-117164413D02*
G01*
X160430376Y-117168602D01*
X160426187Y-117164413D01*
X160430376Y-117160224D01*
X160434565Y-117164413D01*
G37*
G36*
X160836675Y-116837698D02*
G01*
X160832487Y-116841887D01*
X160828298Y-116837698D01*
X160832487Y-116833509D01*
X160836675Y-116837698D01*
G37*
G36*
X161129881Y-115999967D02*
G01*
X161125693Y-116004156D01*
X161121504Y-115999967D01*
X161125693Y-115995778D01*
X161129881Y-115999967D01*
G37*
G36*
X160627243Y-117097394D02*
G01*
X160623054Y-117101583D01*
X160618865Y-117097394D01*
X160623054Y-117093206D01*
X160627243Y-117097394D01*
G37*
G36*
X160970712Y-115673252D02*
G01*
X160966524Y-115677441D01*
X160962335Y-115673252D01*
X160966524Y-115669063D01*
X160970712Y-115673252D01*
G37*
G36*
X161020976Y-115681629D02*
G01*
X161016788Y-115685818D01*
X161012599Y-115681629D01*
X161016788Y-115677441D01*
X161020976Y-115681629D01*
G37*
G36*
X160669129Y-116971735D02*
G01*
X160664941Y-116975923D01*
X160660752Y-116971735D01*
X160664941Y-116967546D01*
X160669129Y-116971735D01*
G37*
G36*
X160250264Y-117156036D02*
G01*
X160246075Y-117160224D01*
X160241887Y-117156036D01*
X160246075Y-117151847D01*
X160250264Y-117156036D01*
G37*
G36*
X160962335Y-116670152D02*
G01*
X160958146Y-116674340D01*
X160953958Y-116670152D01*
X160958146Y-116665963D01*
X160962335Y-116670152D01*
G37*
G36*
X161087995Y-116268041D02*
G01*
X161083806Y-116272230D01*
X161079617Y-116268041D01*
X161083806Y-116263852D01*
X161087995Y-116268041D01*
G37*
G36*
X160434565Y-117114149D02*
G01*
X160430376Y-117118338D01*
X160426187Y-117114149D01*
X160430376Y-117109960D01*
X160434565Y-117114149D01*
G37*
G36*
X160752902Y-117030376D02*
G01*
X160748714Y-117034565D01*
X160744525Y-117030376D01*
X160748714Y-117026187D01*
X160752902Y-117030376D01*
G37*
G36*
X161121504Y-116686906D02*
G01*
X161117315Y-116691095D01*
X161113127Y-116686906D01*
X161117315Y-116682718D01*
X161121504Y-116686906D01*
G37*
G36*
X160752902Y-116980112D02*
G01*
X160748714Y-116984301D01*
X160744525Y-116980112D01*
X160748714Y-116975923D01*
X160752902Y-116980112D01*
G37*
G36*
X160727770Y-115346537D02*
G01*
X160723582Y-115350726D01*
X160719393Y-115346537D01*
X160723582Y-115342348D01*
X160727770Y-115346537D01*
G37*
G36*
X160903694Y-115690007D02*
G01*
X160899505Y-115694195D01*
X160895317Y-115690007D01*
X160899505Y-115685818D01*
X160903694Y-115690007D01*
G37*
G36*
X160476451Y-117063885D02*
G01*
X160472263Y-117068074D01*
X160468074Y-117063885D01*
X160472263Y-117059697D01*
X160476451Y-117063885D01*
G37*
G36*
X160442942Y-117139281D02*
G01*
X160438753Y-117143470D01*
X160434565Y-117139281D01*
X160438753Y-117135092D01*
X160442942Y-117139281D01*
G37*
G36*
X161054485Y-115673252D02*
G01*
X161050297Y-115677441D01*
X161046108Y-115673252D01*
X161050297Y-115669063D01*
X161054485Y-115673252D01*
G37*
G36*
X161196900Y-116343437D02*
G01*
X161192711Y-116347625D01*
X161188522Y-116343437D01*
X161192711Y-116339248D01*
X161196900Y-116343437D01*
G37*
G36*
X161129881Y-116251286D02*
G01*
X161125693Y-116255475D01*
X161121504Y-116251286D01*
X161125693Y-116247098D01*
X161129881Y-116251286D01*
G37*
G36*
X160367546Y-115304650D02*
G01*
X160363358Y-115308839D01*
X160359169Y-115304650D01*
X160363358Y-115300462D01*
X160367546Y-115304650D01*
G37*
G36*
X161046108Y-116728793D02*
G01*
X161041920Y-116732982D01*
X161037731Y-116728793D01*
X161041920Y-116724604D01*
X161046108Y-116728793D01*
G37*
G36*
X161046108Y-116510983D02*
G01*
X161041920Y-116515171D01*
X161037731Y-116510983D01*
X161041920Y-116506794D01*
X161046108Y-116510983D01*
G37*
G36*
X161180145Y-115983212D02*
G01*
X161175956Y-115987401D01*
X161171768Y-115983212D01*
X161175956Y-115979024D01*
X161180145Y-115983212D01*
G37*
G36*
X160995844Y-115681629D02*
G01*
X160991656Y-115685818D01*
X160987467Y-115681629D01*
X160991656Y-115677441D01*
X160995844Y-115681629D01*
G37*
G36*
X161138259Y-115773780D02*
G01*
X161134070Y-115777968D01*
X161129881Y-115773780D01*
X161134070Y-115769591D01*
X161138259Y-115773780D01*
G37*
G36*
X160434565Y-115195745D02*
G01*
X160430376Y-115199934D01*
X160426187Y-115195745D01*
X160430376Y-115191557D01*
X160434565Y-115195745D01*
G37*
G36*
X160702639Y-117038753D02*
G01*
X160698450Y-117042942D01*
X160694261Y-117038753D01*
X160698450Y-117034565D01*
X160702639Y-117038753D01*
G37*
G36*
X160920449Y-115514083D02*
G01*
X160916260Y-115518272D01*
X160912071Y-115514083D01*
X160916260Y-115509894D01*
X160920449Y-115514083D01*
G37*
G36*
X160409433Y-115329782D02*
G01*
X160405244Y-115333971D01*
X160401055Y-115329782D01*
X160405244Y-115325594D01*
X160409433Y-115329782D01*
G37*
G36*
X161029354Y-116753925D02*
G01*
X161025165Y-116758113D01*
X161020976Y-116753925D01*
X161025165Y-116749736D01*
X161029354Y-116753925D01*
G37*
G36*
X160518338Y-117181168D02*
G01*
X160514149Y-117185356D01*
X160509960Y-117181168D01*
X160514149Y-117176979D01*
X160518338Y-117181168D01*
G37*
G36*
X161037731Y-116829321D02*
G01*
X161033542Y-116833509D01*
X161029354Y-116829321D01*
X161033542Y-116825132D01*
X161037731Y-116829321D01*
G37*
G36*
X161155013Y-116544492D02*
G01*
X161150825Y-116548681D01*
X161146636Y-116544492D01*
X161150825Y-116540303D01*
X161155013Y-116544492D01*
G37*
G36*
X161146636Y-116418832D02*
G01*
X161142447Y-116423021D01*
X161138259Y-116418832D01*
X161142447Y-116414644D01*
X161146636Y-116418832D01*
G37*
G36*
X161071240Y-116779057D02*
G01*
X161067051Y-116783245D01*
X161062863Y-116779057D01*
X161067051Y-116774868D01*
X161071240Y-116779057D01*
G37*
G36*
X161230409Y-116343437D02*
G01*
X161226220Y-116347625D01*
X161222032Y-116343437D01*
X161226220Y-116339248D01*
X161230409Y-116343437D01*
G37*
G36*
X161180145Y-116410455D02*
G01*
X161175956Y-116414644D01*
X161171768Y-116410455D01*
X161175956Y-116406266D01*
X161180145Y-116410455D01*
G37*
G36*
X161096372Y-116016722D02*
G01*
X161092183Y-116020910D01*
X161087995Y-116016722D01*
X161092183Y-116012533D01*
X161096372Y-116016722D01*
G37*
G36*
X160895317Y-115555970D02*
G01*
X160891128Y-115560158D01*
X160886939Y-115555970D01*
X160891128Y-115551781D01*
X160895317Y-115555970D01*
G37*
G36*
X160744525Y-115413555D02*
G01*
X160740336Y-115417744D01*
X160736148Y-115413555D01*
X160740336Y-115409367D01*
X160744525Y-115413555D01*
G37*
G36*
X160225132Y-117105772D02*
G01*
X160220943Y-117109960D01*
X160216755Y-117105772D01*
X160220943Y-117101583D01*
X160225132Y-117105772D01*
G37*
G36*
X160803166Y-117038753D02*
G01*
X160798978Y-117042942D01*
X160794789Y-117038753D01*
X160798978Y-117034565D01*
X160803166Y-117038753D01*
G37*
G36*
X161004222Y-115505706D02*
G01*
X161000033Y-115509894D01*
X160995844Y-115505706D01*
X161000033Y-115501517D01*
X161004222Y-115505706D01*
G37*
G36*
X161213654Y-115882685D02*
G01*
X161209466Y-115886873D01*
X161205277Y-115882685D01*
X161209466Y-115878496D01*
X161213654Y-115882685D01*
G37*
G36*
X161104749Y-116184268D02*
G01*
X161100561Y-116188456D01*
X161096372Y-116184268D01*
X161100561Y-116180079D01*
X161104749Y-116184268D01*
G37*
G36*
X160551847Y-115262764D02*
G01*
X160547658Y-115266952D01*
X160543470Y-115262764D01*
X160547658Y-115258575D01*
X160551847Y-115262764D01*
G37*
G36*
X160618865Y-115430310D02*
G01*
X160614677Y-115434499D01*
X160610488Y-115430310D01*
X160614677Y-115426121D01*
X160618865Y-115430310D01*
G37*
G36*
X160576979Y-117047131D02*
G01*
X160572790Y-117051319D01*
X160568602Y-117047131D01*
X160572790Y-117042942D01*
X160576979Y-117047131D01*
G37*
G36*
X160912071Y-116887962D02*
G01*
X160907883Y-116892150D01*
X160903694Y-116887962D01*
X160907883Y-116883773D01*
X160912071Y-116887962D01*
G37*
G36*
X160275396Y-115237632D02*
G01*
X160271207Y-115241821D01*
X160267018Y-115237632D01*
X160271207Y-115233443D01*
X160275396Y-115237632D01*
G37*
G36*
X160627243Y-117055508D02*
G01*
X160623054Y-117059697D01*
X160618865Y-117055508D01*
X160623054Y-117051319D01*
X160627243Y-117055508D01*
G37*
G36*
X160803166Y-116871207D02*
G01*
X160798978Y-116875396D01*
X160794789Y-116871207D01*
X160798978Y-116867018D01*
X160803166Y-116871207D01*
G37*
G36*
X161121504Y-115899439D02*
G01*
X161117315Y-115903628D01*
X161113127Y-115899439D01*
X161117315Y-115895251D01*
X161121504Y-115899439D01*
G37*
G36*
X161205277Y-116418832D02*
G01*
X161201088Y-116423021D01*
X161196900Y-116418832D01*
X161201088Y-116414644D01*
X161205277Y-116418832D01*
G37*
G36*
X160484828Y-115313028D02*
G01*
X160480640Y-115317216D01*
X160476451Y-115313028D01*
X160480640Y-115308839D01*
X160484828Y-115313028D01*
G37*
G36*
X160945580Y-115664875D02*
G01*
X160941392Y-115669063D01*
X160937203Y-115664875D01*
X160941392Y-115660686D01*
X160945580Y-115664875D01*
G37*
G36*
X161205277Y-116527737D02*
G01*
X161201088Y-116531926D01*
X161196900Y-116527737D01*
X161201088Y-116523549D01*
X161205277Y-116527737D01*
G37*
G36*
X161096372Y-116108872D02*
G01*
X161092183Y-116113061D01*
X161087995Y-116108872D01*
X161092183Y-116104683D01*
X161096372Y-116108872D01*
G37*
G36*
X161121504Y-116460719D02*
G01*
X161117315Y-116464908D01*
X161113127Y-116460719D01*
X161117315Y-116456530D01*
X161121504Y-116460719D01*
G37*
G36*
X160861807Y-116946603D02*
G01*
X160857619Y-116950792D01*
X160853430Y-116946603D01*
X160857619Y-116942414D01*
X160861807Y-116946603D01*
G37*
G36*
X160962335Y-116879584D02*
G01*
X160958146Y-116883773D01*
X160953958Y-116879584D01*
X160958146Y-116875396D01*
X160962335Y-116879584D01*
G37*
G36*
X160953958Y-115690007D02*
G01*
X160949769Y-115694195D01*
X160945580Y-115690007D01*
X160949769Y-115685818D01*
X160953958Y-115690007D01*
G37*
G36*
X160995844Y-116820943D02*
G01*
X160991656Y-116825132D01*
X160987467Y-116820943D01*
X160991656Y-116816755D01*
X160995844Y-116820943D01*
G37*
G36*
X160794789Y-115430310D02*
G01*
X160790600Y-115434499D01*
X160786412Y-115430310D01*
X160790600Y-115426121D01*
X160794789Y-115430310D01*
G37*
G36*
X161062863Y-115983212D02*
G01*
X161058674Y-115987401D01*
X161054485Y-115983212D01*
X161058674Y-115979024D01*
X161062863Y-115983212D01*
G37*
G36*
X161020976Y-116779057D02*
G01*
X161016788Y-116783245D01*
X161012599Y-116779057D01*
X161016788Y-116774868D01*
X161020976Y-116779057D01*
G37*
G36*
X161180145Y-115849175D02*
G01*
X161175956Y-115853364D01*
X161171768Y-115849175D01*
X161175956Y-115844987D01*
X161180145Y-115849175D01*
G37*
G36*
X161020976Y-115857553D02*
G01*
X161016788Y-115861741D01*
X161012599Y-115857553D01*
X161016788Y-115853364D01*
X161020976Y-115857553D01*
G37*
G36*
X161071240Y-115731893D02*
G01*
X161067051Y-115736082D01*
X161062863Y-115731893D01*
X161067051Y-115727704D01*
X161071240Y-115731893D01*
G37*
G36*
X160861807Y-116896339D02*
G01*
X160857619Y-116900528D01*
X160853430Y-116896339D01*
X160857619Y-116892150D01*
X160861807Y-116896339D01*
G37*
G36*
X160635620Y-115329782D02*
G01*
X160631431Y-115333971D01*
X160627243Y-115329782D01*
X160631431Y-115325594D01*
X160635620Y-115329782D01*
G37*
G36*
X161004222Y-116862830D02*
G01*
X161000033Y-116867018D01*
X160995844Y-116862830D01*
X161000033Y-116858641D01*
X161004222Y-116862830D01*
G37*
G36*
X160375923Y-115162236D02*
G01*
X160371735Y-115166425D01*
X160367546Y-115162236D01*
X160371735Y-115158047D01*
X160375923Y-115162236D01*
G37*
G36*
X160794789Y-116929848D02*
G01*
X160790600Y-116934037D01*
X160786412Y-116929848D01*
X160790600Y-116925660D01*
X160794789Y-116929848D01*
G37*
G36*
X161054485Y-115958080D02*
G01*
X161050297Y-115962269D01*
X161046108Y-115958080D01*
X161050297Y-115953892D01*
X161054485Y-115958080D01*
G37*
G36*
X161180145Y-116092117D02*
G01*
X161175956Y-116096306D01*
X161171768Y-116092117D01*
X161175956Y-116087929D01*
X161180145Y-116092117D01*
G37*
G36*
X161012599Y-115656497D02*
G01*
X161008410Y-115660686D01*
X161004222Y-115656497D01*
X161008410Y-115652309D01*
X161012599Y-115656497D01*
G37*
G36*
X160409433Y-115262764D02*
G01*
X160405244Y-115266952D01*
X160401055Y-115262764D01*
X160405244Y-115258575D01*
X160409433Y-115262764D01*
G37*
G36*
X160325660Y-117156036D02*
G01*
X160321471Y-117160224D01*
X160317282Y-117156036D01*
X160321471Y-117151847D01*
X160325660Y-117156036D01*
G37*
G36*
X161071240Y-116066985D02*
G01*
X161067051Y-116071174D01*
X161062863Y-116066985D01*
X161067051Y-116062797D01*
X161071240Y-116066985D01*
G37*
G36*
X160652375Y-117105772D02*
G01*
X160648186Y-117109960D01*
X160643997Y-117105772D01*
X160648186Y-117101583D01*
X160652375Y-117105772D01*
G37*
G36*
X160308905Y-115321405D02*
G01*
X160304716Y-115325594D01*
X160300528Y-115321405D01*
X160304716Y-115317216D01*
X160308905Y-115321405D01*
G37*
G36*
X161138259Y-116050231D02*
G01*
X161134070Y-116054420D01*
X161129881Y-116050231D01*
X161134070Y-116046042D01*
X161138259Y-116050231D01*
G37*
G36*
X160518338Y-117072263D02*
G01*
X160514149Y-117076451D01*
X160509960Y-117072263D01*
X160514149Y-117068074D01*
X160518338Y-117072263D01*
G37*
G36*
X160995844Y-116770679D02*
G01*
X160991656Y-116774868D01*
X160987467Y-116770679D01*
X160991656Y-116766491D01*
X160995844Y-116770679D01*
G37*
G36*
X161247164Y-116293173D02*
G01*
X161242975Y-116297361D01*
X161238786Y-116293173D01*
X161242975Y-116288984D01*
X161247164Y-116293173D01*
G37*
G36*
X160350792Y-115296273D02*
G01*
X160346603Y-115300462D01*
X160342414Y-115296273D01*
X160346603Y-115292084D01*
X160350792Y-115296273D01*
G37*
G36*
X160468074Y-115329782D02*
G01*
X160463885Y-115333971D01*
X160459697Y-115329782D01*
X160463885Y-115325594D01*
X160468074Y-115329782D01*
G37*
G36*
X161163390Y-116569624D02*
G01*
X161159202Y-116573813D01*
X161155013Y-116569624D01*
X161159202Y-116565435D01*
X161163390Y-116569624D01*
G37*
G36*
X160576979Y-115287896D02*
G01*
X160572790Y-115292084D01*
X160568602Y-115287896D01*
X160572790Y-115283707D01*
X160576979Y-115287896D01*
G37*
G36*
X160744525Y-115363292D02*
G01*
X160740336Y-115367480D01*
X160736148Y-115363292D01*
X160740336Y-115359103D01*
X160744525Y-115363292D01*
G37*
G36*
X160761280Y-115388423D02*
G01*
X160757091Y-115392612D01*
X160752902Y-115388423D01*
X160757091Y-115384235D01*
X160761280Y-115388423D01*
G37*
G36*
X160409433Y-115195745D02*
G01*
X160405244Y-115199934D01*
X160401055Y-115195745D01*
X160405244Y-115191557D01*
X160409433Y-115195745D01*
G37*
G36*
X160736148Y-115388423D02*
G01*
X160731959Y-115392612D01*
X160727770Y-115388423D01*
X160731959Y-115384235D01*
X160736148Y-115388423D01*
G37*
G36*
X160953958Y-116904716D02*
G01*
X160949769Y-116908905D01*
X160945580Y-116904716D01*
X160949769Y-116900528D01*
X160953958Y-116904716D01*
G37*
G36*
X161146636Y-116661774D02*
G01*
X161142447Y-116665963D01*
X161138259Y-116661774D01*
X161142447Y-116657586D01*
X161146636Y-116661774D01*
G37*
G36*
X160451319Y-115346537D02*
G01*
X160447131Y-115350726D01*
X160442942Y-115346537D01*
X160447131Y-115342348D01*
X160451319Y-115346537D01*
G37*
G36*
X160409433Y-117231431D02*
G01*
X160405244Y-117235620D01*
X160401055Y-117231431D01*
X160405244Y-117227243D01*
X160409433Y-117231431D01*
G37*
G36*
X161046108Y-115874307D02*
G01*
X161041920Y-115878496D01*
X161037731Y-115874307D01*
X161041920Y-115870119D01*
X161046108Y-115874307D01*
G37*
G36*
X160442942Y-115287896D02*
G01*
X160438753Y-115292084D01*
X160434565Y-115287896D01*
X160438753Y-115283707D01*
X160442942Y-115287896D01*
G37*
G36*
X161012599Y-115748648D02*
G01*
X161008410Y-115752836D01*
X161004222Y-115748648D01*
X161008410Y-115744459D01*
X161012599Y-115748648D01*
G37*
G36*
X160845053Y-116921471D02*
G01*
X160840864Y-116925660D01*
X160836675Y-116921471D01*
X160840864Y-116917282D01*
X160845053Y-116921471D01*
G37*
G36*
X161029354Y-116536115D02*
G01*
X161025165Y-116540303D01*
X161020976Y-116536115D01*
X161025165Y-116531926D01*
X161029354Y-116536115D01*
G37*
G36*
X161071240Y-115690007D02*
G01*
X161067051Y-115694195D01*
X161062863Y-115690007D01*
X161067051Y-115685818D01*
X161071240Y-115690007D01*
G37*
G36*
X160886939Y-116779057D02*
G01*
X160882751Y-116783245D01*
X160878562Y-116779057D01*
X160882751Y-116774868D01*
X160886939Y-116779057D01*
G37*
G36*
X161121504Y-116712038D02*
G01*
X161117315Y-116716227D01*
X161113127Y-116712038D01*
X161117315Y-116707850D01*
X161121504Y-116712038D01*
G37*
G36*
X160325660Y-115237632D02*
G01*
X160321471Y-115241821D01*
X160317282Y-115237632D01*
X160321471Y-115233443D01*
X160325660Y-115237632D01*
G37*
G36*
X161188522Y-116435587D02*
G01*
X161184334Y-116439776D01*
X161180145Y-116435587D01*
X161184334Y-116431398D01*
X161188522Y-116435587D01*
G37*
G36*
X160417810Y-115170613D02*
G01*
X160413621Y-115174802D01*
X160409433Y-115170613D01*
X160413621Y-115166425D01*
X160417810Y-115170613D01*
G37*
G36*
X161171768Y-115958080D02*
G01*
X161167579Y-115962269D01*
X161163390Y-115958080D01*
X161167579Y-115953892D01*
X161171768Y-115958080D01*
G37*
G36*
X160308905Y-115262764D02*
G01*
X160304716Y-115266952D01*
X160300528Y-115262764D01*
X160304716Y-115258575D01*
X160308905Y-115262764D01*
G37*
G36*
X161196900Y-116309927D02*
G01*
X161192711Y-116314116D01*
X161188522Y-116309927D01*
X161192711Y-116305739D01*
X161196900Y-116309927D01*
G37*
G36*
X161222032Y-115949703D02*
G01*
X161217843Y-115953892D01*
X161213654Y-115949703D01*
X161217843Y-115945514D01*
X161222032Y-115949703D01*
G37*
G36*
X160283773Y-117231431D02*
G01*
X160279584Y-117235620D01*
X160275396Y-117231431D01*
X160279584Y-117227243D01*
X160283773Y-117231431D01*
G37*
G36*
X161155013Y-116393701D02*
G01*
X161150825Y-116397889D01*
X161146636Y-116393701D01*
X161150825Y-116389512D01*
X161155013Y-116393701D01*
G37*
G36*
X160250264Y-117206299D02*
G01*
X160246075Y-117210488D01*
X160241887Y-117206299D01*
X160246075Y-117202111D01*
X160250264Y-117206299D01*
G37*
G36*
X160769657Y-116904716D02*
G01*
X160765468Y-116908905D01*
X160761280Y-116904716D01*
X160765468Y-116900528D01*
X160769657Y-116904716D01*
G37*
G36*
X160962335Y-116720416D02*
G01*
X160958146Y-116724604D01*
X160953958Y-116720416D01*
X160958146Y-116716227D01*
X160962335Y-116720416D01*
G37*
G36*
X160585356Y-117114149D02*
G01*
X160581168Y-117118338D01*
X160576979Y-117114149D01*
X160581168Y-117109960D01*
X160585356Y-117114149D01*
G37*
G36*
X161113127Y-116092117D02*
G01*
X161108938Y-116096306D01*
X161104749Y-116092117D01*
X161108938Y-116087929D01*
X161113127Y-116092117D01*
G37*
G36*
X161230409Y-116041854D02*
G01*
X161226220Y-116046042D01*
X161222032Y-116041854D01*
X161226220Y-116037665D01*
X161230409Y-116041854D01*
G37*
G36*
X161138259Y-115949703D02*
G01*
X161134070Y-115953892D01*
X161129881Y-115949703D01*
X161134070Y-115945514D01*
X161138259Y-115949703D01*
G37*
G36*
X160819921Y-117013621D02*
G01*
X160815732Y-117017810D01*
X160811544Y-117013621D01*
X160815732Y-117009433D01*
X160819921Y-117013621D01*
G37*
G36*
X161104749Y-115656497D02*
G01*
X161100561Y-115660686D01*
X161096372Y-115656497D01*
X161100561Y-115652309D01*
X161104749Y-115656497D01*
G37*
G36*
X161113127Y-115840798D02*
G01*
X161108938Y-115844987D01*
X161104749Y-115840798D01*
X161108938Y-115836609D01*
X161113127Y-115840798D01*
G37*
G36*
X160979090Y-116728793D02*
G01*
X160974901Y-116732982D01*
X160970712Y-116728793D01*
X160974901Y-116724604D01*
X160979090Y-116728793D01*
G37*
G36*
X161004222Y-116745547D02*
G01*
X161000033Y-116749736D01*
X160995844Y-116745547D01*
X161000033Y-116741359D01*
X161004222Y-116745547D01*
G37*
G36*
X161046108Y-115631365D02*
G01*
X161041920Y-115635554D01*
X161037731Y-115631365D01*
X161041920Y-115627177D01*
X161046108Y-115631365D01*
G37*
G36*
X160660752Y-115262764D02*
G01*
X160656563Y-115266952D01*
X160652375Y-115262764D01*
X160656563Y-115258575D01*
X160660752Y-115262764D01*
G37*
G36*
X160325660Y-115279518D02*
G01*
X160321471Y-115283707D01*
X160317282Y-115279518D01*
X160321471Y-115275330D01*
X160325660Y-115279518D01*
G37*
G36*
X160602111Y-117047131D02*
G01*
X160597922Y-117051319D01*
X160593733Y-117047131D01*
X160597922Y-117042942D01*
X160602111Y-117047131D01*
G37*
G36*
X160484828Y-115354914D02*
G01*
X160480640Y-115359103D01*
X160476451Y-115354914D01*
X160480640Y-115350726D01*
X160484828Y-115354914D01*
G37*
G36*
X160434565Y-117223054D02*
G01*
X160430376Y-117227243D01*
X160426187Y-117223054D01*
X160430376Y-117218865D01*
X160434565Y-117223054D01*
G37*
G36*
X160468074Y-115371669D02*
G01*
X160463885Y-115375858D01*
X160459697Y-115371669D01*
X160463885Y-115367480D01*
X160468074Y-115371669D01*
G37*
G36*
X160334037Y-115329782D02*
G01*
X160329848Y-115333971D01*
X160325660Y-115329782D01*
X160329848Y-115325594D01*
X160334037Y-115329782D01*
G37*
G36*
X160769657Y-116929848D02*
G01*
X160765468Y-116934037D01*
X160761280Y-116929848D01*
X160765468Y-116925660D01*
X160769657Y-116929848D01*
G37*
G36*
X160334037Y-115187368D02*
G01*
X160329848Y-115191557D01*
X160325660Y-115187368D01*
X160329848Y-115183179D01*
X160334037Y-115187368D01*
G37*
G36*
X160509960Y-115313028D02*
G01*
X160505772Y-115317216D01*
X160501583Y-115313028D01*
X160505772Y-115308839D01*
X160509960Y-115313028D01*
G37*
G36*
X160744525Y-116954980D02*
G01*
X160740336Y-116959169D01*
X160736148Y-116954980D01*
X160740336Y-116950792D01*
X160744525Y-116954980D01*
G37*
G36*
X160769657Y-115338160D02*
G01*
X160765468Y-115342348D01*
X160761280Y-115338160D01*
X160765468Y-115333971D01*
X160769657Y-115338160D01*
G37*
G36*
X160937203Y-115547592D02*
G01*
X160933014Y-115551781D01*
X160928826Y-115547592D01*
X160933014Y-115543404D01*
X160937203Y-115547592D01*
G37*
G36*
X161129881Y-115857553D02*
G01*
X161125693Y-115861741D01*
X161121504Y-115857553D01*
X161125693Y-115853364D01*
X161129881Y-115857553D01*
G37*
G36*
X160593733Y-115271141D02*
G01*
X160589545Y-115275330D01*
X160585356Y-115271141D01*
X160589545Y-115266952D01*
X160593733Y-115271141D01*
G37*
G36*
X160786412Y-115455442D02*
G01*
X160782223Y-115459631D01*
X160778034Y-115455442D01*
X160782223Y-115451253D01*
X160786412Y-115455442D01*
G37*
G36*
X160635620Y-115279518D02*
G01*
X160631431Y-115283707D01*
X160627243Y-115279518D01*
X160631431Y-115275330D01*
X160635620Y-115279518D01*
G37*
G36*
X161054485Y-115924571D02*
G01*
X161050297Y-115928760D01*
X161046108Y-115924571D01*
X161050297Y-115920383D01*
X161054485Y-115924571D01*
G37*
G36*
X160878562Y-115572724D02*
G01*
X160874373Y-115576913D01*
X160870185Y-115572724D01*
X160874373Y-115568536D01*
X160878562Y-115572724D01*
G37*
G36*
X160551847Y-115287896D02*
G01*
X160547658Y-115292084D01*
X160543470Y-115287896D01*
X160547658Y-115283707D01*
X160551847Y-115287896D01*
G37*
G36*
X161012599Y-116636642D02*
G01*
X161008410Y-116640831D01*
X161004222Y-116636642D01*
X161008410Y-116632454D01*
X161012599Y-116636642D01*
G37*
G36*
X160568602Y-117130904D02*
G01*
X160564413Y-117135092D01*
X160560224Y-117130904D01*
X160564413Y-117126715D01*
X160568602Y-117130904D01*
G37*
G36*
X161163390Y-115815666D02*
G01*
X161159202Y-115819855D01*
X161155013Y-115815666D01*
X161159202Y-115811478D01*
X161163390Y-115815666D01*
G37*
G36*
X160937203Y-116720416D02*
G01*
X160933014Y-116724604D01*
X160928826Y-116720416D01*
X160933014Y-116716227D01*
X160937203Y-116720416D01*
G37*
G36*
X160828298Y-115463819D02*
G01*
X160824109Y-115468008D01*
X160819921Y-115463819D01*
X160824109Y-115459631D01*
X160828298Y-115463819D01*
G37*
G36*
X160920449Y-115438687D02*
G01*
X160916260Y-115442876D01*
X160912071Y-115438687D01*
X160916260Y-115434499D01*
X160920449Y-115438687D01*
G37*
G36*
X160878562Y-115656497D02*
G01*
X160874373Y-115660686D01*
X160870185Y-115656497D01*
X160874373Y-115652309D01*
X160878562Y-115656497D01*
G37*
G36*
X161146636Y-116184268D02*
G01*
X161142447Y-116188456D01*
X161138259Y-116184268D01*
X161142447Y-116180079D01*
X161146636Y-116184268D01*
G37*
G36*
X160627243Y-115363292D02*
G01*
X160623054Y-115367480D01*
X160618865Y-115363292D01*
X160623054Y-115359103D01*
X160627243Y-115363292D01*
G37*
G36*
X160602111Y-115246009D02*
G01*
X160597922Y-115250198D01*
X160593733Y-115246009D01*
X160597922Y-115241821D01*
X160602111Y-115246009D01*
G37*
G36*
X160677507Y-116996867D02*
G01*
X160673318Y-117001055D01*
X160669129Y-116996867D01*
X160673318Y-116992678D01*
X160677507Y-116996867D01*
G37*
G36*
X161054485Y-116804189D02*
G01*
X161050297Y-116808377D01*
X161046108Y-116804189D01*
X161050297Y-116800000D01*
X161054485Y-116804189D01*
G37*
G36*
X160878562Y-115530838D02*
G01*
X160874373Y-115535026D01*
X160870185Y-115530838D01*
X160874373Y-115526649D01*
X160878562Y-115530838D01*
G37*
G36*
X160392678Y-117214677D02*
G01*
X160388489Y-117218865D01*
X160384301Y-117214677D01*
X160388489Y-117210488D01*
X160392678Y-117214677D01*
G37*
G36*
X161046108Y-116552869D02*
G01*
X161041920Y-116557058D01*
X161037731Y-116552869D01*
X161041920Y-116548681D01*
X161046108Y-116552869D01*
G37*
G36*
X160526715Y-115262764D02*
G01*
X160522526Y-115266952D01*
X160518338Y-115262764D01*
X160522526Y-115258575D01*
X160526715Y-115262764D01*
G37*
G36*
X160417810Y-117206299D02*
G01*
X160413621Y-117210488D01*
X160409433Y-117206299D01*
X160413621Y-117202111D01*
X160417810Y-117206299D01*
G37*
G36*
X160233509Y-117248186D02*
G01*
X160229321Y-117252375D01*
X160225132Y-117248186D01*
X160229321Y-117243997D01*
X160233509Y-117248186D01*
G37*
G36*
X160786412Y-115497328D02*
G01*
X160782223Y-115501517D01*
X160778034Y-115497328D01*
X160782223Y-115493140D01*
X160786412Y-115497328D01*
G37*
G36*
X161146636Y-116318305D02*
G01*
X161142447Y-116322493D01*
X161138259Y-116318305D01*
X161142447Y-116314116D01*
X161146636Y-116318305D01*
G37*
G36*
X161121504Y-116485851D02*
G01*
X161117315Y-116490040D01*
X161113127Y-116485851D01*
X161117315Y-116481662D01*
X161121504Y-116485851D01*
G37*
G36*
X160744525Y-115329782D02*
G01*
X160740336Y-115333971D01*
X160736148Y-115329782D01*
X160740336Y-115325594D01*
X160744525Y-115329782D01*
G37*
G36*
X161138259Y-116209400D02*
G01*
X161134070Y-116213588D01*
X161129881Y-116209400D01*
X161134070Y-116205211D01*
X161138259Y-116209400D01*
G37*
G36*
X160543470Y-117189545D02*
G01*
X160539281Y-117193733D01*
X160535092Y-117189545D01*
X160539281Y-117185356D01*
X160543470Y-117189545D01*
G37*
G36*
X160459697Y-117122526D02*
G01*
X160455508Y-117126715D01*
X160451319Y-117122526D01*
X160455508Y-117118338D01*
X160459697Y-117122526D01*
G37*
G36*
X160225132Y-115178991D02*
G01*
X160220943Y-115183179D01*
X160216755Y-115178991D01*
X160220943Y-115174802D01*
X160225132Y-115178991D01*
G37*
G36*
X160635620Y-117013621D02*
G01*
X160631431Y-117017810D01*
X160627243Y-117013621D01*
X160631431Y-117009433D01*
X160635620Y-117013621D01*
G37*
G36*
X161096372Y-116485851D02*
G01*
X161092183Y-116490040D01*
X161087995Y-116485851D01*
X161092183Y-116481662D01*
X161096372Y-116485851D01*
G37*
G36*
X160702639Y-116954980D02*
G01*
X160698450Y-116959169D01*
X160694261Y-116954980D01*
X160698450Y-116950792D01*
X160702639Y-116954980D01*
G37*
G36*
X161096372Y-116670152D02*
G01*
X161092183Y-116674340D01*
X161087995Y-116670152D01*
X161092183Y-116665963D01*
X161096372Y-116670152D01*
G37*
G36*
X160870185Y-116871207D02*
G01*
X160865996Y-116875396D01*
X160861807Y-116871207D01*
X160865996Y-116867018D01*
X160870185Y-116871207D01*
G37*
G36*
X160937203Y-115614611D02*
G01*
X160933014Y-115618799D01*
X160928826Y-115614611D01*
X160933014Y-115610422D01*
X160937203Y-115614611D01*
G37*
G36*
X160752902Y-117089017D02*
G01*
X160748714Y-117093206D01*
X160744525Y-117089017D01*
X160748714Y-117084828D01*
X160752902Y-117089017D01*
G37*
G36*
X160912071Y-116854452D02*
G01*
X160907883Y-116858641D01*
X160903694Y-116854452D01*
X160907883Y-116850264D01*
X160912071Y-116854452D01*
G37*
G36*
X161138259Y-115748648D02*
G01*
X161134070Y-115752836D01*
X161129881Y-115748648D01*
X161134070Y-115744459D01*
X161138259Y-115748648D01*
G37*
G36*
X160535092Y-115237632D02*
G01*
X160530904Y-115241821D01*
X160526715Y-115237632D01*
X160530904Y-115233443D01*
X160535092Y-115237632D01*
G37*
G36*
X161205277Y-116460719D02*
G01*
X161201088Y-116464908D01*
X161196900Y-116460719D01*
X161201088Y-116456530D01*
X161205277Y-116460719D01*
G37*
G36*
X160426187Y-115220877D02*
G01*
X160421999Y-115225066D01*
X160417810Y-115220877D01*
X160421999Y-115216689D01*
X160426187Y-115220877D01*
G37*
G36*
X161196900Y-116050231D02*
G01*
X161192711Y-116054420D01*
X161188522Y-116050231D01*
X161192711Y-116046042D01*
X161196900Y-116050231D01*
G37*
G36*
X161012599Y-116661774D02*
G01*
X161008410Y-116665963D01*
X161004222Y-116661774D01*
X161008410Y-116657586D01*
X161012599Y-116661774D01*
G37*
G36*
X161046108Y-116703661D02*
G01*
X161041920Y-116707850D01*
X161037731Y-116703661D01*
X161041920Y-116699472D01*
X161046108Y-116703661D01*
G37*
G36*
X160509960Y-115212500D02*
G01*
X160505772Y-115216689D01*
X160501583Y-115212500D01*
X160505772Y-115208311D01*
X160509960Y-115212500D01*
G37*
G36*
X160769657Y-116954980D02*
G01*
X160765468Y-116959169D01*
X160761280Y-116954980D01*
X160765468Y-116950792D01*
X160769657Y-116954980D01*
G37*
G36*
X161121504Y-116603133D02*
G01*
X161117315Y-116607322D01*
X161113127Y-116603133D01*
X161117315Y-116598945D01*
X161121504Y-116603133D01*
G37*
G36*
X161029354Y-115924571D02*
G01*
X161025165Y-115928760D01*
X161020976Y-115924571D01*
X161025165Y-115920383D01*
X161029354Y-115924571D01*
G37*
G36*
X161113127Y-116318305D02*
G01*
X161108938Y-116322493D01*
X161104749Y-116318305D01*
X161108938Y-116314116D01*
X161113127Y-116318305D01*
G37*
G36*
X161129881Y-116142381D02*
G01*
X161125693Y-116146570D01*
X161121504Y-116142381D01*
X161125693Y-116138193D01*
X161129881Y-116142381D01*
G37*
G36*
X160660752Y-117063885D02*
G01*
X160656563Y-117068074D01*
X160652375Y-117063885D01*
X160656563Y-117059697D01*
X160660752Y-117063885D01*
G37*
G36*
X160292150Y-115212500D02*
G01*
X160287962Y-115216689D01*
X160283773Y-115212500D01*
X160287962Y-115208311D01*
X160292150Y-115212500D01*
G37*
G36*
X161230409Y-116092117D02*
G01*
X161226220Y-116096306D01*
X161222032Y-116092117D01*
X161226220Y-116087929D01*
X161230409Y-116092117D01*
G37*
G36*
X161121504Y-116343437D02*
G01*
X161117315Y-116347625D01*
X161113127Y-116343437D01*
X161117315Y-116339248D01*
X161121504Y-116343437D01*
G37*
G36*
X160870185Y-116804189D02*
G01*
X160865996Y-116808377D01*
X160861807Y-116804189D01*
X160865996Y-116800000D01*
X160870185Y-116804189D01*
G37*
G36*
X160828298Y-115581102D02*
G01*
X160824109Y-115585290D01*
X160819921Y-115581102D01*
X160824109Y-115576913D01*
X160828298Y-115581102D01*
G37*
G36*
X160878562Y-116963358D02*
G01*
X160874373Y-116967546D01*
X160870185Y-116963358D01*
X160874373Y-116959169D01*
X160878562Y-116963358D01*
G37*
G36*
X161188522Y-116569624D02*
G01*
X161184334Y-116573813D01*
X161180145Y-116569624D01*
X161184334Y-116565435D01*
X161188522Y-116569624D01*
G37*
G36*
X160543470Y-115405178D02*
G01*
X160539281Y-115409367D01*
X160535092Y-115405178D01*
X160539281Y-115400989D01*
X160543470Y-115405178D01*
G37*
G36*
X160283773Y-115304650D02*
G01*
X160279584Y-115308839D01*
X160275396Y-115304650D01*
X160279584Y-115300462D01*
X160283773Y-115304650D01*
G37*
G36*
X161046108Y-116779057D02*
G01*
X161041920Y-116783245D01*
X161037731Y-116779057D01*
X161041920Y-116774868D01*
X161046108Y-116779057D01*
G37*
G36*
X160300528Y-115237632D02*
G01*
X160296339Y-115241821D01*
X160292150Y-115237632D01*
X160296339Y-115233443D01*
X160300528Y-115237632D01*
G37*
G36*
X161096372Y-116603133D02*
G01*
X161092183Y-116607322D01*
X161087995Y-116603133D01*
X161092183Y-116598945D01*
X161096372Y-116603133D01*
G37*
G36*
X161205277Y-115907817D02*
G01*
X161201088Y-115912005D01*
X161196900Y-115907817D01*
X161201088Y-115903628D01*
X161205277Y-115907817D01*
G37*
G36*
X161180145Y-116360191D02*
G01*
X161175956Y-116364380D01*
X161171768Y-116360191D01*
X161175956Y-116356003D01*
X161180145Y-116360191D01*
G37*
G36*
X160342414Y-117181168D02*
G01*
X160338226Y-117185356D01*
X160334037Y-117181168D01*
X160338226Y-117176979D01*
X160342414Y-117181168D01*
G37*
G36*
X161163390Y-115782157D02*
G01*
X161159202Y-115786346D01*
X161155013Y-115782157D01*
X161159202Y-115777968D01*
X161163390Y-115782157D01*
G37*
G36*
X160359169Y-115329782D02*
G01*
X160354980Y-115333971D01*
X160350792Y-115329782D01*
X160354980Y-115325594D01*
X160359169Y-115329782D01*
G37*
G36*
X160870185Y-115480574D02*
G01*
X160865996Y-115484763D01*
X160861807Y-115480574D01*
X160865996Y-115476385D01*
X160870185Y-115480574D01*
G37*
G36*
X161129881Y-116527737D02*
G01*
X161125693Y-116531926D01*
X161121504Y-116527737D01*
X161125693Y-116523549D01*
X161129881Y-116527737D01*
G37*
G36*
X160610488Y-115287896D02*
G01*
X160606299Y-115292084D01*
X160602111Y-115287896D01*
X160606299Y-115283707D01*
X160610488Y-115287896D01*
G37*
G36*
X160886939Y-116820943D02*
G01*
X160882751Y-116825132D01*
X160878562Y-116820943D01*
X160882751Y-116816755D01*
X160886939Y-116820943D01*
G37*
G36*
X160342414Y-117097394D02*
G01*
X160338226Y-117101583D01*
X160334037Y-117097394D01*
X160338226Y-117093206D01*
X160342414Y-117097394D01*
G37*
G36*
X161054485Y-115765402D02*
G01*
X161050297Y-115769591D01*
X161046108Y-115765402D01*
X161050297Y-115761214D01*
X161054485Y-115765402D01*
G37*
G36*
X161113127Y-115874307D02*
G01*
X161108938Y-115878496D01*
X161104749Y-115874307D01*
X161108938Y-115870119D01*
X161113127Y-115874307D01*
G37*
G36*
X160292150Y-117181168D02*
G01*
X160287962Y-117185356D01*
X160283773Y-117181168D01*
X160287962Y-117176979D01*
X160292150Y-117181168D01*
G37*
G36*
X160275396Y-117105772D02*
G01*
X160271207Y-117109960D01*
X160267018Y-117105772D01*
X160271207Y-117101583D01*
X160275396Y-117105772D01*
G37*
G36*
X161188522Y-116519360D02*
G01*
X161184334Y-116523549D01*
X161180145Y-116519360D01*
X161184334Y-116515171D01*
X161188522Y-116519360D01*
G37*
G36*
X160225132Y-117130904D02*
G01*
X160220943Y-117135092D01*
X160216755Y-117130904D01*
X160220943Y-117126715D01*
X160225132Y-117130904D01*
G37*
G36*
X161096372Y-116569624D02*
G01*
X161092183Y-116573813D01*
X161087995Y-116569624D01*
X161092183Y-116565435D01*
X161096372Y-116569624D01*
G37*
G36*
X160660752Y-115421933D02*
G01*
X160656563Y-115426121D01*
X160652375Y-115421933D01*
X160656563Y-115417744D01*
X160660752Y-115421933D01*
G37*
G36*
X160526715Y-115195745D02*
G01*
X160522526Y-115199934D01*
X160518338Y-115195745D01*
X160522526Y-115191557D01*
X160526715Y-115195745D01*
G37*
G36*
X161188522Y-116209400D02*
G01*
X161184334Y-116213588D01*
X161180145Y-116209400D01*
X161184334Y-116205211D01*
X161188522Y-116209400D01*
G37*
G36*
X161087995Y-116628265D02*
G01*
X161083806Y-116632454D01*
X161079617Y-116628265D01*
X161083806Y-116624076D01*
X161087995Y-116628265D01*
G37*
G36*
X161138259Y-116502606D02*
G01*
X161134070Y-116506794D01*
X161129881Y-116502606D01*
X161134070Y-116498417D01*
X161138259Y-116502606D01*
G37*
G36*
X160744525Y-115438687D02*
G01*
X160740336Y-115442876D01*
X160736148Y-115438687D01*
X160740336Y-115434499D01*
X160744525Y-115438687D01*
G37*
G36*
X160241887Y-115321405D02*
G01*
X160237698Y-115325594D01*
X160233509Y-115321405D01*
X160237698Y-115317216D01*
X160241887Y-115321405D01*
G37*
G36*
X161155013Y-115966458D02*
G01*
X161150825Y-115970646D01*
X161146636Y-115966458D01*
X161150825Y-115962269D01*
X161155013Y-115966458D01*
G37*
G36*
X160501583Y-115388423D02*
G01*
X160497394Y-115392612D01*
X160493206Y-115388423D01*
X160497394Y-115384235D01*
X160501583Y-115388423D01*
G37*
G36*
X160861807Y-116829321D02*
G01*
X160857619Y-116833509D01*
X160853430Y-116829321D01*
X160857619Y-116825132D01*
X160861807Y-116829321D01*
G37*
G36*
X160325660Y-115304650D02*
G01*
X160321471Y-115308839D01*
X160317282Y-115304650D01*
X160321471Y-115300462D01*
X160325660Y-115304650D01*
G37*
G36*
X160953958Y-115564347D02*
G01*
X160949769Y-115568536D01*
X160945580Y-115564347D01*
X160949769Y-115560158D01*
X160953958Y-115564347D01*
G37*
G36*
X161087995Y-116519360D02*
G01*
X161083806Y-116523549D01*
X161079617Y-116519360D01*
X161083806Y-116515171D01*
X161087995Y-116519360D01*
G37*
G36*
X160685884Y-115430310D02*
G01*
X160681695Y-115434499D01*
X160677507Y-115430310D01*
X160681695Y-115426121D01*
X160685884Y-115430310D01*
G37*
G36*
X160509960Y-115237632D02*
G01*
X160505772Y-115241821D01*
X160501583Y-115237632D01*
X160505772Y-115233443D01*
X160509960Y-115237632D01*
G37*
G36*
X160979090Y-115631365D02*
G01*
X160974901Y-115635554D01*
X160970712Y-115631365D01*
X160974901Y-115627177D01*
X160979090Y-115631365D01*
G37*
G36*
X160417810Y-115304650D02*
G01*
X160413621Y-115308839D01*
X160409433Y-115304650D01*
X160413621Y-115300462D01*
X160417810Y-115304650D01*
G37*
G36*
X161146636Y-115798912D02*
G01*
X161142447Y-115803100D01*
X161138259Y-115798912D01*
X161142447Y-115794723D01*
X161146636Y-115798912D01*
G37*
G36*
X161188522Y-116268041D02*
G01*
X161184334Y-116272230D01*
X161180145Y-116268041D01*
X161184334Y-116263852D01*
X161188522Y-116268041D01*
G37*
G36*
X160392678Y-117139281D02*
G01*
X160388489Y-117143470D01*
X160384301Y-117139281D01*
X160388489Y-117135092D01*
X160392678Y-117139281D01*
G37*
G36*
X160979090Y-115547592D02*
G01*
X160974901Y-115551781D01*
X160970712Y-115547592D01*
X160974901Y-115543404D01*
X160979090Y-115547592D01*
G37*
G36*
X161146636Y-116343437D02*
G01*
X161142447Y-116347625D01*
X161138259Y-116343437D01*
X161142447Y-116339248D01*
X161146636Y-116343437D01*
G37*
G36*
X160912071Y-115622988D02*
G01*
X160907883Y-115627177D01*
X160903694Y-115622988D01*
X160907883Y-115618799D01*
X160912071Y-115622988D01*
G37*
G36*
X161071240Y-116393701D02*
G01*
X161067051Y-116397889D01*
X161062863Y-116393701D01*
X161067051Y-116389512D01*
X161071240Y-116393701D01*
G37*
G36*
X160987467Y-116661774D02*
G01*
X160983278Y-116665963D01*
X160979090Y-116661774D01*
X160983278Y-116657586D01*
X160987467Y-116661774D01*
G37*
G36*
X161079617Y-116351814D02*
G01*
X161075429Y-116356003D01*
X161071240Y-116351814D01*
X161075429Y-116347625D01*
X161079617Y-116351814D01*
G37*
G36*
X161110671Y-118269323D02*
G01*
X161141620Y-118284222D01*
X161144074Y-118286229D01*
X161154169Y-118295604D01*
X161160974Y-118305415D01*
X161165265Y-118319120D01*
X161167819Y-118340176D01*
X161169411Y-118372042D01*
X161170394Y-118403511D01*
X161173210Y-118500594D01*
X160977281Y-118500594D01*
X160980365Y-118403456D01*
X160981866Y-118361668D01*
X160983740Y-118333173D01*
X160986769Y-118314513D01*
X160991735Y-118302231D01*
X160999418Y-118292871D01*
X161006868Y-118286174D01*
X161036837Y-118270297D01*
X161073591Y-118264681D01*
X161110671Y-118269323D01*
G37*
G36*
X160317282Y-115212500D02*
G01*
X160313094Y-115216689D01*
X160308905Y-115212500D01*
X160313094Y-115208311D01*
X160317282Y-115212500D01*
G37*
G36*
X161180145Y-116385323D02*
G01*
X161175956Y-116389512D01*
X161171768Y-116385323D01*
X161175956Y-116381135D01*
X161180145Y-116385323D01*
G37*
G36*
X160233509Y-115254387D02*
G01*
X160229321Y-115258575D01*
X160225132Y-115254387D01*
X160229321Y-115250198D01*
X160233509Y-115254387D01*
G37*
G36*
X161087995Y-116301550D02*
G01*
X161083806Y-116305739D01*
X161079617Y-116301550D01*
X161083806Y-116297361D01*
X161087995Y-116301550D01*
G37*
G36*
X161096372Y-115681629D02*
G01*
X161092183Y-115685818D01*
X161087995Y-115681629D01*
X161092183Y-115677441D01*
X161096372Y-115681629D01*
G37*
G36*
X161071240Y-115891062D02*
G01*
X161067051Y-115895251D01*
X161062863Y-115891062D01*
X161067051Y-115886873D01*
X161071240Y-115891062D01*
G37*
G36*
X160643997Y-117038753D02*
G01*
X160639809Y-117042942D01*
X160635620Y-117038753D01*
X160639809Y-117034565D01*
X160643997Y-117038753D01*
G37*
G36*
X161129881Y-115974835D02*
G01*
X161125693Y-115979024D01*
X161121504Y-115974835D01*
X161125693Y-115970646D01*
X161129881Y-115974835D01*
G37*
G36*
X160953958Y-115639743D02*
G01*
X160949769Y-115643931D01*
X160945580Y-115639743D01*
X160949769Y-115635554D01*
X160953958Y-115639743D01*
G37*
G36*
X161113127Y-116628265D02*
G01*
X161108938Y-116632454D01*
X161104749Y-116628265D01*
X161108938Y-116624076D01*
X161113127Y-116628265D01*
G37*
G36*
X160685884Y-117063885D02*
G01*
X160681695Y-117068074D01*
X160677507Y-117063885D01*
X160681695Y-117059697D01*
X160685884Y-117063885D01*
G37*
G36*
X161121504Y-116066985D02*
G01*
X161117315Y-116071174D01*
X161113127Y-116066985D01*
X161117315Y-116062797D01*
X161121504Y-116066985D01*
G37*
G36*
X160945580Y-115589479D02*
G01*
X160941392Y-115593668D01*
X160937203Y-115589479D01*
X160941392Y-115585290D01*
X160945580Y-115589479D01*
G37*
G36*
X161188522Y-116485851D02*
G01*
X161184334Y-116490040D01*
X161180145Y-116485851D01*
X161184334Y-116481662D01*
X161188522Y-116485851D01*
G37*
G36*
X160526715Y-117122526D02*
G01*
X160522526Y-117126715D01*
X160518338Y-117122526D01*
X160522526Y-117118338D01*
X160526715Y-117122526D01*
G37*
G36*
X161213654Y-116066985D02*
G01*
X161209466Y-116071174D01*
X161205277Y-116066985D01*
X161209466Y-116062797D01*
X161213654Y-116066985D01*
G37*
G36*
X160241887Y-115279518D02*
G01*
X160237698Y-115283707D01*
X160233509Y-115279518D01*
X160237698Y-115275330D01*
X160241887Y-115279518D01*
G37*
G36*
X160602111Y-115371669D02*
G01*
X160597922Y-115375858D01*
X160593733Y-115371669D01*
X160597922Y-115367480D01*
X160602111Y-115371669D01*
G37*
G36*
X161079617Y-116753925D02*
G01*
X161075429Y-116758113D01*
X161071240Y-116753925D01*
X161075429Y-116749736D01*
X161079617Y-116753925D01*
G37*
G36*
X160535092Y-115313028D02*
G01*
X160530904Y-115317216D01*
X160526715Y-115313028D01*
X160530904Y-115308839D01*
X160535092Y-115313028D01*
G37*
G36*
X160501583Y-117105772D02*
G01*
X160497394Y-117109960D01*
X160493206Y-117105772D01*
X160497394Y-117101583D01*
X160501583Y-117105772D01*
G37*
G36*
X160861807Y-115547592D02*
G01*
X160857619Y-115551781D01*
X160853430Y-115547592D01*
X160857619Y-115543404D01*
X160861807Y-115547592D01*
G37*
G36*
X161020976Y-115631365D02*
G01*
X161016788Y-115635554D01*
X161012599Y-115631365D01*
X161016788Y-115627177D01*
X161020976Y-115631365D01*
G37*
G36*
X160970712Y-115589479D02*
G01*
X160966524Y-115593668D01*
X160962335Y-115589479D01*
X160966524Y-115585290D01*
X160970712Y-115589479D01*
G37*
G36*
X160442942Y-115321405D02*
G01*
X160438753Y-115325594D01*
X160434565Y-115321405D01*
X160438753Y-115317216D01*
X160442942Y-115321405D01*
G37*
G36*
X160241887Y-117181168D02*
G01*
X160237698Y-117185356D01*
X160233509Y-117181168D01*
X160237698Y-117176979D01*
X160241887Y-117181168D01*
G37*
G36*
X161029354Y-116854452D02*
G01*
X161025165Y-116858641D01*
X161020976Y-116854452D01*
X161025165Y-116850264D01*
X161029354Y-116854452D01*
G37*
G36*
X161121504Y-116427210D02*
G01*
X161117315Y-116431398D01*
X161113127Y-116427210D01*
X161117315Y-116423021D01*
X161121504Y-116427210D01*
G37*
G36*
X160409433Y-115237632D02*
G01*
X160405244Y-115241821D01*
X160401055Y-115237632D01*
X160405244Y-115233443D01*
X160409433Y-115237632D01*
G37*
G36*
X160585356Y-117072263D02*
G01*
X160581168Y-117076451D01*
X160576979Y-117072263D01*
X160581168Y-117068074D01*
X160585356Y-117072263D01*
G37*
G36*
X161079617Y-115966458D02*
G01*
X161075429Y-115970646D01*
X161071240Y-115966458D01*
X161075429Y-115962269D01*
X161079617Y-115966458D01*
G37*
G36*
X160342414Y-115220877D02*
G01*
X160338226Y-115225066D01*
X160334037Y-115220877D01*
X160338226Y-115216689D01*
X160342414Y-115220877D01*
G37*
G36*
X160819921Y-117063885D02*
G01*
X160815732Y-117068074D01*
X160811544Y-117063885D01*
X160815732Y-117059697D01*
X160819921Y-117063885D01*
G37*
G36*
X160409433Y-117105772D02*
G01*
X160405244Y-117109960D01*
X160401055Y-117105772D01*
X160405244Y-117101583D01*
X160409433Y-117105772D01*
G37*
G36*
X160484828Y-117214677D02*
G01*
X160480640Y-117218865D01*
X160476451Y-117214677D01*
X160480640Y-117210488D01*
X160484828Y-117214677D01*
G37*
G36*
X160995844Y-116611511D02*
G01*
X160991656Y-116615699D01*
X160987467Y-116611511D01*
X160991656Y-116607322D01*
X160995844Y-116611511D01*
G37*
G36*
X160836675Y-115380046D02*
G01*
X160832487Y-115384235D01*
X160828298Y-115380046D01*
X160832487Y-115375858D01*
X160836675Y-115380046D01*
G37*
G36*
X160953958Y-116812566D02*
G01*
X160949769Y-116816755D01*
X160945580Y-116812566D01*
X160949769Y-116808377D01*
X160953958Y-116812566D01*
G37*
G36*
X160652375Y-115354914D02*
G01*
X160648186Y-115359103D01*
X160643997Y-115354914D01*
X160648186Y-115350726D01*
X160652375Y-115354914D01*
G37*
G36*
X160769657Y-115413555D02*
G01*
X160765468Y-115417744D01*
X160761280Y-115413555D01*
X160765468Y-115409367D01*
X160769657Y-115413555D01*
G37*
G36*
X160937203Y-116829321D02*
G01*
X160933014Y-116833509D01*
X160928826Y-116829321D01*
X160933014Y-116825132D01*
X160937203Y-116829321D01*
G37*
G36*
X160610488Y-117072263D02*
G01*
X160606299Y-117076451D01*
X160602111Y-117072263D01*
X160606299Y-117068074D01*
X160610488Y-117072263D01*
G37*
G36*
X161062863Y-115648120D02*
G01*
X161058674Y-115652309D01*
X161054485Y-115648120D01*
X161058674Y-115643931D01*
X161062863Y-115648120D01*
G37*
G36*
X161062863Y-115857553D02*
G01*
X161058674Y-115861741D01*
X161054485Y-115857553D01*
X161058674Y-115853364D01*
X161062863Y-115857553D01*
G37*
G36*
X160920449Y-115597856D02*
G01*
X160916260Y-115602045D01*
X160912071Y-115597856D01*
X160916260Y-115593668D01*
X160920449Y-115597856D01*
G37*
G36*
X160886939Y-116896339D02*
G01*
X160882751Y-116900528D01*
X160878562Y-116896339D01*
X160882751Y-116892150D01*
X160886939Y-116896339D01*
G37*
G36*
X161071240Y-116728793D02*
G01*
X161067051Y-116732982D01*
X161062863Y-116728793D01*
X161067051Y-116724604D01*
X161071240Y-116728793D01*
G37*
G36*
X160803166Y-116904716D02*
G01*
X160798978Y-116908905D01*
X160794789Y-116904716D01*
X160798978Y-116900528D01*
X160803166Y-116904716D01*
G37*
G36*
X161087995Y-116167513D02*
G01*
X161083806Y-116171702D01*
X161079617Y-116167513D01*
X161083806Y-116163325D01*
X161087995Y-116167513D01*
G37*
G36*
X161121504Y-115790534D02*
G01*
X161117315Y-115794723D01*
X161113127Y-115790534D01*
X161117315Y-115786346D01*
X161121504Y-115790534D01*
G37*
G36*
X160819921Y-116971735D02*
G01*
X160815732Y-116975923D01*
X160811544Y-116971735D01*
X160815732Y-116967546D01*
X160819921Y-116971735D01*
G37*
G36*
X160459697Y-115237632D02*
G01*
X160455508Y-115241821D01*
X160451319Y-115237632D01*
X160455508Y-115233443D01*
X160459697Y-115237632D01*
G37*
G36*
X160350792Y-117156036D02*
G01*
X160346603Y-117160224D01*
X160342414Y-117156036D01*
X160346603Y-117151847D01*
X160350792Y-117156036D01*
G37*
G36*
X161121504Y-115815666D02*
G01*
X161117315Y-115819855D01*
X161113127Y-115815666D01*
X161117315Y-115811478D01*
X161121504Y-115815666D01*
G37*
G36*
X161188522Y-116159136D02*
G01*
X161184334Y-116163325D01*
X161180145Y-116159136D01*
X161184334Y-116154947D01*
X161188522Y-116159136D01*
G37*
G36*
X161180145Y-116066985D02*
G01*
X161175956Y-116071174D01*
X161171768Y-116066985D01*
X161175956Y-116062797D01*
X161180145Y-116066985D01*
G37*
G36*
X160995844Y-115597856D02*
G01*
X160991656Y-115602045D01*
X160987467Y-115597856D01*
X160991656Y-115593668D01*
X160995844Y-115597856D01*
G37*
G36*
X160459697Y-117214677D02*
G01*
X160455508Y-117218865D01*
X160451319Y-117214677D01*
X160455508Y-117210488D01*
X160459697Y-117214677D01*
G37*
G36*
X160618865Y-115262764D02*
G01*
X160614677Y-115266952D01*
X160610488Y-115262764D01*
X160614677Y-115258575D01*
X160618865Y-115262764D01*
G37*
G36*
X160250264Y-115195745D02*
G01*
X160246075Y-115199934D01*
X160241887Y-115195745D01*
X160246075Y-115191557D01*
X160250264Y-115195745D01*
G37*
G36*
X161029354Y-115555970D02*
G01*
X161025165Y-115560158D01*
X161020976Y-115555970D01*
X161025165Y-115551781D01*
X161029354Y-115555970D01*
G37*
G36*
X161146636Y-115874307D02*
G01*
X161142447Y-115878496D01*
X161138259Y-115874307D01*
X161142447Y-115870119D01*
X161146636Y-115874307D01*
G37*
G36*
X160979090Y-116753925D02*
G01*
X160974901Y-116758113D01*
X160970712Y-116753925D01*
X160974901Y-116749736D01*
X160979090Y-116753925D01*
G37*
G36*
X161087995Y-116041854D02*
G01*
X161083806Y-116046042D01*
X161079617Y-116041854D01*
X161083806Y-116037665D01*
X161087995Y-116041854D01*
G37*
G36*
X160501583Y-117189545D02*
G01*
X160497394Y-117193733D01*
X160493206Y-117189545D01*
X160497394Y-117185356D01*
X160501583Y-117189545D01*
G37*
G36*
X160920449Y-115488951D02*
G01*
X160916260Y-115493140D01*
X160912071Y-115488951D01*
X160916260Y-115484763D01*
X160920449Y-115488951D01*
G37*
G36*
X160392678Y-117189545D02*
G01*
X160388489Y-117193733D01*
X160384301Y-117189545D01*
X160388489Y-117185356D01*
X160392678Y-117189545D01*
G37*
G36*
X161146636Y-116268041D02*
G01*
X161142447Y-116272230D01*
X161138259Y-116268041D01*
X161142447Y-116263852D01*
X161146636Y-116268041D01*
G37*
G36*
X161096372Y-115932949D02*
G01*
X161092183Y-115937137D01*
X161087995Y-115932949D01*
X161092183Y-115928760D01*
X161096372Y-115932949D01*
G37*
G36*
X161012599Y-116837698D02*
G01*
X161008410Y-116841887D01*
X161004222Y-116837698D01*
X161008410Y-116833509D01*
X161012599Y-116837698D01*
G37*
G36*
X161029354Y-115765402D02*
G01*
X161025165Y-115769591D01*
X161020976Y-115765402D01*
X161025165Y-115761214D01*
X161029354Y-115765402D01*
G37*
G36*
X160334037Y-117231431D02*
G01*
X160329848Y-117235620D01*
X160325660Y-117231431D01*
X160329848Y-117227243D01*
X160334037Y-117231431D01*
G37*
G36*
X160660752Y-117013621D02*
G01*
X160656563Y-117017810D01*
X160652375Y-117013621D01*
X160656563Y-117009433D01*
X160660752Y-117013621D01*
G37*
G36*
X160836675Y-116946603D02*
G01*
X160832487Y-116950792D01*
X160828298Y-116946603D01*
X160832487Y-116942414D01*
X160836675Y-116946603D01*
G37*
G36*
X161087995Y-115706761D02*
G01*
X161083806Y-115710950D01*
X161079617Y-115706761D01*
X161083806Y-115702573D01*
X161087995Y-115706761D01*
G37*
%TO.C,Voltmeter*%
X134000000Y-96500000D02*
X134000000Y-101500000D01*
X139000000Y-96500000D02*
X134000000Y-96500000D01*
X166000000Y-101500000D02*
X166000000Y-96500000D01*
X161000000Y-101500000D02*
X166000000Y-101500000D01*
X161000000Y-92000000D02*
X139000000Y-92000000D01*
X134000000Y-101500000D02*
X139000000Y-101500000D01*
X161000000Y-106000000D02*
X161000000Y-101500000D01*
X166000000Y-96500000D02*
X161000000Y-96500000D01*
X139000000Y-92000000D02*
X139000000Y-96500000D01*
X139000000Y-101500000D02*
X139000000Y-106000000D01*
X161000000Y-96500000D02*
X161000000Y-92000000D01*
X139000000Y-106000000D02*
X161000000Y-106000000D01*
D13*
%TO.C,J5*%
X176950000Y-89250000D02*
X185050000Y-89250000D01*
X182400000Y-104750000D02*
X179600000Y-104750000D01*
X176950000Y-101750000D02*
X176950000Y-89250000D01*
X182400000Y-104750000D02*
X183300000Y-103730000D01*
X179600000Y-104750000D02*
X178700000Y-103730000D01*
X185050000Y-89250000D02*
X185050000Y-101750000D01*
X185050000Y-101750000D02*
X184050000Y-102880000D01*
X176950000Y-101750000D02*
X177950000Y-102880000D01*
D10*
X181250000Y-105400000D02*
G75*
G03*
X181250000Y-105400000I-150000J0D01*
G01*
%TD*%
M02*
